<svg id="Layer_1" data-name="Layer 1" xmlns="http://www.w3.org/2000/svg" viewBox="0 0 200 200"><defs><style>.cls-1{fill:#fc7753;}</style></defs><path class="cls-1" d="M99.92,152A52,52,0,1,1,152,100.2,52,52,0,0,1,99.92,152Zm-.26-4.47c26.82-.21,48-21.42,47.87-47.87a47.53,47.53,0,1,0-95.05.83C52.65,126.33,74.13,147.74,99.66,147.53Z"/><path class="cls-1" d="M106.77,122.76H93.15v-4.28l4.47-.21V98.36H93.21V93.93h9V118.3h4.53Z"/><path class="cls-1" d="M100.13,77.21a3.78,3.78,0,0,1,3.54,4.12,3.85,3.85,0,0,1-4,3.53A4,4,0,0,1,96,80.79,3.85,3.85,0,0,1,100.13,77.21Z"/></svg>