<svg width="390" height="29" viewBox="0 0 390 29" fill="none" xmlns="http://www.w3.org/2000/svg">
<g opacity="0.5" clip-path="url(#clip0_2658_9045)">
<path d="M384.91 9.98604C384.364 9.5424 382.495 9.25227 380.353 9.2607C378.17 9.27082 376.405 9.5812 375.964 10.0299L370.171 15.8798C369.826 16.2256 368.51 16.3302 367.435 16.3235C366.391 16.3117 365.1 16.175 364.931 15.8242L360.647 7.14879C360.35 6.55165 358.079 6.28176 356.073 6.28176H356.033C354.019 6.28513 351.74 6.56346 351.5 7.16566L342.938 28.079C342.794 28.4315 341.51 28.5884 340.299 28.5884C339.079 28.5884 337.795 28.4282 337.659 28.0756L327.084 0.887273C326.851 0.280014 324.556 0.00168683 322.518 0H322.502C320.472 0 318.177 0.274953 317.929 0.880526L311.67 15.7466C311.518 16.121 310.154 16.2543 309.038 16.256C307.923 16.256 306.567 16.1244 306.399 15.7499L303.47 9.19323C303.221 8.62645 301.143 8.34644 299.193 8.31945C297.236 8.29415 295.013 8.51512 294.411 9.07178L288.891 14.225C288.538 14.554 287.254 14.6484 286.235 14.6602C285.232 14.6552 283.965 14.5304 283.684 14.1981C283.226 13.6448 281.092 13.3985 279.158 13.3985H279.094C277.152 13.4036 275.002 13.66 274.609 14.2217L266.401 25.8288C266.144 26.1948 264.812 26.3179 263.673 26.3044C262.573 26.296 261.25 26.156 261.121 25.7883L253.916 5.09929C253.707 4.49203 251.421 4.20864 249.399 4.20358H249.334C247.321 4.20358 245.05 4.47348 244.761 5.07399L239.522 16.1868C239.345 16.5546 238.005 16.6878 236.906 16.6895C235.839 16.7064 234.451 16.5647 234.242 16.1986L230.439 9.50529C230.158 9.0178 228.337 8.66862 226.002 8.65344C225.954 8.65344 225.913 8.65344 225.865 8.65344C223.603 8.65344 221.757 8.97732 221.356 9.44963L216.269 15.4581C215.988 15.7938 214.704 15.9153 213.693 15.9186H213.653C212.65 15.9186 211.383 15.8022 211.062 15.4733L209.361 13.7426L209.433 13.7392L209.04 13.4171L206.304 11.1803L204.843 9.98773C204.298 9.54409 202.428 9.25396 200.286 9.26239C198.103 9.27251 196.338 9.58289 195.897 10.0316L191.797 14.1778L191.396 14.5793C189.895 14.4865 188.732 14.2436 188.307 13.9045L187.745 13.4592C187.376 13.1674 186.228 13.0544 185.29 13.046C184.728 13.0375 184.094 13.0696 183.557 13.1573L183.34 12.7136L180.596 7.15385C180.299 6.55671 178.028 6.28682 176.022 6.28682H175.982C173.968 6.29019 171.69 6.56852 171.449 7.17072L162.888 28.0841C162.743 28.4366 161.459 28.5935 160.248 28.5935C159.028 28.5935 157.745 28.4332 157.608 28.0807L147.009 0.887273C146.776 0.280014 144.481 0.00168683 142.443 0H142.427C140.397 0 138.103 0.274953 137.854 0.880526L131.595 15.7466C131.443 16.121 130.079 16.2543 128.964 16.256C127.848 16.256 126.492 16.1244 126.324 15.7499L123.395 9.19323C123.147 8.62645 121.068 8.34644 119.119 8.31945C117.161 8.29415 114.938 8.51512 114.337 9.07178L108.816 14.225C108.463 14.554 107.179 14.6484 106.16 14.6602C105.158 14.6552 103.89 14.5304 103.609 14.1981C103.152 13.6448 101.017 13.3985 99.0836 13.3985H99.0194C97.0777 13.4036 94.9274 13.66 94.5342 14.2217L86.326 25.8288C86.0693 26.1948 84.7373 26.3179 83.598 26.3044C82.4987 26.296 81.1748 26.156 81.0465 25.7883L73.8412 5.09929C73.6326 4.49203 71.3459 4.20864 69.3239 4.20358H69.2597C67.2458 4.20358 64.9751 4.47348 64.6862 5.07399L59.4468 16.1868C59.2703 16.5546 57.9303 16.6878 56.8311 16.6895C55.7639 16.7064 54.3759 16.5647 54.1672 16.1986L50.364 9.50529C50.0832 9.0178 48.2618 8.66862 45.9269 8.65344C45.8788 8.65344 45.8387 8.65344 45.7905 8.65344C43.5279 8.65344 41.6824 8.97732 41.2813 9.44963L36.1943 15.4581C35.9134 15.7938 34.6296 15.9153 33.6187 15.9186H33.5785C32.5756 15.9186 31.3079 15.8022 30.9869 15.4733L27.1757 11.5987C26.7344 11.1533 24.9932 10.8446 22.8349 10.8295C20.7086 10.8227 18.8391 11.0977 18.2534 11.5329L15.2124 13.8033C14.8112 14.1036 13.6318 14.2099 12.6609 14.2099H12.6448C11.666 14.2099 10.4865 14.0985 10.0933 13.7949L9.53167 13.3496C9.00211 12.9329 7.33319 12.6512 5.28716 12.6344C3.15287 12.6124 1.45988 12.8671 0.769848 13.2737L0.015625 13.719L1.84502 13.8556L2.59924 13.4103C3.08868 13.1252 4.26816 13.0257 5.20693 13.0409C6.15372 13.0493 7.29307 13.1623 7.66216 13.4542L8.22382 13.8995C8.77745 14.3313 10.5025 14.613 12.6288 14.6164H12.6609C14.7711 14.6164 16.5042 14.3398 17.0819 13.9113L20.1229 11.6408C20.5401 11.3304 21.7918 11.2292 22.7707 11.2343C23.7335 11.241 24.9692 11.3625 25.2741 11.6796L29.0853 15.5543C29.6149 16.0941 31.6769 16.3184 33.6508 16.3252C35.5363 16.3201 37.6465 16.0704 38.1039 15.529L43.1909 9.52047C43.4878 9.1713 44.8598 9.06672 45.8788 9.06166C46.9379 9.0684 48.2378 9.19998 48.4464 9.55252L52.2496 16.2459C52.5866 16.8312 54.8412 17.0977 56.815 17.0977H56.8632C58.845 17.0943 61.1077 16.8194 61.3885 16.2273L66.628 5.11279C66.8045 4.73662 68.2487 4.61011 69.2998 4.61011C70.4231 4.61348 71.7791 4.75012 71.9155 5.12797L79.1208 25.817C79.3294 26.409 81.5519 26.6958 83.5338 26.7127C85.4595 26.7363 87.8345 26.4782 88.2517 25.8895L96.4599 14.2841C96.7086 13.9366 98.0084 13.8118 99.0515 13.8084C100.143 13.7932 101.41 13.9248 101.699 14.2706C102.149 14.8087 104.243 15.06 106.112 15.0701C108.03 15.1022 110.132 14.8509 110.71 14.3161L116.23 9.16287C116.591 8.82044 117.915 8.70405 118.998 8.72935C120.041 8.74285 121.309 8.88454 121.462 9.23371L124.39 15.7904C124.663 16.3926 126.95 16.6659 128.964 16.6659H128.972C130.994 16.6659 133.28 16.3893 133.537 15.7854L139.796 0.919323C139.94 0.568462 141.224 0.4099 142.435 0.4099C143.559 0.4099 144.923 0.544846 145.067 0.922697L155.634 28.1144C155.867 28.7234 158.17 29 160.208 29.0017C162.238 29.0017 164.541 28.725 164.781 28.1178L173.342 7.20446C173.495 6.83167 174.851 6.69672 175.966 6.69503C177.154 6.70515 178.446 6.82323 178.63 7.19602L181.503 13.0122L181.92 13.8506L182.915 15.8714C183.196 16.4399 185.298 16.7148 187.255 16.7367C189.574 16.7604 191.516 16.4466 191.989 15.9692L193.329 14.6147L193.763 14.1728C194.413 14.1171 195.006 14.0058 195.271 13.8084L198.312 11.5379C198.898 11.101 200.767 10.8278 202.894 10.8345C203.239 10.8362 203.568 10.8497 203.889 10.8666L204.522 11.3844L207.122 13.5065L209.144 15.561C209.674 16.1008 211.736 16.3252 213.709 16.3319C215.595 16.3268 217.705 16.0772 218.163 15.5357L223.25 9.52722C223.546 9.17805 224.919 9.07346 225.938 9.0684C226.997 9.07515 228.296 9.20672 228.505 9.55927L232.308 16.2526C232.645 16.8379 234.9 17.1045 236.874 17.1045H236.922C238.904 17.1011 241.166 16.8261 241.447 16.2341L246.687 5.11953C246.863 4.74337 248.307 4.61686 249.359 4.61686C250.482 4.62023 251.838 4.75686 251.974 5.13471L259.179 25.8237C259.388 26.4158 261.611 26.7025 263.592 26.7194C265.518 26.743 267.893 26.4849 268.31 25.8962L276.519 14.2908C276.767 13.9433 278.067 13.8185 279.11 13.8151C280.201 13.8 281.469 13.9315 281.758 14.2773C282.207 14.8154 284.302 15.0668 286.171 15.0769C288.089 15.1089 290.191 14.8576 290.769 14.3229L296.289 9.16961C296.65 8.82719 297.974 8.7108 299.057 8.7361C300.092 8.74959 301.368 8.89129 301.52 9.24046L304.449 15.7972C304.722 16.3994 307.008 16.6726 309.022 16.6726H309.03C311.052 16.6726 313.339 16.396 313.596 15.7921L319.854 0.92607C319.999 0.575209 321.283 0.416647 322.494 0.416647C323.617 0.416647 324.981 0.551594 325.126 0.929444L335.693 28.1212C335.926 28.7301 338.228 29.0067 340.266 29.0084C342.296 29.0084 344.599 28.7318 344.84 28.1245L353.401 7.2112C353.554 6.83841 354.91 6.70347 356.025 6.70178C357.212 6.7119 358.504 6.82998 358.689 7.20277L362.973 15.8781C363.254 16.4466 365.356 16.7216 367.314 16.7435C369.633 16.7671 371.575 16.4534 372.048 15.976L377.841 10.1244C378.154 9.80386 379.406 9.68578 380.377 9.68072C381.348 9.66723 382.623 9.78193 383.008 10.0991L387.598 13.8523L389.476 13.751L384.886 9.99785L384.91 9.98604Z" fill="#E14617"/>
</g>
<defs>
<clipPath id="clip0_2658_9045">
<rect width="389.5" height="29" fill="white"/>
</clipPath>
</defs>
</svg>
