<svg width="19" height="18" viewBox="0 0 19 18" fill="none" xmlns="http://www.w3.org/2000/svg">
<path d="M4.7 14.94L5.843 14.0258L5.8505 14.0198C6.089 13.8285 6.20975 13.7325 6.344 13.6642C6.4645 13.6027 6.5915 13.5583 6.725 13.5308C6.87425 13.5 7.0295 13.5 7.3415 13.5H13.8522C14.6907 13.5 15.1108 13.5 15.431 13.3365C15.7132 13.1927 15.9427 12.9632 16.0865 12.681C16.25 12.36 16.25 11.94 16.25 11.103V5.39775C16.25 4.55925 16.25 4.13925 16.0865 3.819C15.9425 3.53666 15.7128 3.30718 15.4302 3.1635C15.11 3 14.69 3 13.85 3H5.15C4.31 3 3.89 3 3.569 3.1635C3.28677 3.30731 3.05731 3.53677 2.9135 3.819C2.75 4.14 2.75 4.56 2.75 5.4V14.0032C2.75 14.8027 2.75 15.2025 2.9135 15.4072C2.98381 15.4955 3.07313 15.5668 3.1748 15.6158C3.27648 15.6647 3.3879 15.6901 3.50075 15.69C3.76325 15.69 4.07525 15.4395 4.7 14.94Z" stroke="#004E61" stroke-width="2" stroke-linecap="round" stroke-linejoin="round"/>
</svg>
