<svg width="14" height="14" viewBox="0 0 14 14" fill="none" xmlns="http://www.w3.org/2000/svg">
<path d="M10.2971 4.46266C9.80378 3.82188 9.13443 3.33876 8.3709 3.07242C7.60736 2.80608 6.78274 2.76806 5.99794 2.96303C5.21314 3.15799 4.50218 3.57748 3.95204 4.17016C3.40191 4.76285 3.03645 5.50303 2.90039 6.30016M10.5012 2.3335V4.66683H8.16789M3.70422 9.53766C4.19736 10.1787 4.8667 10.662 5.6303 10.9285C6.3939 11.195 7.21864 11.2331 8.00355 11.0381C8.78846 10.8432 9.4995 10.4235 10.0496 9.83069C10.5997 9.23783 10.9651 8.49745 11.1009 7.70016M3.50064 11.6668V9.3335H5.83397" stroke="#6B7280" stroke-linecap="round" stroke-linejoin="round"/>
</svg>
