<svg width="13" height="12" viewBox="0 0 13 12" fill="none" xmlns="http://www.w3.org/2000/svg">
<g clip-path="url(#clip0_2402_2373)">
<path d="M4.97091 1.48202L4.17243 1.78065C4.10889 1.80395 4.06653 1.86537 4.06653 1.93315C4.06653 2.00092 4.10889 2.06234 4.17243 2.08564L4.97091 2.38428L5.26954 3.18276C5.29284 3.2463 5.35426 3.28866 5.42204 3.28866C5.48981 3.28866 5.55124 3.2463 5.57453 3.18276L5.87317 2.38428L6.67165 2.08564C6.73519 2.06234 6.77755 2.00092 6.77755 1.93315C6.77755 1.86537 6.73519 1.80395 6.67165 1.78065L5.87317 1.48202L5.57453 0.683536C5.55124 0.619996 5.48981 0.577637 5.42204 0.577637C5.35426 0.577637 5.29284 0.619996 5.26954 0.683536L4.97091 1.48202ZM0.97639 8.95214C0.580327 9.34821 0.580327 9.99207 0.97639 10.3903L1.70921 11.1231C2.10528 11.5191 2.74914 11.5191 3.14732 11.1231L11.2232 3.04509C11.6193 2.64902 11.6193 2.00516 11.2232 1.60698L10.4904 0.876272C10.0943 0.480209 9.45044 0.480209 9.05226 0.876272L0.97639 8.95214ZM10.2637 2.32709L8.03987 4.55097L7.54638 4.05748L9.77026 1.8336L10.2637 2.32709ZM0.158849 3.05991C0.0635395 3.09592 0 3.18699 0 3.28866C0 3.39032 0.0635395 3.48139 0.158849 3.5174L1.35551 3.96641L1.80452 5.16307C1.84053 5.25838 1.9316 5.32192 2.03326 5.32192C2.13493 5.32192 2.226 5.25838 2.26201 5.16307L2.71102 3.96641L3.90768 3.5174C4.00299 3.48139 4.06653 3.39032 4.06653 3.28866C4.06653 3.18699 4.00299 3.09592 3.90768 3.05991L2.71102 2.6109L2.26201 1.41424C2.226 1.31893 2.13493 1.25539 2.03326 1.25539C1.9316 1.25539 1.84053 1.31893 1.80452 1.41424L1.35551 2.6109L0.158849 3.05991ZM7.61415 8.48195C7.51884 8.51796 7.4553 8.60903 7.4553 8.71069C7.4553 8.81236 7.51884 8.90343 7.61415 8.93944L8.81081 9.38845L9.25982 10.5851C9.29583 10.6804 9.3869 10.744 9.48857 10.744C9.59023 10.744 9.6813 10.6804 9.71731 10.5851L10.1663 9.38845L11.363 8.93944C11.4583 8.90343 11.5218 8.81236 11.5218 8.71069C11.5218 8.60903 11.4583 8.51796 11.363 8.48195L10.1663 8.03294L9.71731 6.83628C9.6813 6.74097 9.59023 6.67743 9.48857 6.67743C9.3869 6.67743 9.29583 6.74097 9.25982 6.83628L8.81081 8.03294L7.61415 8.48195Z" fill="#004E61"/>
</g>
<defs>
<clipPath id="clip0_2402_2373">
<path d="M0 0.577637H12.1996V11.4217H0V0.577637Z" fill="white"/>
</clipPath>
</defs>
</svg>
