<svg width="16" height="17" viewBox="0 0 16 17" fill="none" xmlns="http://www.w3.org/2000/svg">
<g clip-path="url(#clip0_2403_3976)">
<path d="M6.66699 8.83325L5.33366 10.4999L6.66699 12.1666M9.33366 8.83325L10.667 10.4999L9.33366 12.1666M9.33366 1.83325V4.49992C9.33366 4.85354 9.47413 5.19268 9.72418 5.44273C9.97423 5.69278 10.3134 5.83325 10.667 5.83325H13.3337M10.0003 1.83325H4.00033C3.6467 1.83325 3.30756 1.97373 3.05752 2.22378C2.80747 2.47382 2.66699 2.81296 2.66699 3.16659V13.8333C2.66699 14.1869 2.80747 14.526 3.05752 14.7761C3.30756 15.0261 3.6467 15.1666 4.00033 15.1666H12.0003C12.3539 15.1666 12.6931 15.0261 12.9431 14.7761C13.1932 14.526 13.3337 14.1869 13.3337 13.8333V5.16659L10.0003 1.83325Z" stroke="#46A756" stroke-width="2" stroke-linecap="round" stroke-linejoin="round"/>
</g>
<defs>
<clipPath id="clip0_2403_3976">
<rect width="16" height="16" fill="white" transform="translate(0 0.5)"/>
</clipPath>
</defs>
</svg>
