<svg width="17" height="16" viewBox="0 0 17 16" fill="none" xmlns="http://www.w3.org/2000/svg">
<g clip-path="url(#clip0_2658_8654)">
<path d="M16.0969 0.196854C16.35 0.384354 16.5 0.684354 16.5 0.999979V3.24998V11.5C16.5 12.8812 15.1562 14 13.5 14C11.8438 14 10.5 12.8812 10.5 11.5C10.5 10.1187 11.8438 8.99998 13.5 8.99998C13.85 8.99998 14.1875 9.04998 14.5 9.14373V4.59373L6.5 6.99373V13.5C6.5 14.8812 5.15625 16 3.5 16C1.84375 16 0.5 14.8812 0.5 13.5C0.5 12.1187 1.84375 11 3.5 11C3.85 11 4.1875 11.05 4.5 11.1437V6.24998V3.99998C4.5 3.55935 4.79063 3.16873 5.2125 3.0406L15.2125 0.0406036C15.5156 -0.0500214 15.8438 0.00622866 16.0969 0.196854Z" fill="#46A756"/>
</g>
<defs>
<clipPath id="clip0_2658_8654">
<path d="M0.5 0H16.5V16H0.5V0Z" fill="white"/>
</clipPath>
</defs>
</svg>
