<svg width="16" height="17" viewBox="0 0 16 17" fill="none" xmlns="http://www.w3.org/2000/svg">
<g clip-path="url(#clip0_2677_10283)">
<path d="M15.566 0.674997C15.8816 0.893747 16.0472 1.27187 15.9878 1.65L13.9878 14.65C13.941 14.9531 13.7566 15.2187 13.4878 15.3687C13.2191 15.5187 12.8972 15.5375 12.6128 15.4187L8.87533 13.8656L6.7347 16.1812C6.45658 16.4844 6.01908 16.5844 5.6347 16.4344C5.25033 16.2844 5.00033 15.9125 5.00033 15.5V12.8875C5.00033 12.7625 5.0472 12.6437 5.13158 12.5531L10.3691 6.8375C10.5503 6.64062 10.5441 6.3375 10.3566 6.15C10.1691 5.9625 9.86595 5.95 9.66908 6.12812L3.31283 11.775L0.553451 10.3937C0.222201 10.2281 0.00970049 9.89687 0.000325486 9.52812C-0.00904951 9.15937 0.184701 8.81562 0.503451 8.63125L14.5035 0.631247C14.8378 0.440622 15.2503 0.459372 15.566 0.674997Z" fill="white"/>
</g>
<defs>
<clipPath id="clip0_2677_10283">
<path d="M0 0.5H16V16.5H0V0.5Z" fill="white"/>
</clipPath>
</defs>
</svg>
