<svg width="17" height="16" viewBox="0 0 17 16" fill="none" xmlns="http://www.w3.org/2000/svg">
<g clip-path="url(#clip0_2621_7578)">
<path d="M1.25016 1.75C1.25016 1.33437 1.58453 1 2.00016 1H3.00016C3.41578 1 3.75016 1.33437 3.75016 1.75V5.5H4.25016C4.66578 5.5 5.00016 5.83437 5.00016 6.25C5.00016 6.66563 4.66578 7 4.25016 7H1.75016C1.33453 7 1.00016 6.66563 1.00016 6.25C1.00016 5.83437 1.33453 5.5 1.75016 5.5H2.25016V2.5H2.00016C1.58453 2.5 1.25016 2.16563 1.25016 1.75ZM3.20953 10.6625C3.00641 10.4313 2.63766 10.4469 2.45953 10.7L2.10953 11.1844C1.86891 11.5219 1.40016 11.6 1.06266 11.3594C0.725157 11.1188 0.647032 10.65 0.887657 10.3125L1.23453 9.825C1.97516 8.7875 3.49391 8.7125 4.33453 9.67188C5.00016 10.4344 4.98453 11.575 4.30016 12.3188L3.21266 13.5H4.25016C4.66578 13.5 5.00016 13.8344 5.00016 14.25C5.00016 14.6656 4.66578 15 4.25016 15H1.50016C1.20328 15 0.931407 14.825 0.812657 14.55C0.693907 14.275 0.747032 13.9594 0.947032 13.7406L3.19703 11.3031C3.36266 11.1219 3.36578 10.8469 3.20641 10.6625H3.20953ZM7.50016 2H15.5002C16.0533 2 16.5002 2.44687 16.5002 3C16.5002 3.55313 16.0533 4 15.5002 4H7.50016C6.94703 4 6.50016 3.55313 6.50016 3C6.50016 2.44687 6.94703 2 7.50016 2ZM7.50016 7H15.5002C16.0533 7 16.5002 7.44687 16.5002 8C16.5002 8.55313 16.0533 9 15.5002 9H7.50016C6.94703 9 6.50016 8.55313 6.50016 8C6.50016 7.44687 6.94703 7 7.50016 7ZM7.50016 12H15.5002C16.0533 12 16.5002 12.4469 16.5002 13C16.5002 13.5531 16.0533 14 15.5002 14H7.50016C6.94703 14 6.50016 13.5531 6.50016 13C6.50016 12.4469 6.94703 12 7.50016 12Z" fill="#6B7280"/>
</g>
<defs>
<clipPath id="clip0_2621_7578">
<path d="M0.5 0H16.5V16H0.5V0Z" fill="white"/>
</clipPath>
</defs>
</svg>
