<svg width="13" height="14" viewBox="0 0 13 14" fill="none" xmlns="http://www.w3.org/2000/svg">
<path d="M13 14H0.75V0H13V14Z" stroke="#E5E7EB"/>
<path d="M7.75 2.1875C7.75 1.70352 7.35898 1.3125 6.875 1.3125C6.39102 1.3125 6 1.70352 6 2.1875V6.125H2.0625C1.57852 6.125 1.1875 6.51602 1.1875 7C1.1875 7.48398 1.57852 7.875 2.0625 7.875H6V11.8125C6 12.2965 6.39102 12.6875 6.875 12.6875C7.35898 12.6875 7.75 12.2965 7.75 11.8125V7.875H11.6875C12.1715 7.875 12.5625 7.48398 12.5625 7C12.5625 6.51602 12.1715 6.125 11.6875 6.125H7.75V2.1875Z" fill="#E14617"/>
</svg>
