<svg width="13" height="16" viewBox="0 0 13 16" fill="none" xmlns="http://www.w3.org/2000/svg">
<g clip-path="url(#clip0_2621_7560)">
<path d="M4.5 2C4.5 1.44687 4.94687 1 5.5 1H11.5C12.0531 1 12.5 1.44687 12.5 2C12.5 2.55313 12.0531 3 11.5 3H9.66562L5.5 13H7.5C8.05313 13 8.5 13.4469 8.5 14C8.5 14.5531 8.05313 15 7.5 15H1.5C0.946875 15 0.5 14.5531 0.5 14C0.5 13.4469 0.946875 13 1.5 13H3.33437L7.5 3H5.5C4.94687 3 4.5 2.55313 4.5 2Z" fill="#6B7280"/>
</g>
<defs>
<clipPath id="clip0_2621_7560">
<path d="M0.5 0H12.5V16H0.5V0Z" fill="white"/>
</clipPath>
</defs>
</svg>
