<svg width="12" height="18" viewBox="0 0 12 18" fill="none" xmlns="http://www.w3.org/2000/svg">
<g clip-path="url(#clip0_2658_9080)">
<path d="M9.9043 15.4898C10.2383 15.7676 10.7059 15.8309 11.1031 15.6445C11.5004 15.4582 11.75 15.0609 11.75 14.625V3.375C11.75 2.93907 11.4969 2.5418 11.1031 2.35547C10.7094 2.16915 10.2418 2.22891 9.9043 2.51016L3.1543 8.13516L2.75 8.47266V3.375C2.75 2.75274 2.24727 2.25 1.625 2.25C1.00273 2.25 0.5 2.75274 0.5 3.375V14.625C0.5 15.2473 1.00273 15.75 1.625 15.75C2.24727 15.75 2.75 15.2473 2.75 14.625V9.52735L3.1543 9.86485L9.9043 15.4898Z" fill="#4B5563"/>
</g>
<defs>
<clipPath id="clip0_2658_9080">
<path d="M0.5 0H11.75V18H0.5V0Z" fill="white"/>
</clipPath>
</defs>
</svg>
