<svg width="13" height="15" viewBox="0 0 13 15" fill="none" xmlns="http://www.w3.org/2000/svg">
<path d="M13 14.75H0.75V0.75H13V14.75Z" stroke="#E5E7EB"/>
<path d="M7.75 2.9375C7.75 2.45352 7.35898 2.0625 6.875 2.0625C6.39102 2.0625 6 2.45352 6 2.9375V6.875H2.0625C1.57852 6.875 1.1875 7.26602 1.1875 7.75C1.1875 8.23398 1.57852 8.625 2.0625 8.625H6V12.5625C6 13.0465 6.39102 13.4375 6.875 13.4375C7.35898 13.4375 7.75 13.0465 7.75 12.5625V8.625H11.6875C12.1715 8.625 12.5625 8.23398 12.5625 7.75C12.5625 7.26602 12.1715 6.875 11.6875 6.875H7.75V2.9375Z" fill="#E14617"/>
</svg>
