<svg width="21" height="16" viewBox="0 0 21 16" fill="none" xmlns="http://www.w3.org/2000/svg">
<path d="M20.5 16H0.5V0H20.5V16Z" stroke="#E5E7EB"/>
<path d="M18.6184 8.36562C20.384 6.6 20.384 3.74062 18.6184 1.975C17.0559 0.412497 14.5934 0.209372 12.7965 1.49375L12.7465 1.52812C12.2965 1.85 12.1934 2.475 12.5152 2.92187C12.8371 3.36875 13.4621 3.475 13.909 3.15312L13.959 3.11875C14.9621 2.40312 16.334 2.51562 17.2027 3.3875C18.1871 4.37187 18.1871 5.96562 17.2027 6.95L13.6965 10.4625C12.7121 11.4469 11.1184 11.4469 10.134 10.4625C9.26211 9.59062 9.14961 8.21875 9.86523 7.21875L9.89961 7.16875C10.2215 6.71875 10.1152 6.09375 9.66836 5.775C9.22148 5.45625 8.59336 5.55937 8.27461 6.00625L8.24023 6.05625C6.95273 7.85 7.15586 10.3125 8.71836 11.875C10.484 13.6406 13.3434 13.6406 15.109 11.875L18.6184 8.36562ZM2.38086 7.63437C0.615234 9.4 0.615234 12.2594 2.38086 14.025C3.94336 15.5875 6.40586 15.7906 8.20273 14.5062L8.25273 14.4719C8.70273 14.15 8.80586 13.525 8.48398 13.0781C8.16211 12.6312 7.53711 12.525 7.09023 12.8469L7.04023 12.8812C6.03711 13.5969 4.66523 13.4844 3.79648 12.6125C2.81211 11.625 2.81211 10.0312 3.79648 9.04687L7.30273 5.5375C8.28711 4.55312 9.88086 4.55312 10.8652 5.5375C11.7371 6.40937 11.8496 7.78125 11.134 8.78437L11.0996 8.83437C10.7777 9.28437 10.884 9.90937 11.3309 10.2281C11.7777 10.5469 12.4059 10.4437 12.7246 9.99687L12.759 9.94687C14.0465 8.15 13.8434 5.6875 12.2809 4.125C10.5152 2.35937 7.65586 2.35937 5.89023 4.125L2.38086 7.63437Z" fill="#6B7280"/>
</svg>
