<svg width="14" height="12" viewBox="0 0 14 12" fill="none" xmlns="http://www.w3.org/2000/svg">
<g clip-path="url(#clip0_2673_9591)">
<path d="M7.67789 0.421875C7.55367 0.164062 7.29117 0 7.00289 0C6.7146 0 6.45445 0.164062 6.32789 0.421875L4.82085 3.52266L1.45523 4.01953C1.17398 4.06172 0.939604 4.25859 0.852885 4.52812C0.766167 4.79766 0.836479 5.09531 1.03804 5.29453L3.48023 7.71094L2.90367 11.1258C2.85679 11.407 2.97398 11.693 3.20601 11.8594C3.43804 12.0258 3.74507 12.0469 3.9982 11.9133L7.00523 10.3078L10.0123 11.9133C10.2654 12.0469 10.5724 12.0281 10.8044 11.8594C11.0365 11.6906 11.1537 11.407 11.1068 11.1258L10.5279 7.71094L12.9701 5.29453C13.1716 5.09531 13.2443 4.79766 13.1552 4.52812C13.0662 4.25859 12.8341 4.06172 12.5529 4.01953L9.18492 3.52266L7.67789 0.421875Z" fill="#EAB308"/>
</g>
<defs>
<clipPath id="clip0_2673_9591">
<path d="M0.25 0H13.75V12H0.25V0Z" fill="white"/>
</clipPath>
</defs>
</svg>
