<svg width="13" height="16" viewBox="0 0 13 16" fill="none" xmlns="http://www.w3.org/2000/svg">
<g clip-path="url(#clip0_2621_7551)">
<path d="M0.5 2C0.5 1.44687 0.946875 1 1.5 1H3H3.5H7.5C9.70937 1 11.5 2.79063 11.5 5C11.5 5.97812 11.1469 6.87813 10.5625 7.57188C11.7219 8.27188 12.5 9.54375 12.5 11C12.5 13.2094 10.7094 15 8.5 15H3.5H3H1.5C0.946875 15 0.5 14.5531 0.5 14C0.5 13.4469 0.946875 13 1.5 13H2V8V3H1.5C0.946875 3 0.5 2.55313 0.5 2ZM7.5 7C8.60312 7 9.5 6.10312 9.5 5C9.5 3.89688 8.60312 3 7.5 3H4V7H7.5ZM4 9V13H8.5C9.60312 13 10.5 12.1031 10.5 11C10.5 9.89688 9.60312 9 8.5 9H7.5H4Z" fill="#6B7280"/>
</g>
<defs>
<clipPath id="clip0_2621_7551">
<path d="M0.5 0H12.5V16H0.5V0Z" fill="white"/>
</clipPath>
</defs>
</svg>
