<svg width="16" height="15" viewBox="0 0 16 15" fill="none" xmlns="http://www.w3.org/2000/svg">
<g clip-path="url(#clip0_2663_7727)">
<path d="M6.41758 1.91758L5.38672 2.30312C5.30469 2.3332 5.25 2.4125 5.25 2.5C5.25 2.5875 5.30469 2.6668 5.38672 2.69687L6.41758 3.08242L6.80313 4.11328C6.8332 4.19531 6.9125 4.25 7 4.25C7.0875 4.25 7.1668 4.19531 7.19688 4.11328L7.58242 3.08242L8.61328 2.69687C8.69531 2.6668 8.75 2.5875 8.75 2.5C8.75 2.4125 8.69531 2.3332 8.61328 2.30312L7.58242 1.91758L7.19688 0.886719C7.1668 0.804688 7.0875 0.75 7 0.75C6.9125 0.75 6.8332 0.804688 6.80313 0.886719L6.41758 1.91758ZM1.26055 11.5617C0.749219 12.073 0.749219 12.9043 1.26055 13.4184L2.20664 14.3645C2.71797 14.8758 3.54922 14.8758 4.06328 14.3645L14.4895 3.93555C15.0008 3.42422 15.0008 2.59297 14.4895 2.07891L13.5434 1.13555C13.032 0.624219 12.2008 0.624219 11.6867 1.13555L1.26055 11.5617ZM13.2508 3.00859L10.3797 5.87969L9.74258 5.24258L12.6137 2.37148L13.2508 3.00859ZM0.205078 3.95469C0.0820312 4.00117 0 4.11875 0 4.25C0 4.38125 0.0820312 4.49883 0.205078 4.54531L1.75 5.125L2.32969 6.66992C2.37617 6.79297 2.49375 6.875 2.625 6.875C2.75625 6.875 2.87383 6.79297 2.92031 6.66992L3.5 5.125L5.04492 4.54531C5.16797 4.49883 5.25 4.38125 5.25 4.25C5.25 4.11875 5.16797 4.00117 5.04492 3.95469L3.5 3.375L2.92031 1.83008C2.87383 1.70703 2.75625 1.625 2.625 1.625C2.49375 1.625 2.37617 1.70703 2.32969 1.83008L1.75 3.375L0.205078 3.95469ZM9.83008 10.9547C9.70703 11.0012 9.625 11.1187 9.625 11.25C9.625 11.3813 9.70703 11.4988 9.83008 11.5453L11.375 12.125L11.9547 13.6699C12.0012 13.793 12.1187 13.875 12.25 13.875C12.3813 13.875 12.4988 13.793 12.5453 13.6699L13.125 12.125L14.6699 11.5453C14.793 11.4988 14.875 11.3813 14.875 11.25C14.875 11.1187 14.793 11.0012 14.6699 10.9547L13.125 10.375L12.5453 8.83008C12.4988 8.70703 12.3813 8.625 12.25 8.625C12.1187 8.625 12.0012 8.70703 11.9547 8.83008L11.375 10.375L9.83008 10.9547Z" fill="#38BDF8"/>
</g>
<defs>
<clipPath id="clip0_2663_7727">
<path d="M0 0.75H15.75V14.75H0V0.75Z" fill="white"/>
</clipPath>
</defs>
</svg>
