<svg width="18" height="18" viewBox="0 0 18 18" fill="none" xmlns="http://www.w3.org/2000/svg">
<g clip-path="url(#clip0_2663_7788)">
<path d="M9 0.28125C4.18711 0.28125 0.28125 4.18711 0.28125 9C0.28125 13.8129 4.18711 17.7188 9 17.7188C13.8129 17.7188 17.7188 13.8129 17.7188 9C17.7188 4.18711 13.8129 0.28125 9 0.28125ZM12.5402 13.1098C12.3926 13.1098 12.3012 13.0641 12.1641 12.9832C9.97031 11.6613 7.41797 11.6051 4.89727 12.1219C4.76016 12.157 4.58086 12.2133 4.47891 12.2133C4.13789 12.2133 3.92344 11.9426 3.92344 11.6578C3.92344 11.2957 4.13789 11.1234 4.40156 11.0672C7.28086 10.4309 10.2234 10.4871 12.7336 11.9883C12.948 12.1254 13.0746 12.2484 13.0746 12.5684C13.0746 12.8883 12.825 13.1098 12.5402 13.1098ZM13.4859 10.8035C13.3031 10.8035 13.1801 10.7227 13.0535 10.6559C10.8562 9.35508 7.57969 8.83125 4.66523 9.62227C4.49648 9.66797 4.40508 9.71367 4.24688 9.71367C3.8707 9.71367 3.56484 9.40781 3.56484 9.03164C3.56484 8.65547 3.74766 8.40586 4.10977 8.30391C5.08711 8.02969 6.08555 7.82578 7.54805 7.82578C9.82969 7.82578 12.034 8.3918 13.7707 9.42539C14.0555 9.59414 14.168 9.81211 14.168 10.118C14.1645 10.4977 13.8691 10.8035 13.4859 10.8035ZM14.5758 8.12461C14.393 8.12461 14.2805 8.07891 14.1223 7.9875C11.6191 6.49336 7.14375 6.13477 4.24688 6.94336C4.12031 6.97852 3.96211 7.03477 3.79336 7.03477C3.3293 7.03477 2.97422 6.67266 2.97422 6.20508C2.97422 5.72695 3.26953 5.45625 3.58594 5.36484C4.82344 5.00273 6.20859 4.83047 7.7168 4.83047C10.2832 4.83047 12.9727 5.36484 14.9379 6.51094C15.2121 6.66914 15.3914 6.88711 15.3914 7.30547C15.3914 7.78359 15.0047 8.12461 14.5758 8.12461Z" fill="white"/>
</g>
<defs>
<clipPath id="clip0_2663_7788">
<path d="M0.28125 0H17.7188V18H0.28125V0Z" fill="white"/>
</clipPath>
</defs>
</svg>
