<svg width="15" height="12" viewBox="0 0 15 12" fill="none" xmlns="http://www.w3.org/2000/svg">
<g clip-path="url(#clip0_2673_9586)">
<path d="M8.17789 0.421875C8.05367 0.164062 7.79117 0 7.50289 0C7.2146 0 6.95445 0.164062 6.82789 0.421875L5.32085 3.52266L1.95523 4.01953C1.67398 4.06172 1.4396 4.25859 1.35289 4.52812C1.26617 4.79766 1.33648 5.09531 1.53804 5.29453L3.98023 7.71094L3.40367 11.1258C3.35679 11.407 3.47398 11.693 3.70601 11.8594C3.93804 12.0258 4.24507 12.0469 4.4982 11.9133L7.50523 10.3078L10.5123 11.9133C10.7654 12.0469 11.0724 12.0281 11.3044 11.8594C11.5365 11.6906 11.6537 11.407 11.6068 11.1258L11.0279 7.71094L13.4701 5.29453C13.6716 5.09531 13.7443 4.79766 13.6552 4.52812C13.5662 4.25859 13.3341 4.06172 13.0529 4.01953L9.68492 3.52266L8.17789 0.421875Z" fill="#EAB308"/>
</g>
<defs>
<clipPath id="clip0_2673_9586">
<path d="M0.75 0H14.25V12H0.75V0Z" fill="white"/>
</clipPath>
</defs>
</svg>
