<svg width="14" height="13" viewBox="0 0 14 13" fill="none" xmlns="http://www.w3.org/2000/svg">
<g clip-path="url(#clip0_2673_9276)">
<path d="M7.77164 0.921875C7.64742 0.664062 7.38492 0.5 7.09664 0.5C6.80835 0.5 6.5482 0.664062 6.42164 0.921875L4.9146 4.02266L1.54898 4.51953C1.26773 4.56172 1.03335 4.75859 0.946635 5.02812C0.859917 5.29766 0.930229 5.59531 1.13179 5.79453L3.57398 8.21094L2.99742 11.6258C2.95054 11.907 3.06773 12.193 3.29976 12.3594C3.53179 12.5258 3.83882 12.5469 4.09195 12.4133L7.09898 10.8078L10.106 12.4133C10.3591 12.5469 10.6662 12.5281 10.8982 12.3594C11.1302 12.1906 11.2474 11.907 11.2005 11.6258L10.6216 8.21094L13.0638 5.79453C13.2654 5.59531 13.338 5.29766 13.249 5.02812C13.1599 4.75859 12.9279 4.56172 12.6466 4.51953L9.27867 4.02266L7.77164 0.921875Z" fill="#EAB308"/>
</g>
<defs>
<clipPath id="clip0_2673_9276">
<path d="M0.34375 0.5H13.8438V12.5H0.34375V0.5Z" fill="white"/>
</clipPath>
</defs>
</svg>
