<svg width="15" height="13" viewBox="0 0 15 13" fill="none" xmlns="http://www.w3.org/2000/svg">
<g clip-path="url(#clip0_2673_9281)">
<path d="M7.59121 0.5C7.80684 0.5 8.00371 0.621875 8.09746 0.816406L9.70528 4.12813L13.2959 4.65781C13.5068 4.68828 13.6826 4.83594 13.7482 5.03984C13.8139 5.24375 13.76 5.46406 13.61 5.61406L11.0061 8.19687L11.6201 11.8438C11.6553 12.0547 11.5686 12.268 11.3951 12.3945C11.2217 12.5211 10.9897 12.5352 10.8022 12.4344L7.59121 10.7188L4.38262 12.432C4.19278 12.5328 3.96309 12.5187 3.78965 12.3922C3.61621 12.2656 3.52715 12.0523 3.56231 11.8414L4.17637 8.19453L1.57246 5.61406C1.42012 5.46406 1.36856 5.24141 1.43418 5.03984C1.49981 4.83828 1.67559 4.69062 1.88653 4.65781L5.47715 4.12813L7.08496 0.816406C7.18106 0.621875 7.37559 0.5 7.59121 0.5ZM7.59121 2.35156L6.36075 4.8875C6.27871 5.05391 6.12168 5.17109 5.93653 5.19922L3.16387 5.60703L5.17715 7.60156C5.30606 7.73047 5.367 7.91328 5.33653 8.09375L4.86075 10.8992L7.32637 9.58203C7.49278 9.49297 7.692 9.49297 7.85606 9.58203L10.3217 10.8992L9.84825 8.09609C9.81778 7.91563 9.87637 7.73281 10.0076 7.60391L12.0209 5.60938L9.24825 5.19922C9.06543 5.17109 8.90606 5.05625 8.82403 4.8875L7.59121 2.35156Z" fill="#EAB308"/>
</g>
<defs>
<clipPath id="clip0_2673_9281">
<path d="M0.84375 0.5H14.3438V12.5H0.84375V0.5Z" fill="white"/>
</clipPath>
</defs>
</svg>
