<svg width="11" height="15" viewBox="0 0 11 15" fill="none" xmlns="http://www.w3.org/2000/svg">
<path d="M10.5 14.75H0V0.75H10.5V14.75Z" stroke="#E5E7EB"/>
<path d="M9.36807 4.86794C9.70986 4.52615 9.70986 3.97107 9.36807 3.62927C9.02627 3.28748 8.47119 3.28748 8.1294 3.62927L5.2501 6.5113L2.36807 3.63201C2.02627 3.29021 1.47119 3.29021 1.12939 3.63201C0.787598 3.9738 0.787598 4.52888 1.12939 4.87068L4.01143 7.74998L1.13213 10.632C0.790332 10.9738 0.790332 11.5289 1.13213 11.8707C1.47393 12.2125 2.029 12.2125 2.3708 11.8707L5.2501 8.98865L8.13213 11.8679C8.47393 12.2097 9.02901 12.2097 9.3708 11.8679C9.7126 11.5261 9.7126 10.9711 9.3708 10.6293L6.48877 7.74998L9.36807 4.86794Z" fill="#4ADE80"/>
</svg>
