<svg width="15" height="13" viewBox="0 0 15 13" fill="none" xmlns="http://www.w3.org/2000/svg">
<g clip-path="url(#clip0_2673_9271)">
<path d="M8.27164 0.921875C8.14742 0.664062 7.88492 0.5 7.59664 0.5C7.30835 0.5 7.0482 0.664062 6.92164 0.921875L5.4146 4.02266L2.04898 4.51953C1.76773 4.56172 1.53335 4.75859 1.44664 5.02812C1.35992 5.29766 1.43023 5.59531 1.63179 5.79453L4.07398 8.21094L3.49742 11.6258C3.45054 11.907 3.56773 12.193 3.79976 12.3594C4.03179 12.5258 4.33882 12.5469 4.59195 12.4133L7.59898 10.8078L10.606 12.4133C10.8591 12.5469 11.1662 12.5281 11.3982 12.3594C11.6302 12.1906 11.7474 11.907 11.7005 11.6258L11.1216 8.21094L13.5638 5.79453C13.7654 5.59531 13.838 5.29766 13.749 5.02812C13.6599 4.75859 13.4279 4.56172 13.1466 4.51953L9.77867 4.02266L8.27164 0.921875Z" fill="#EAB308"/>
</g>
<defs>
<clipPath id="clip0_2673_9271">
<path d="M0.84375 0.5H14.3438V12.5H0.84375V0.5Z" fill="white"/>
</clipPath>
</defs>
</svg>
