<svg width="17" height="16" viewBox="0 0 17 16" fill="none" xmlns="http://www.w3.org/2000/svg">
<g clip-path="url(#clip0_2621_7569)">
<path d="M2.5 4.5C2.89782 4.5 3.27936 4.34196 3.56066 4.06066C3.84196 3.77936 4 3.39782 4 3C4 2.60218 3.84196 2.22064 3.56066 1.93934C3.27936 1.65804 2.89782 1.5 2.5 1.5C2.10218 1.5 1.72064 1.65804 1.43934 1.93934C1.15804 2.22064 1 2.60218 1 3C1 3.39782 1.15804 3.77936 1.43934 4.06066C1.72064 4.34196 2.10218 4.5 2.5 4.5ZM6.5 2C5.94687 2 5.5 2.44687 5.5 3C5.5 3.55313 5.94687 4 6.5 4H15.5C16.0531 4 16.5 3.55313 16.5 3C16.5 2.44687 16.0531 2 15.5 2H6.5ZM6.5 7C5.94687 7 5.5 7.44687 5.5 8C5.5 8.55313 5.94687 9 6.5 9H15.5C16.0531 9 16.5 8.55313 16.5 8C16.5 7.44687 16.0531 7 15.5 7H6.5ZM6.5 12C5.94687 12 5.5 12.4469 5.5 13C5.5 13.5531 5.94687 14 6.5 14H15.5C16.0531 14 16.5 13.5531 16.5 13C16.5 12.4469 16.0531 12 15.5 12H6.5ZM2.5 14.5C2.89782 14.5 3.27936 14.342 3.56066 14.0607C3.84196 13.7794 4 13.3978 4 13C4 12.6022 3.84196 12.2206 3.56066 11.9393C3.27936 11.658 2.89782 11.5 2.5 11.5C2.10218 11.5 1.72064 11.658 1.43934 11.9393C1.15804 12.2206 1 12.6022 1 13C1 13.3978 1.15804 13.7794 1.43934 14.0607C1.72064 14.342 2.10218 14.5 2.5 14.5ZM4 8C4 7.80302 3.9612 7.60796 3.88582 7.42597C3.81044 7.24399 3.69995 7.07863 3.56066 6.93934C3.42137 6.80005 3.25601 6.68956 3.07403 6.61418C2.89204 6.5388 2.69698 6.5 2.5 6.5C2.30302 6.5 2.10796 6.5388 1.92597 6.61418C1.74399 6.68956 1.57863 6.80005 1.43934 6.93934C1.30005 7.07863 1.18956 7.24399 1.11418 7.42597C1.0388 7.60796 1 7.80302 1 8C1 8.19698 1.0388 8.39204 1.11418 8.57403C1.18956 8.75601 1.30005 8.92137 1.43934 9.06066C1.57863 9.19995 1.74399 9.31044 1.92597 9.38582C2.10796 9.4612 2.30302 9.5 2.5 9.5C2.69698 9.5 2.89204 9.4612 3.07403 9.38582C3.25601 9.31044 3.42137 9.19995 3.56066 9.06066C3.69995 8.92137 3.81044 8.75601 3.88582 8.57403C3.9612 8.39204 4 8.19698 4 8Z" fill="#6B7280"/>
</g>
<defs>
<clipPath id="clip0_2621_7569">
<path d="M0.5 0H16.5V16H0.5V0Z" fill="white"/>
</clipPath>
</defs>
</svg>
