<svg width="17" height="16" viewBox="0 0 17 16" fill="none" xmlns="http://www.w3.org/2000/svg">
<g clip-path="url(#clip0_2621_7596)">
<path d="M0.5 3C0.5 1.89688 1.39688 1 2.5 1H14.5C15.6031 1 16.5 1.89688 16.5 3V13C16.5 14.1031 15.6031 15 14.5 15H2.5C1.39688 15 0.5 14.1031 0.5 13V3ZM10.6187 6.32812C10.4781 6.12188 10.2469 6 10 6C9.75312 6 9.51875 6.12188 9.38125 6.32812L6.6625 10.3156L5.83437 9.28125C5.69062 9.10313 5.475 9 5.25 9C5.025 9 4.80625 9.10313 4.66563 9.28125L2.66563 11.7812C2.48438 12.0062 2.45 12.3156 2.575 12.575C2.7 12.8344 2.9625 13 3.25 13H6.25H7.25H13.75C14.0281 13 14.2844 12.8469 14.4125 12.6C14.5406 12.3531 14.525 12.0563 14.3687 11.8281L10.6187 6.32812ZM4 6C4.39782 6 4.77936 5.84196 5.06066 5.56066C5.34196 5.27936 5.5 4.89782 5.5 4.5C5.5 4.10218 5.34196 3.72064 5.06066 3.43934C4.77936 3.15804 4.39782 3 4 3C3.60218 3 3.22064 3.15804 2.93934 3.43934C2.65804 3.72064 2.5 4.10218 2.5 4.5C2.5 4.89782 2.65804 5.27936 2.93934 5.56066C3.22064 5.84196 3.60218 6 4 6Z" fill="#6B7280"/>
</g>
<defs>
<clipPath id="clip0_2621_7596">
<path d="M0.5 0H16.5V16H0.5V0Z" fill="white"/>
</clipPath>
</defs>
</svg>
