<svg width="15" height="16" viewBox="0 0 15 16" fill="none" xmlns="http://www.w3.org/2000/svg">
<g clip-path="url(#clip0_2621_7542)">
<path d="M0.5 2C0.5 1.44687 0.946875 1 1.5 1H3H4.5C5.05313 1 5.5 1.44687 5.5 2C5.5 2.55313 5.05313 3 4.5 3H4V6.5H11V3H10.5C9.94687 3 9.5 2.55313 9.5 2C9.5 1.44687 9.94687 1 10.5 1H12H13.5C14.0531 1 14.5 1.44687 14.5 2C14.5 2.55313 14.0531 3 13.5 3H13V7.5V13H13.5C14.0531 13 14.5 13.4469 14.5 14C14.5 14.5531 14.0531 15 13.5 15H12H10.5C9.94687 15 9.5 14.5531 9.5 14C9.5 13.4469 9.94687 13 10.5 13H11V8.5H4V13H4.5C5.05313 13 5.5 13.4469 5.5 14C5.5 14.5531 5.05313 15 4.5 15H3H1.5C0.946875 15 0.5 14.5531 0.5 14C0.5 13.4469 0.946875 13 1.5 13H2V7.5V3H1.5C0.946875 3 0.5 2.55313 0.5 2Z" fill="#6B7280"/>
</g>
<defs>
<clipPath id="clip0_2621_7542">
<path d="M0.5 0H14.5V16H0.5V0Z" fill="white"/>
</clipPath>
</defs>
</svg>
