<svg width="20" height="21" viewBox="0 0 20 21" fill="none" xmlns="http://www.w3.org/2000/svg">
<path d="M20 20.5H0V0.5H20V20.5Z" stroke="#E5E7EB"/>
<path d="M17.9441 6.42641C17.9568 6.60406 17.9568 6.78176 17.9568 6.95941C17.9568 12.3782 13.8325 18.6218 6.29441 18.6218C3.97207 18.6218 1.81473 17.9492 0 16.7818C0.329961 16.8198 0.647187 16.8325 0.989844 16.8325C2.90605 16.8325 4.67004 16.1853 6.07867 15.0813C4.27664 15.0432 2.76648 13.863 2.24617 12.2386C2.5 12.2766 2.75379 12.302 3.02031 12.302C3.38832 12.302 3.75637 12.2513 4.09898 12.1625C2.22082 11.7817 0.812148 10.132 0.812148 8.13961V8.08887C1.35781 8.39344 1.99238 8.58379 2.66492 8.60914C1.56086 7.87309 0.837539 6.61676 0.837539 5.19543C0.837539 4.43402 1.04055 3.73606 1.3959 3.12692C3.41367 5.61422 6.44668 7.23856 9.84766 7.41625C9.78422 7.11168 9.74613 6.79445 9.74613 6.47719C9.74613 4.21828 11.5736 2.3782 13.8451 2.3782C15.0253 2.3782 16.0913 2.87313 16.84 3.67262C17.7664 3.49496 18.6547 3.15231 19.4416 2.68277C19.137 3.63457 18.4898 4.43406 17.6395 4.94164C18.4644 4.85285 19.2639 4.62438 19.9999 4.30715C19.4416 5.1193 18.7436 5.84262 17.9441 6.42641Z" fill="#1DA1F2"/>
</svg>
