<svg width="15" height="14" viewBox="0 0 15 14" fill="none" xmlns="http://www.w3.org/2000/svg">
<g clip-path="url(#clip0_2663_7524)">
<path d="M11.7189 6.31631L12.0279 6.00732L11.1009 5.08037L9.40288 3.38232L8.47593 2.45537L8.16695 2.76436L7.54898 3.38232L2.1021 8.8292C1.81773 9.11357 1.60991 9.46631 1.49507 9.85185L0.527102 13.144C0.458743 13.3737 0.521634 13.6226 0.693899 13.7921C0.866165 13.9616 1.11226 14.0245 1.34195 13.9589L4.6314 12.9909C5.01695 12.8761 5.36968 12.6683 5.65405 12.3839L11.1009 6.93701L11.7189 6.31631ZM4.87476 10.921L4.62593 11.5417C4.51655 11.6265 4.39351 11.6894 4.26226 11.7304L2.12398 12.3593L2.75288 10.2237C2.79116 10.0897 2.85679 9.9667 2.94156 9.86006L3.56226 9.61123V10.4862C3.56226 10.7269 3.75913 10.9237 3.99976 10.9237H4.87476V10.921ZM10.4173 0.51123L10.0236 0.907715L9.40562 1.52568L9.0939 1.83467L10.0209 2.76162L11.7189 4.45967L12.6459 5.38662L12.9548 5.07764L13.5728 4.45967L13.9693 4.06318C14.6529 3.37959 14.6529 2.27217 13.9693 1.58857L12.8947 0.51123C12.2111 -0.172363 11.1037 -0.172363 10.4201 0.51123H10.4173ZM9.12124 5.10498L5.18374 9.04248C5.01421 9.21201 4.7353 9.21201 4.56577 9.04248C4.39624 8.87295 4.39624 8.59404 4.56577 8.42451L8.50327 4.48701C8.67281 4.31748 8.95171 4.31748 9.12124 4.48701C9.29077 4.65654 9.29077 4.93545 9.12124 5.10498Z" fill="#38BDF8"/>
</g>
<defs>
<clipPath id="clip0_2663_7524">
<path d="M0.5 0H14.5V14H0.5V0Z" fill="white"/>
</clipPath>
</defs>
</svg>
