<svg width="12" height="18" viewBox="0 0 12 18" fill="none" xmlns="http://www.w3.org/2000/svg">
<g clip-path="url(#clip0_2658_9094)">
<path d="M2.5957 15.4898C2.26172 15.7676 1.79414 15.8309 1.39687 15.6445C0.999609 15.4582 0.75 15.0609 0.75 14.625V3.375C0.75 2.93907 1.00312 2.5418 1.39687 2.35547C1.79062 2.16915 2.2582 2.22891 2.5957 2.51016L9.3457 8.13516L9.75 8.47266V3.375C9.75 2.75274 10.2527 2.25 10.875 2.25C11.4973 2.25 12 2.75274 12 3.375V14.625C12 15.2473 11.4973 15.75 10.875 15.75C10.2527 15.75 9.75 15.2473 9.75 14.625V9.52735L9.3457 9.86485L2.5957 15.4898Z" fill="#4B5563"/>
</g>
<defs>
<clipPath id="clip0_2658_9094">
<path d="M0.75 0H12V18H0.75V0Z" fill="white"/>
</clipPath>
</defs>
</svg>
