<svg width="11" height="15" viewBox="0 0 11 15" fill="none" xmlns="http://www.w3.org/2000/svg">
<path d="M11 14.75H0.5V0.75H11V14.75Z" stroke="#E5E7EB"/>
<path d="M9.86807 4.86794C10.2099 4.52615 10.2099 3.97107 9.86807 3.62927C9.52627 3.28748 8.97119 3.28748 8.6294 3.62927L5.7501 6.5113L2.86807 3.63201C2.52627 3.29021 1.97119 3.29021 1.62939 3.63201C1.2876 3.9738 1.2876 4.52888 1.62939 4.87068L4.51143 7.74998L1.63213 10.632C1.29033 10.9738 1.29033 11.5289 1.63213 11.8707C1.97393 12.2125 2.529 12.2125 2.8708 11.8707L5.7501 8.98865L8.63213 11.8679C8.97393 12.2097 9.52901 12.2097 9.8708 11.8679C10.2126 11.5261 10.2126 10.9711 9.8708 10.6293L6.98877 7.74998L9.86807 4.86794Z" fill="#FB923C"/>
</svg>
