<svg width="21" height="20" viewBox="0 0 21 20" fill="none" xmlns="http://www.w3.org/2000/svg">
<path d="M16.2273 10.9516L11.5131 15.6666C11.2006 15.9791 10.7767 16.1546 10.3348 16.1546C9.89286 16.1546 9.46902 15.9791 9.15647 15.6666L4.4423 10.9525C4.05261 10.5662 3.74306 10.1067 3.53141 9.60048C3.31976 9.09423 3.2102 8.55116 3.20899 8.00245C3.20779 7.45374 3.31498 6.9102 3.52441 6.40303C3.73384 5.89586 4.04138 5.43505 4.42937 5.04705C4.81737 4.65905 5.27818 4.35151 5.78535 4.14209C6.29252 3.93266 6.83607 3.82547 7.38477 3.82667C7.93348 3.82787 8.47655 3.93744 8.9828 4.14909C9.48905 4.36073 9.94851 4.67029 10.3348 5.05998C11.1194 4.29487 12.1739 3.8697 13.2698 3.87657C14.3657 3.88343 15.4148 4.32179 16.1898 5.09667C16.9648 5.87155 17.4033 6.92056 17.4103 8.01646C17.4173 9.11236 16.9923 10.1669 16.2273 10.9516Z" stroke="#E14617" stroke-width="1.5" stroke-linecap="round" stroke-linejoin="round"/>
</svg>
