<svg width="19" height="18" viewBox="0 0 19 18" fill="none" xmlns="http://www.w3.org/2000/svg">
<path d="M13.7444 8.4C13.5719 8.175 13.3619 7.98 13.1669 7.785C12.6644 7.335 12.0944 7.0125 11.6144 6.54C10.4969 5.445 10.2494 3.6375 10.9619 2.25C10.2494 2.4225 9.62693 2.8125 9.09443 3.24C7.15193 4.8 6.38693 7.5525 7.30193 9.915C7.33193 9.99 7.36193 10.065 7.36193 10.1625C7.36193 10.3275 7.24943 10.4775 7.09943 10.5375C6.92693 10.6125 6.74693 10.5675 6.60443 10.4475C6.56186 10.4118 6.52626 10.3686 6.49943 10.32C5.65193 9.2475 5.51693 7.71 6.08693 6.48C4.83443 7.5 4.15193 9.225 4.24943 10.8525C4.29443 11.2275 4.33943 11.6025 4.46693 11.9775C4.57193 12.4275 4.77443 12.8775 4.99943 13.275C5.80943 14.5725 7.21193 15.5025 8.71943 15.69C10.3244 15.8925 12.0419 15.6 13.2719 14.49C14.6444 13.245 15.1244 11.25 14.4194 9.54L14.3219 9.345C14.1644 9 13.7444 8.4 13.7444 8.4ZM11.3744 13.125C11.1644 13.305 10.8194 13.5 10.5494 13.575C9.70943 13.875 8.86943 13.455 8.37443 12.96C9.26693 12.75 9.79943 12.09 9.95693 11.4225C10.0844 10.8225 9.84443 10.3275 9.74693 9.75C9.65693 9.195 9.67193 8.7225 9.87443 8.205C10.0169 8.49 10.1669 8.775 10.3469 9C10.9244 9.75 11.8319 10.08 12.0269 11.1C12.0569 11.205 12.0719 11.31 12.0719 11.4225C12.0944 12.0375 11.8244 12.7125 11.3744 13.125Z" fill="#E14617"/>
</svg>
