<svg width="18" height="18" viewBox="0 0 18 18" fill="none" xmlns="http://www.w3.org/2000/svg">
<path d="M13.2444 8.4C13.0719 8.175 12.8619 7.98 12.6669 7.785C12.1644 7.335 11.5944 7.0125 11.1144 6.54C9.99693 5.445 9.74943 3.6375 10.4619 2.25C9.74943 2.4225 9.12693 2.8125 8.59443 3.24C6.65193 4.8 5.88693 7.5525 6.80193 9.915C6.83193 9.99 6.86193 10.065 6.86193 10.1625C6.86193 10.3275 6.74943 10.4775 6.59943 10.5375C6.42693 10.6125 6.24693 10.5675 6.10443 10.4475C6.06186 10.4118 6.02626 10.3686 5.99943 10.32C5.15193 9.2475 5.01693 7.71 5.58693 6.48C4.33443 7.5 3.65193 9.225 3.74943 10.8525C3.79443 11.2275 3.83943 11.6025 3.96693 11.9775C4.07193 12.4275 4.27443 12.8775 4.49943 13.275C5.30943 14.5725 6.71193 15.5025 8.21943 15.69C9.82443 15.8925 11.5419 15.6 12.7719 14.49C14.1444 13.245 14.6244 11.25 13.9194 9.54L13.8219 9.345C13.6644 9 13.2444 8.4 13.2444 8.4ZM10.8744 13.125C10.6644 13.305 10.3194 13.5 10.0494 13.575C9.20943 13.875 8.36943 13.455 7.87443 12.96C8.76693 12.75 9.29943 12.09 9.45693 11.4225C9.58443 10.8225 9.34443 10.3275 9.24693 9.75C9.15693 9.195 9.17193 8.7225 9.37443 8.205C9.51693 8.49 9.66693 8.775 9.84693 9C10.4244 9.75 11.3319 10.08 11.5269 11.1C11.5569 11.205 11.5719 11.31 11.5719 11.4225C11.5944 12.0375 11.3244 12.7125 10.8744 13.125Z" fill="white"/>
</svg>
