<svg width="26" height="25" viewBox="0 0 26 25" fill="none" xmlns="http://www.w3.org/2000/svg">
<path d="M20.4583 10.4167V12.5C20.4583 14.4339 19.6901 16.2885 18.3227 17.656C16.9552 19.0234 15.1005 19.7917 13.1667 19.7917M13.1667 19.7917C11.2328 19.7917 9.37813 19.0234 8.01068 17.656C6.64323 16.2885 5.875 14.4339 5.875 12.5V10.4167M13.1667 19.7917V23.9583M9 23.9583H17.3333M13.1667 1.04166C12.3379 1.04166 11.543 1.3709 10.957 1.95695C10.3709 2.543 10.0417 3.33786 10.0417 4.16666V12.5C10.0417 13.3288 10.3709 14.1236 10.957 14.7097C11.543 15.2958 12.3379 15.625 13.1667 15.625C13.9955 15.625 14.7903 15.2958 15.3764 14.7097C15.9624 14.1236 16.2917 13.3288 16.2917 12.5V4.16666C16.2917 3.33786 15.9624 2.543 15.3764 1.95695C14.7903 1.3709 13.9955 1.04166 13.1667 1.04166Z" stroke="#2563EB" stroke-width="2" stroke-linecap="round" stroke-linejoin="round"/>
</svg>
