<svg width="17" height="16" viewBox="0 0 17 16" fill="none" xmlns="http://www.w3.org/2000/svg">
<path d="M14.1667 5.33333C13.2387 3.214 10.9513 2 8.48533 2C5.366 2 2.802 4.368 2.5 7.4" stroke="#004E61" stroke-width="1.5" stroke-linecap="round" stroke-linejoin="round"/>
<path d="M11.4923 5.59998H14.139C14.1863 5.60006 14.2332 5.59082 14.277 5.57276C14.3207 5.55471 14.3605 5.52821 14.394 5.49477C14.4275 5.46133 14.4541 5.42162 14.4722 5.3779C14.4903 5.33418 14.4997 5.28731 14.4997 5.23998V2.59998M2.83301 10.6666C3.76101 12.786 6.04834 14 8.51434 14C11.6337 14 14.1977 11.632 14.4997 8.59998" stroke="#004E61" stroke-width="1.5" stroke-linecap="round" stroke-linejoin="round"/>
<path d="M5.50733 10.4H2.86067C2.81333 10.3999 2.76645 10.4092 2.7227 10.4272C2.67894 10.4453 2.63918 10.4718 2.60568 10.5052C2.57218 10.5387 2.5456 10.5784 2.52747 10.6221C2.50933 10.6658 2.5 10.7127 2.5 10.76V13.4" stroke="#004E61" stroke-width="1.5" stroke-linecap="round" stroke-linejoin="round"/>
</svg>
