<svg width="47" height="47" viewBox="0 0 47 47" fill="none" xmlns="http://www.w3.org/2000/svg">
<path d="M0.707031 23.1281C0.707031 10.4896 10.9525 0.244141 23.591 0.244141V0.244141C36.2295 0.244141 46.4749 10.4896 46.4749 23.1281V23.1281C46.4749 35.7666 36.2295 46.0121 23.591 46.0121V46.0121C10.9525 46.0121 0.707031 35.7666 0.707031 23.1281V23.1281Z" fill="white"/>
<g clip-path="url(#clip0_2458_1593)">
<path d="M14.0557 21.2207H33.1256M15.9627 16.4531H31.2186C32.2718 16.4531 33.1256 17.3069 33.1256 18.3601V27.8951C33.1256 28.9483 32.2718 29.8021 31.2186 29.8021H15.9627C14.9095 29.8021 14.0557 28.9483 14.0557 27.8951V18.3601C14.0557 17.3069 14.9095 16.4531 15.9627 16.4531Z" stroke="#46A756" stroke-width="2.14537" stroke-linecap="round" stroke-linejoin="round"/>
</g>
<defs>
<clipPath id="clip0_2458_1593">
<rect width="22.884" height="22.884" fill="white" transform="translate(12.1484 11.686)"/>
</clipPath>
</defs>
</svg>
