<svg width="46" height="47" viewBox="0 0 46 47" fill="none" xmlns="http://www.w3.org/2000/svg">
<path d="M0.178711 23.4367C0.178711 10.7982 10.4242 0.552734 23.0627 0.552734V0.552734C35.7011 0.552734 45.9466 10.7982 45.9466 23.4367V23.4367C45.9466 36.0752 35.7011 46.3206 23.0627 46.3206V46.3206C10.4242 46.3206 0.178711 36.0752 0.178711 23.4367V23.4367Z" fill="white"/>
<g clip-path="url(#clip0_2458_1597)">
<path d="M16.0684 16.4429H17.6178L19.6785 26.0649C19.7541 26.4172 19.9502 26.7323 20.233 26.9557C20.5158 27.1791 20.8677 27.2969 21.228 27.2889H28.8047C29.1573 27.2883 29.4992 27.1675 29.7739 26.9464C30.0486 26.7252 30.2396 26.417 30.3154 26.0726L31.5937 20.3165H18.4467M21.4526 31.1238C21.4526 31.5516 21.1058 31.8985 20.6779 31.8985C20.2501 31.8985 19.9032 31.5516 19.9032 31.1238C19.9032 30.6959 20.2501 30.349 20.6779 30.349C21.1058 30.349 21.4526 30.6959 21.4526 31.1238ZM29.9745 31.1238C29.9745 31.5516 29.6277 31.8985 29.1998 31.8985C28.772 31.8985 28.4251 31.5516 28.4251 31.1238C28.4251 30.6959 28.772 30.349 29.1998 30.349C29.6277 30.349 29.9745 30.6959 29.9745 31.1238Z" stroke="#E14617" stroke-width="2.14537" stroke-linecap="round" stroke-linejoin="round"/>
</g>
<defs>
<clipPath id="clip0_2458_1597">
<rect width="18.5932" height="18.5932" fill="white" transform="translate(14.4814 14.855)"/>
</clipPath>
</defs>
</svg>
