<?xml version="1.0" encoding="UTF-8"?>
<svg id="Layer_1" data-name="Layer 1" xmlns="http://www.w3.org/2000/svg" viewBox="0 0 100 100">
  <defs>
    <style>
      .cls-1 {
        fill: #e14617;
      }
    </style>
  </defs>
  <path class="cls-1" d="M83.11,93.04c-5.48,0-9.93-4.45-9.93-9.93v-42.24l-49.26,49.26c-3.88,3.88-10.17,3.88-14.05,0-3.88-3.88-3.88-10.17,0-14.05L59.13,26.82H16.89c-5.48,0-9.93-4.45-9.93-9.93s4.45-9.93,9.93-9.93h66.22c1.35,0,2.64.27,3.82.76,1.16.49,2.26,1.2,3.21,2.15s1.67,2.04,2.15,3.21c.49,1.18.76,2.46.76,3.82v66.22c0,5.48-4.45,9.93-9.93,9.93Z"/>
</svg>