<?xml version="1.0" encoding="UTF-8"?>
<svg id="Layer_1" data-name="Layer 1" xmlns="http://www.w3.org/2000/svg" viewBox="0 0 100 100">
  <defs>
    <style>
      .cls-1 {
        fill: #6b7280;
      }
    </style>
  </defs>
  <path class="cls-1" d="M84.08,88.34H15.92c-7.05,0-12.78-5.73-12.78-12.78V24.44c0-7.05,5.73-12.78,12.78-12.78h68.15c7.05,0,12.78,5.73,12.78,12.78v51.12c0,7.05-5.73,12.78-12.78,12.78ZM11.66,36.46v39.1c0,2.35,1.91,4.26,4.26,4.26h68.15c2.35,0,4.26-1.91,4.26-4.26v-39.09l-31.75,20.22c-4.23,2.45-9.1,2.34-12.99.09l-31.94-20.32ZM11.66,26.36l36.36,23.14c1,.57,2.83.67,4.14-.1l36.17-23.05v-1.92c0-2.35-1.91-4.26-4.26-4.26H15.92c-2.35,0-4.26,1.91-4.26,4.26v1.92Z"/>
</svg>