<svg width="79" height="79" viewBox="0 0 79 79" fill="none" xmlns="http://www.w3.org/2000/svg">
<path d="M69.1339 23.021C69.1339 30.289 55.8805 36.1757 39.5357 36.1757C23.1909 36.1757 9.9375 30.289 9.9375 23.021M69.1339 23.021C69.1339 15.753 55.8805 9.86621 39.5357 9.86621C23.1909 9.86621 9.9375 15.753 9.9375 23.021M69.1339 23.021V39.4644M9.9375 23.021V39.4644M69.1339 39.4644C69.1339 46.7324 55.8805 52.6192 39.5357 52.6192C23.1909 52.6192 9.9375 46.7324 9.9375 39.4644M69.1339 39.4644V55.9078C69.1339 63.1758 55.8805 69.0626 39.5357 69.0626C23.1909 69.0626 9.9375 63.1758 9.9375 55.9078V39.4644" stroke="#E14617" stroke-width="4.55357" stroke-linecap="round" stroke-linejoin="round"/>
</svg>
