<?xml version="1.0" encoding="UTF-8"?>
<svg id="Layer_1" data-name="Layer 1" xmlns="http://www.w3.org/2000/svg" viewBox="0 0 100 100">
  <defs>
    <style>
      .cls-1 {
        opacity: .4;
      }
    </style>
  </defs>
  <path class="cls-1" d="M1.01,15.71c0-2.6,1.03-5.09,2.87-6.93,1.84-1.84,4.33-2.87,6.93-2.87h78.38c2.6,0,5.09,1.03,6.93,2.87,1.84,1.84,2.87,4.33,2.87,6.93v53.88c0,2.6-1.03,5.09-2.87,6.93-1.84,1.84-4.33,2.87-6.93,2.87h-22.47l-13.26,13.26c-.92.92-2.16,1.43-3.46,1.43s-2.54-.52-3.46-1.43l-13.26-13.26H10.81c-2.6,0-5.09-1.03-6.93-2.87-1.84-1.84-2.87-4.33-2.87-6.93V15.71ZM89.19,15.71H10.81v53.88h24.49c1.3,0,2.54.52,3.46,1.44l11.23,11.23,11.23-11.23c.92-.92,2.16-1.43,3.46-1.44h24.49V15.71ZM20.61,32.86c0-1.3.52-2.55,1.43-3.46.92-.92,2.16-1.43,3.46-1.43h48.99c1.3,0,2.55.52,3.46,1.43.92.92,1.43,2.16,1.43,3.46s-.52,2.55-1.43,3.46-2.16,1.43-3.46,1.43H25.51c-1.3,0-2.55-.52-3.46-1.43-.92-.92-1.43-2.16-1.43-3.46ZM20.61,52.45c0-1.3.52-2.55,1.43-3.46.92-.92,2.16-1.43,3.46-1.43h29.39c1.3,0,2.55.52,3.46,1.43s1.43,2.16,1.43,3.46-.52,2.55-1.43,3.46-2.16,1.43-3.46,1.43h-29.39c-1.3,0-2.55-.52-3.46-1.43-.92-.92-1.43-2.16-1.43-3.46Z"/>
</svg>