<svg width="13" height="16" viewBox="0 0 13 16" fill="none" xmlns="http://www.w3.org/2000/svg">
<g clip-path="url(#clip0_2250_11630)">
<path d="M7.25685 2.83833C7.25685 2.42392 6.92204 2.08911 6.50763 2.08911C6.09322 2.08911 5.75841 2.42392 5.75841 2.83833V7.70825C5.75841 7.91428 5.58984 8.08286 5.3838 8.08286C5.17777 8.08286 5.00919 7.91428 5.00919 7.70825V3.58755C5.00919 3.17314 4.67439 2.83833 4.25997 2.83833C3.84556 2.83833 3.51076 3.17314 3.51076 3.58755V9.9559C3.51076 9.99102 3.51076 10.0285 3.5131 10.0636L2.09661 8.71501C1.722 8.35913 1.12965 8.37318 0.771426 8.74779C0.413206 9.1224 0.429595 9.71475 0.804205 10.073L3.43583 12.5782C4.44494 13.5404 5.78651 14.0766 7.18192 14.0766H7.63146C9.90721 14.0766 11.7522 12.2317 11.7522 9.9559V5.08598C11.7522 4.67157 11.4173 4.33677 11.0029 4.33677C10.5885 4.33677 10.2537 4.67157 10.2537 5.08598V7.70825C10.2537 7.91428 10.0851 8.08286 9.87911 8.08286C9.67308 8.08286 9.5045 7.91428 9.5045 7.70825V3.58755C9.5045 3.17314 9.16969 2.83833 8.75528 2.83833C8.34087 2.83833 8.00606 3.17314 8.00606 3.58755V7.70825C8.00606 7.91428 7.83749 8.08286 7.63146 8.08286C7.42542 8.08286 7.25685 7.91428 7.25685 7.70825V2.83833Z" fill="white"/>
</g>
<defs>
<clipPath id="clip0_2250_11630">
<path d="M0.513672 2.08911H12.5012V14.0766H0.513672V2.08911Z" fill="white"/>
</clipPath>
</defs>
</svg>
