<?xml version="1.0" encoding="UTF-8"?>
<svg id="Layer_1" data-name="Layer 1" xmlns="http://www.w3.org/2000/svg" viewBox="0 0 227.22 35.18">
  <defs>
    <style>
      .cls-1 {
        fill: #004e61;
      }

      .cls-2 {
        fill: #46a756;
      }
    </style>
  </defs>
  <path class="cls-1" d="M17.73,23.86c0,1.5-.37,2.86-1.11,4.07-.74,1.22-1.84,2.18-3.32,2.88-1.47.7-3.33,1.05-5.57,1.05-1.55,0-2.94-.14-4.17-.41-1.23-.27-2.42-.68-3.58-1.22v-5.71c1.33.61,2.69,1.13,4.07,1.55,1.39.42,2.72.63,4,.63,1.2,0,2.08-.23,2.62-.68.54-.45.81-1.03.81-1.71,0-.84-.43-1.52-1.29-2.05-.86-.53-2.08-1.16-3.65-1.9-1.03-.47-2.03-1.03-3-1.68-.97-.65-1.76-1.47-2.38-2.47-.61-1-.92-2.27-.92-3.82,0-2.46.85-4.34,2.56-5.64,1.71-1.3,3.98-1.95,6.8-1.95,1.52,0,2.94.18,4.24.53,1.3.36,2.58.79,3.83,1.31l-1.99,4.9c-1.18-.52-2.28-.92-3.3-1.2-1.02-.28-2.01-.42-2.97-.42-1.01,0-1.76.21-2.25.63-.49.42-.74.95-.74,1.59,0,.52.17.96.52,1.35.34.38.88.77,1.62,1.16.74.39,1.71.87,2.91,1.44,1.3.59,2.42,1.23,3.35,1.92.93.69,1.65,1.49,2.14,2.42.49.92.74,2.07.74,3.45Z"/>
  <path class="cls-1" d="M33.48,31.49l-5.9-19.87h-.15c.02.49.07,1.2.13,2.12.06.92.12,1.91.17,2.97.05,1.06.07,2.03.07,2.91v11.87h-5.6V5.17h8.48l5.86,19.47h.15l6.05-19.47h8.44v26.33h-5.82v-12.02c0-.84.02-1.76.05-2.78.04-1.02.07-1.99.11-2.91s.07-1.63.09-2.12h-.15l-6.08,19.84h-5.9Z"/>
  <path class="cls-1" d="M73.48,31.49l-1.62-5.64h-9.11l-1.62,5.64h-6.86l8.96-26.44h8.04l9.07,26.44h-6.86ZM68.91,15.34c-.12-.44-.29-1.04-.5-1.79-.21-.75-.42-1.52-.63-2.3-.21-.79-.38-1.45-.5-1.99-.1.54-.25,1.21-.46,2.01-.21.8-.41,1.57-.61,2.32-.2.75-.36,1.33-.48,1.75l-1.55,5.27h6.27l-1.55-5.27Z"/>
  <path class="cls-1" d="M91.55,5.17c7.08,0,10.62,2.62,10.62,7.85,0,1.7-.45,3.12-1.35,4.28s-2.02,2.06-3.37,2.73l7.71,11.47h-7.04l-5.94-9.88h-2.47v9.88h-6.27V5.17h8.11ZM91.29,10.11h-1.59v6.6h1.59c1.5,0,2.62-.28,3.37-.83.75-.55,1.12-1.43,1.12-2.64,0-1.06-.36-1.84-1.07-2.36s-1.86-.77-3.43-.77Z"/>
  <path class="cls-1" d="M118.87,31.49h-6.27V10.36h-6.82v-5.2h19.91v5.2h-6.82v21.13Z"/>
  <path class="cls-1" d="M140.55,31.49h-12.79v-3.58l3.24-1.36V10.11l-3.24-1.36v-3.58h12.79v3.58l-3.24,1.36v16.44l3.24,1.36v3.58Z"/>
  <path class="cls-1" d="M160.23,31.49h-15.37V5.17h15.37v5.09h-9.11v5.05h8.44v5.09h-8.44v5.94h9.11v5.16Z"/>
  <path class="cls-1" d="M181.62,23.86c0,1.5-.37,2.86-1.11,4.07-.74,1.22-1.84,2.18-3.32,2.88-1.48.7-3.33,1.05-5.57,1.05-1.55,0-2.94-.14-4.17-.41-1.23-.27-2.42-.68-3.58-1.22v-5.71c1.33.61,2.69,1.13,4.07,1.55,1.39.42,2.72.63,4,.63,1.2,0,2.08-.23,2.62-.68.54-.45.81-1.03.81-1.71,0-.84-.43-1.52-1.29-2.05-.86-.53-2.08-1.16-3.65-1.9-1.03-.47-2.03-1.03-3-1.68-.97-.65-1.76-1.47-2.38-2.47-.61-1-.92-2.27-.92-3.82,0-2.46.85-4.34,2.56-5.64,1.71-1.3,3.98-1.95,6.8-1.95,1.52,0,2.94.18,4.24.53,1.3.36,2.58.79,3.83,1.31l-1.99,4.9c-1.18-.52-2.28-.92-3.3-1.2-1.02-.28-2.01-.42-2.97-.42-1.01,0-1.76.21-2.25.63-.49.42-.74.95-.74,1.59,0,.52.17.96.52,1.35.34.38.88.77,1.62,1.16.74.39,1.71.87,2.91,1.44,1.3.59,2.42,1.23,3.36,1.92.93.69,1.65,1.49,2.14,2.42.49.92.74,2.07.74,3.45Z"/>
  <path class="cls-2" d="M184.83,28.73c0-1.2.34-2.05,1.01-2.53.68-.48,1.49-.72,2.45-.72s1.73.24,2.4.72c.66.48,1,1.32,1,2.53s-.33,1.99-1,2.49c-.66.5-1.46.76-2.4.76s-1.78-.25-2.45-.76c-.68-.5-1.01-1.33-1.01-2.49Z"/>
  <path class="cls-2" d="M205.29,10.84c2.63,0,4.67.61,6.12,1.84,1.45,1.23,2.18,3.02,2.18,5.38v13.42h-4.31l-1.22-2.73h-.15c-.86,1.11-1.77,1.9-2.73,2.38s-2.27.72-3.95.72c-1.79,0-3.28-.53-4.46-1.59-1.18-1.06-1.77-2.69-1.77-4.9s.76-3.73,2.27-4.77c1.51-1.04,3.73-1.63,6.66-1.75l3.47-.11v-.59c0-.98-.25-1.7-.76-2.14-.5-.44-1.2-.66-2.08-.66s-1.81.14-2.77.42c-.96.28-1.93.63-2.91,1.05l-1.88-4.13c1.11-.59,2.36-1.04,3.76-1.36,1.4-.32,2.91-.48,4.53-.48ZM205.51,22.35c-1.55.05-2.63.33-3.25.83-.61.5-.92,1.19-.92,2.05,0,.76.22,1.32.66,1.66.44.34,1.01.52,1.7.52,1.03,0,1.9-.31,2.62-.94s1.07-1.48,1.07-2.56v-1.62l-1.88.07Z"/>
  <path class="cls-2" d="M221.99,3.21c.88,0,1.66.2,2.32.59.66.39,1,1.16,1,2.29s-.33,1.86-1,2.27-1.44.61-2.32.61c-.93,0-1.73-.2-2.38-.61-.65-.41-.98-1.16-.98-2.27s.33-1.89.98-2.29c.65-.39,1.44-.59,2.38-.59ZM225.05,11.25v20.24h-6.19V11.25h6.19Z"/>
</svg>