<?xml version="1.0" encoding="UTF-8"?>
<svg id="Layer_1" data-name="Layer 1" xmlns="http://www.w3.org/2000/svg" viewBox="0 0 100 100">
  <defs>
    <style>
      .cls-1 {
        fill: #6b7280;
      }
    </style>
  </defs>
  <path class="cls-1" d="M83.51,96.07c-21.26,0-41.24-8.28-56.27-23.31C12.21,57.73,3.93,37.75,3.93,16.49c0-3.36,1.31-6.52,3.68-8.89,2.37-2.37,5.52-3.68,8.88-3.68h12.56c3.31,0,6.54,1.34,8.88,3.68,2.37,2.37,3.68,5.53,3.68,8.89v12.56c0,1.94-.46,3.88-1.33,5.62-.88,1.75-2.16,3.27-3.7,4.43l-1.97,1.48c5.3,10.67,14.09,19.46,24.79,24.74l1.48-1.94c1.16-1.53,2.69-2.81,4.43-3.68s3.68-1.33,5.62-1.33h12.56c3.31,0,6.54,1.34,8.88,3.68,2.37,2.37,3.68,5.53,3.68,8.89v12.56c0,3.35-1.31,6.51-3.68,8.88-2.34,2.34-5.58,3.68-8.88,3.68ZM16.49,12.31c-1.12,0-2.18.43-2.96,1.22-.79.79-1.23,1.84-1.23,2.97,0,19.01,7.4,36.89,20.85,50.34,13.45,13.45,31.33,20.86,50.35,20.86,1.1,0,2.18-.45,2.96-1.23s1.23-1.86,1.23-2.96v-12.56c0-1.12-.43-2.17-1.23-2.97s-1.86-1.22-2.96-1.22h-12.56c-.65,0-1.29.15-1.87.44s-1.1.72-1.49,1.24l-1.49,1.96c-1.17,1.52-2.82,2.6-4.65,3.06-1.83.45-3.8.28-5.52-.52-.02-.02-.06-.03-.09-.04-12.39-6.08-22.58-16.26-28.68-28.64-.85-1.74-1.07-3.73-.63-5.61.43-1.88,1.52-3.56,3.06-4.73l2-1.5c.52-.39.94-.9,1.24-1.49.28-.56.43-1.21.43-1.85v-12.56c0-1.12-.43-2.17-1.23-2.97s-1.86-1.22-2.96-1.22h-12.56Z"/>
</svg>