<svg width="97" height="87" viewBox="0 0 97 87" fill="none" xmlns="http://www.w3.org/2000/svg">
<g clip-path="url(#clip0_2420_1621)">
<path d="M39.5241 7.67859L33.1753 10.0531C32.6701 10.2383 32.3333 10.7267 32.3333 11.2656C32.3333 11.8045 32.6701 12.2928 33.1753 12.4781L39.5241 14.8526L41.8986 21.2013C42.0839 21.7065 42.5722 22.0433 43.1111 22.0433C43.65 22.0433 44.1384 21.7065 44.3236 21.2013L46.6981 14.8526L53.0469 12.4781C53.5521 12.2928 53.8889 11.8045 53.8889 11.2656C53.8889 10.7267 53.5521 10.2383 53.0469 10.0531L46.6981 7.67859L44.3236 1.32981C44.1384 0.824599 43.65 0.487793 43.1111 0.487793C42.5722 0.487793 42.0839 0.824599 41.8986 1.32981L39.5241 7.67859ZM7.76337 67.0742C4.61424 70.2234 4.61424 75.3428 7.76337 78.5088L13.5901 84.3355C16.7392 87.4847 21.8587 87.4847 25.0247 84.3355L89.2366 20.1067C92.3858 16.9576 92.3858 11.8381 89.2366 8.67217L83.4099 2.86227C80.2608 -0.28686 75.1413 -0.28686 71.9753 2.86227L7.76337 67.0742ZM81.608 14.3979L63.9257 32.0802L60.0019 28.1564L77.6842 10.4741L81.608 14.3979ZM1.26302 20.2246C0.505208 20.5109 0 21.235 0 22.0433C0 22.8517 0.505208 23.5758 1.26302 23.8621L10.7778 27.4322L14.3479 36.947C14.6342 37.7048 15.3583 38.21 16.1667 38.21C16.975 38.21 17.6991 37.7048 17.9854 36.947L21.5556 27.4322L31.0703 23.8621C31.8281 23.5758 32.3333 22.8517 32.3333 22.0433C32.3333 21.235 31.8281 20.5109 31.0703 20.2246L21.5556 16.6545L17.9854 7.1397C17.6991 6.38189 16.975 5.87668 16.1667 5.87668C15.3583 5.87668 14.6342 6.38189 14.3479 7.1397L10.7778 16.6545L1.26302 20.2246ZM60.5408 63.3357C59.783 63.622 59.2778 64.3461 59.2778 65.1545C59.2778 65.9628 59.783 66.6869 60.5408 66.9732L70.0556 70.5433L73.6257 80.0581C73.912 80.8159 74.6361 81.3211 75.4444 81.3211C76.2528 81.3211 76.9769 80.8159 77.2632 80.0581L80.8333 70.5433L90.3481 66.9732C91.1059 66.6869 91.6111 65.9628 91.6111 65.1545C91.6111 64.3461 91.1059 63.622 90.3481 63.3357L80.8333 59.7656L77.2632 50.2508C76.9769 49.493 76.2528 48.9878 75.4444 48.9878C74.6361 48.9878 73.912 49.493 73.6257 50.2508L70.0556 59.7656L60.5408 63.3357Z" fill="#004E61"/>
</g>
<defs>
<clipPath id="clip0_2420_1621">
<path d="M0 0.487793H97V86.71H0V0.487793Z" fill="white"/>
</clipPath>
</defs>
</svg>
