<svg width="25" height="24" viewBox="0 0 25 24" fill="none" xmlns="http://www.w3.org/2000/svg">
<path d="M0.09375 12C0.09375 5.37258 5.46633 0 12.0938 0V0C18.7212 0 24.0938 5.37258 24.0938 12V12C24.0938 18.6274 18.7212 24 12.0938 24V24C5.46633 24 0.09375 18.6274 0.09375 12V12Z" fill="#E14617"/>
<path d="M17.4274 10.6666C17.4274 13.9953 13.7347 17.4619 12.4947 18.5326C12.3792 18.6194 12.2386 18.6664 12.0941 18.6664C11.9495 18.6664 11.8089 18.6194 11.6934 18.5326C10.4534 17.4619 6.76074 13.9953 6.76074 10.6666C6.76074 9.2521 7.32265 7.89554 8.32284 6.89535C9.32303 5.89516 10.6796 5.33325 12.0941 5.33325C13.5086 5.33325 14.8651 5.89516 15.8653 6.89535C16.8655 7.89554 17.4274 9.2521 17.4274 10.6666Z" stroke="white" stroke-width="2" stroke-linecap="round" stroke-linejoin="round"/>
<path d="M12.0941 12.6666C13.1986 12.6666 14.0941 11.7712 14.0941 10.6666C14.0941 9.56202 13.1986 8.66658 12.0941 8.66658C10.9895 8.66658 10.0941 9.56202 10.0941 10.6666C10.0941 11.7712 10.9895 12.6666 12.0941 12.6666Z" stroke="white" stroke-width="2" stroke-linecap="round" stroke-linejoin="round"/>
</svg>
