<svg width="33" height="33" viewBox="0 0 33 33" fill="none" xmlns="http://www.w3.org/2000/svg">
<g clip-path="url(#clip0_2420_1660)">
<g clip-path="url(#clip1_2420_1660)">
<path d="M13.8579 7.96447H19.7868V10.9289H13.8579V7.96447ZM13.1167 5C11.8893 5 10.8934 5.99588 10.8934 7.22335V11.67C10.8934 12.8975 11.8893 13.8934 13.1167 13.8934H15.3401V15.3756H3.48223C2.66237 15.3756 2 16.038 2 16.8579C2 17.6777 2.66237 18.3401 3.48223 18.3401H7.92893V19.8223H5.70558C4.47811 19.8223 3.48223 20.8182 3.48223 22.0457V26.4924C3.48223 27.7199 4.47811 28.7157 5.70558 28.7157H13.1167C14.3442 28.7157 15.3401 27.7199 15.3401 26.4924V22.0457C15.3401 20.8182 14.3442 19.8223 13.1167 19.8223H10.8934V18.3401H22.7513V19.8223H20.5279C19.3004 19.8223 18.3046 20.8182 18.3046 22.0457V26.4924C18.3046 27.7199 19.3004 28.7157 20.5279 28.7157H27.9391C29.1666 28.7157 30.1624 27.7199 30.1624 26.4924V22.0457C30.1624 20.8182 29.1666 19.8223 27.9391 19.8223H25.7157V18.3401H30.1624C30.9823 18.3401 31.6447 17.6777 31.6447 16.8579C31.6447 16.038 30.9823 15.3756 30.1624 15.3756H18.3046V13.8934H20.5279C21.7554 13.8934 22.7513 12.8975 22.7513 11.67V7.22335C22.7513 5.99588 21.7554 5 20.5279 5H13.1167ZM6.4467 25.7513V22.7868H12.3756V25.7513H6.4467ZM21.269 22.7868H27.198V25.7513H21.269V22.7868Z" fill="#004E61"/>
</g>
</g>
<defs>
<clipPath id="clip0_2420_1660">
<rect width="29.6447" height="23.7157" fill="white" transform="translate(2 5)"/>
</clipPath>
<clipPath id="clip1_2420_1660">
<path d="M2 5H31.6447V28.7157H2V5Z" fill="white"/>
</clipPath>
</defs>
</svg>
