<?xml version="1.0" encoding="UTF-8"?>
<svg id="Layer_1" data-name="Layer 1" xmlns="http://www.w3.org/2000/svg" viewBox="0 0 100 100">
  <path d="M24.17,15.57c0-1.21,0-1.8.07-2.3.22-1.58.95-3.04,2.07-4.17s2.59-1.85,4.17-2.07c.49-.07,1.09-.07,2.3-.07s1.8,0,2.3.07c1.58.22,3.04.95,4.17,2.07,1.13,1.13,1.85,2.59,2.07,4.17.07.49.07,1.09.07,2.3s0,1.8-.07,2.3c-.22,1.58-.95,3.04-2.07,4.17-1.13,1.13-2.59,1.85-4.17,2.07-.49.07-1.09.07-2.3.07s-1.8,0-2.3-.07c-1.58-.22-3.04-.95-4.17-2.07s-1.85-2.59-2.07-4.17c-.07-.49-.07-1.09-.07-2.3ZM24.17,50c0-1.21,0-1.8.07-2.3.22-1.58.95-3.04,2.07-4.17,1.13-1.13,2.59-1.85,4.17-2.07.49-.07,1.09-.07,2.3-.07s1.8,0,2.3.07c1.58.22,3.04.95,4.17,2.07,1.13,1.13,1.85,2.59,2.07,4.17.07.49.07,1.09.07,2.3s0,1.8-.07,2.3c-.22,1.58-.95,3.04-2.07,4.17-1.13,1.13-2.59,1.85-4.17,2.07-.49.07-1.09.07-2.3.07s-1.8,0-2.3-.07c-1.58-.22-3.04-.95-4.17-2.07-1.13-1.13-1.85-2.59-2.07-4.17-.07-.49-.07-1.09-.07-2.3ZM24.17,84.44c0-1.2,0-1.8.07-2.3.22-1.57.95-3.04,2.07-4.16,1.12-1.12,2.59-1.85,4.16-2.07.51-.07,1.1-.07,2.3-.07s1.81,0,2.3.07c1.58.22,3.04.95,4.16,2.07,1.12,1.12,1.85,2.59,2.07,4.16.07.5.07,1.1.07,2.3s0,1.8-.07,2.3c-.22,1.57-.95,3.04-2.07,4.16-1.12,1.12-2.59,1.85-4.16,2.07-.5.07-1.1.07-2.3.07s-1.8,0-2.3-.07c-1.58-.22-3.04-.95-4.16-2.07-1.12-1.12-1.85-2.59-2.07-4.16-.07-.5-.07-1.1-.07-2.3ZM58.61,15.57c0-1.21,0-1.8.07-2.3.22-1.58.95-3.04,2.07-4.17,1.13-1.13,2.59-1.85,4.17-2.07.49-.07,1.09-.07,2.3-.07s1.8,0,2.3.07c1.58.22,3.04.95,4.17,2.07,1.13,1.13,1.85,2.59,2.07,4.17.07.49.07,1.09.07,2.3s0,1.8-.07,2.3c-.22,1.58-.95,3.04-2.07,4.17-1.13,1.13-2.59,1.85-4.17,2.07-.49.07-1.09.07-2.3.07s-1.8,0-2.3-.07c-1.58-.22-3.04-.95-4.17-2.07-1.13-1.13-1.85-2.59-2.07-4.17-.07-.49-.07-1.09-.07-2.3ZM58.61,50c0-1.21,0-1.8.07-2.3.22-1.58.95-3.04,2.07-4.17,1.13-1.13,2.59-1.85,4.17-2.07.49-.07,1.09-.07,2.3-.07s1.8,0,2.3.07c1.58.22,3.04.95,4.17,2.07s1.85,2.59,2.07,4.17c.07.49.07,1.09.07,2.3s0,1.8-.07,2.3c-.22,1.58-.95,3.04-2.07,4.17s-2.59,1.85-4.17,2.07c-.49.07-1.09.07-2.3.07s-1.8,0-2.3-.07c-1.58-.22-3.04-.95-4.17-2.07-1.13-1.13-1.85-2.59-2.07-4.17-.07-.49-.07-1.09-.07-2.3ZM58.61,84.44c0-1.2,0-1.8.07-2.3.22-1.57.95-3.04,2.07-4.16,1.12-1.12,2.59-1.85,4.16-2.07.51-.07,1.1-.07,2.3-.07s1.81,0,2.3.07c1.57.22,3.04.95,4.16,2.07,1.12,1.12,1.85,2.59,2.07,4.16.07.5.07,1.1.07,2.3s0,1.8-.07,2.3c-.22,1.57-.95,3.04-2.07,4.16-1.12,1.12-2.59,1.85-4.16,2.07-.5.07-1.1.07-2.3.07s-1.8,0-2.3-.07c-1.57-.22-3.04-.95-4.16-2.07-1.12-1.12-1.85-2.59-2.07-4.16-.07-.5-.07-1.1-.07-2.3Z"/>
</svg>