<svg width="35" height="35" viewBox="0 0 35 35" fill="none" xmlns="http://www.w3.org/2000/svg">
<path d="M8.39159 32.0906C7.52135 32.0906 6.68675 31.7449 6.07139 31.1296C5.45604 30.5142 5.11034 29.6796 5.11034 28.8094L5.10742 8.38542C5.10742 7.51517 5.45312 6.68058 6.06848 6.06522C6.68383 5.44987 7.51843 5.10417 8.38867 5.10417L9.47805 5.10271L9.4795 4.01042C9.47952 3.74611 9.57523 3.49075 9.74896 3.29156C9.92268 3.09237 10.1627 2.96282 10.4245 2.92687L10.5733 2.91667C10.8376 2.91668 11.0929 3.01239 11.2921 3.18612C11.4913 3.35984 11.6209 3.59982 11.6568 3.86167L11.667 4.01042V5.10271H16.042V4.01042C16.0421 3.74567 16.1382 3.48995 16.3126 3.2907C16.4869 3.09144 16.7275 2.96217 16.9899 2.92687L17.1358 2.91667C17.4003 2.91632 17.656 3.01188 17.8555 3.18564C18.055 3.35939 18.1848 3.59957 18.2208 3.86167L18.231 4.01042V5.10271H22.6016L22.603 4.01042C22.6031 3.74611 22.6988 3.49075 22.8725 3.29156C23.0462 3.09237 23.2862 2.96282 23.548 2.92687L23.6983 2.91667C23.9626 2.91668 24.2179 3.01239 24.4171 3.18612C24.6163 3.35984 24.7459 3.59982 24.7818 3.86167L24.792 4.01042V5.10271H25.8843C26.7545 5.10271 27.5891 5.44841 28.2045 6.06376C28.8198 6.67912 29.1655 7.51372 29.1655 8.38396L29.167 24.4256C29.167 24.5141 29.1573 24.5997 29.1378 24.6823L29.0941 24.8194L29.0285 24.9594L28.9993 25.006C28.9563 25.0767 28.9049 25.1418 28.8462 25.2L22.2778 31.7698C22.2385 31.8076 22.1972 31.8431 22.1539 31.8762L22.2778 31.7698C22.2297 31.8155 22.1786 31.8579 22.1247 31.8967L21.9964 31.9725L21.8272 32.041L21.661 32.079L21.5837 32.0877L21.5035 32.0906H8.39159ZM25.8828 7.29167H8.37409C8.08654 7.2955 7.81207 7.41242 7.6101 7.61713C7.40813 7.82183 7.2949 8.09784 7.29492 8.38542L7.29784 28.8079C7.29784 29.4131 7.78784 29.9017 8.39159 29.9017H20.4083L20.4097 26.6146C20.4096 25.7831 20.7251 24.9827 21.2925 24.3749C21.8599 23.7672 22.6369 23.3975 23.4664 23.3406L23.691 23.3333H26.9795V8.38542C26.9795 8.09533 26.8643 7.81714 26.6592 7.61202C26.454 7.4069 26.1758 7.29167 25.8858 7.29167M25.4337 25.5208H23.6939C23.4296 25.5208 23.1742 25.6166 22.975 25.7903C22.7758 25.964 22.6463 26.204 22.6103 26.4658L22.6001 26.6146V28.3558L25.4337 25.5208ZM10.5733 23.3333H16.4037C16.6808 23.3334 16.9475 23.4387 17.15 23.6279C17.3525 23.8171 17.4757 24.0761 17.4945 24.3525C17.5134 24.629 17.4267 24.9023 17.2518 25.1173C17.0769 25.3323 16.827 25.4729 16.5524 25.5106L16.4037 25.5208H10.5733C10.2961 25.5207 10.0294 25.4155 9.82689 25.2263C9.6244 25.0371 9.50127 24.7781 9.48238 24.5016C9.4635 24.2252 9.55026 23.9518 9.72514 23.7369C9.90002 23.5219 10.15 23.3813 10.4245 23.3435L10.5733 23.3333ZM10.5733 17.5H23.6953C23.9725 17.5001 24.2392 17.6054 24.4417 17.7945C24.6442 17.9837 24.7673 18.2427 24.7862 18.5192C24.8051 18.7957 24.7183 19.069 24.5435 19.284C24.3686 19.4989 24.1186 19.6395 23.8441 19.6773L23.6953 19.6875H10.5733C10.2961 19.6874 10.0294 19.5821 9.82689 19.393C9.6244 19.2038 9.50127 18.9448 9.48238 18.6683C9.4635 18.3918 9.55026 18.1185 9.72514 17.9035C9.90002 17.6886 10.15 17.548 10.4245 17.5102L10.5733 17.5ZM10.5733 11.6667H23.6953C23.9725 11.6667 24.2392 11.772 24.4417 11.9612C24.6442 12.1504 24.7673 12.4094 24.7862 12.6859C24.8051 12.9623 24.7183 13.2357 24.5435 13.4506C24.3686 13.6656 24.1186 13.8062 23.8441 13.844L23.6953 13.8542H10.5733C10.2961 13.8541 10.0294 13.7488 9.82689 13.5596C9.6244 13.3704 9.50127 13.1114 9.48238 12.835C9.4635 12.5585 9.55026 12.2852 9.72514 12.0702C9.90002 11.8552 10.15 11.7146 10.4245 11.6769L10.5733 11.6667Z" fill="#333333" fill-opacity="0.8"/>
</svg>
