<?xml version="1.0" encoding="UTF-8"?>
<svg id="Layer_1" data-name="Layer 1" xmlns="http://www.w3.org/2000/svg" viewBox="0 0 100 100">
  <defs>
    <style>
      .cls-1 {
        fill: #4b5563;
      }
    </style>
  </defs>
  <path class="cls-1" d="M75.68,97.06H24.31c-2.48,0-4.91-.48-7.21-1.43-2.33-.96-4.4-2.34-6.17-4.11-1.76-1.75-3.15-3.82-4.12-6.14-.96-2.32-1.45-4.77-1.45-7.27V21.89c0-2.51.49-4.95,1.46-7.27.95-2.3,2.34-4.37,4.12-6.15,1.78-1.77,3.85-3.15,6.17-4.11,2.29-.95,4.72-1.43,7.22-1.43h39.82c2.7,0,5.31.56,7.78,1.66.06.02.11.05.16.08,2.04.94,3.89,2.22,5.48,3.8l11.5,11.47c1.78,1.77,3.17,3.84,4.12,6.15.96,2.3,1.45,4.73,1.45,7.24v44.77c0,2.52-.49,4.96-1.45,7.26-.97,2.32-2.35,4.39-4.12,6.16-1.78,1.78-3.86,3.16-6.17,4.11-2.3.95-4.73,1.43-7.22,1.43ZM74.13,89.82h1.54c1.55,0,3.05-.3,4.48-.88,1.43-.59,2.72-1.44,3.81-2.54,1.09-1.09,1.95-2.38,2.55-3.81.59-1.42.89-2.93.9-4.49v-44.75c0-1.55-.31-3.05-.9-4.47-.59-1.42-1.45-2.7-2.55-3.8l-9.83-9.8v4.06c0,1.51-.3,2.96-.87,4.33-.57,1.37-1.39,2.6-2.45,3.66-1.07,1.07-2.31,1.89-3.69,2.45-1.35.56-2.8.85-4.31.85h-25.64c-1.5,0-2.96-.29-4.33-.85-1.37-.56-2.61-1.39-3.67-2.45-1.05-1.05-1.88-2.28-2.46-3.66-.57-1.36-.86-2.82-.86-4.32v-9.16h-1.54c-1.55,0-3.05.3-4.47.88-1.43.59-2.72,1.44-3.82,2.54-1.1,1.1-1.96,2.38-2.55,3.8-.6,1.44-.91,2.95-.91,4.49v56.22c0,1.55.3,3.05.9,4.49.6,1.43,1.46,2.71,2.55,3.79,1.1,1.1,2.38,1.95,3.82,2.55,1.42.58,2.92.88,4.46.88h1.55v-19.38c0-1.5.29-2.96.87-4.34.57-1.38,1.4-2.61,2.46-3.66,1.04-1.04,2.27-1.86,3.66-2.44,1.4-.57,2.83-.8,4.35-.85h25.62c1.44-.19,2.93.27,4.31.85,1.39.58,2.62,1.4,3.67,2.44,1.07,1.07,1.89,2.3,2.46,3.67s.86,2.82.87,4.31v19.4ZM33.11,89.82h33.79v-19.38c0-.53-.11-1.06-.32-1.56-.2-.48-.5-.94-.88-1.32-.37-.37-.82-.66-1.32-.87-.48-.2-.99-.3-1.51-.3h-25.7c-.54,0-1.06.1-1.55.31-.49.2-.93.49-1.31.87s-.68.82-.89,1.32-.31,1.01-.31,1.55v19.38ZM33.11,10.18v9.16c0,.54.1,1.05.31,1.53.21.51.5.95.88,1.32.39.39.82.68,1.32.88.5.21,1.02.31,1.57.31h25.64c.54,0,1.07-.1,1.55-.3.51-.21.95-.5,1.34-.89.38-.38.67-.82.87-1.31.21-.49.31-1.02.32-1.57v-8.81c-.9-.22-1.82-.33-2.75-.33h-31.04Z"/>
</svg>