<?xml version="1.0" encoding="UTF-8"?>
<svg id="Layer_1" data-name="Layer 1" xmlns="http://www.w3.org/2000/svg" viewBox="0 0 100 100">
  <defs>
    <style>
      .cls-1 {
        fill: #0ea5e9;
      }
    </style>
  </defs>
  <path class="cls-1" d="M92.81,89.6H7.19c-1.77,0-3.21-1.44-3.21-3.21s1.44-3.21,3.21-3.21h5.35v-31.04c0-.08,0-.17,0-.25,0-.18,0-.37.02-.55.41-6.12,5.52-10.98,11.75-10.98h1.07v-13.91c0-1.77,1.44-3.21,3.21-3.21s3.21,1.44,3.21,3.21v13.91h14.99v-13.91c0-1.77,1.44-3.21,3.21-3.21s3.21,1.44,3.21,3.21v13.91h14.99v-13.91c0-1.77,1.44-3.21,3.21-3.21s3.21,1.44,3.21,3.21v13.91h1.07c6.4,0,11.62,5.13,11.77,11.49,0,.07,0,.13,0,.2v31.12h5.35c1.77,0,3.21,1.44,3.21,3.21s-1.44,3.21-3.21,3.21ZM18.96,83.18h62.08v-24.66c-2.37,1.07-4.92,1.39-7.49.89-4.18-.82-7.91-3.69-10.66-8.03-3.19,5.27-7.66,8.26-12.64,8.26h0c-5.1,0-9.75-3.03-13.03-8.22-3.43,5.71-7.66,7.46-10.25,7.98-2.71.54-5.45.15-8-1.06v24.84ZM19.16,50.71c2.05,1.98,4.31,2.83,6.54,2.39,2.58-.52,4.93-2.76,6.72-6.31h-8.11c-2.41,0-4.51,1.69-5.15,3.93ZM67.64,46.79c1.88,3.47,4.43,5.78,7.14,6.31,2.61.49,4.65-.74,6.11-2.18-.57-2.34-2.72-4.14-5.21-4.14h-8.04ZM41.95,46.79c2.15,4.01,5.18,6.42,8.29,6.43h0c2.99,0,5.79-2.34,7.86-6.43h-16.16ZM71.41,18.96c-1.77,0-3.21-1.44-3.21-3.21v-2.14c0-1.77,1.44-3.21,3.21-3.21s3.21,1.44,3.21,3.21v2.14c0,1.77-1.44,3.21-3.21,3.21ZM50,18.96c-1.77,0-3.21-1.44-3.21-3.21v-2.14c0-1.77,1.44-3.21,3.21-3.21s3.21,1.44,3.21,3.21v2.14c0,1.77-1.44,3.21-3.21,3.21ZM28.59,18.96c-1.77,0-3.21-1.44-3.21-3.21v-2.14c0-1.77,1.44-3.21,3.21-3.21s3.21,1.44,3.21,3.21v2.14c0,1.77-1.44,3.21-3.21,3.21Z"/>
</svg>