<?xml version="1.0" encoding="UTF-8"?>
<svg id="Layer_1" data-name="Layer 1" xmlns="http://www.w3.org/2000/svg" xmlns:xlink="http://www.w3.org/1999/xlink" viewBox="0 0 100 100">
  <defs>
    <style>
      .cls-1 {
        fill: none;
      }

      .cls-2 {
        fill: #eab308;
      }

      .cls-3 {
        clip-path: url(#clippath);
      }
    </style>
    <clipPath id="clippath">
      <rect class="cls-1" width="100" height="100"/>
    </clipPath>
  </defs>
  <g class="cls-3">
    <path class="cls-2" d="M50,100c13.26,0,25.98-5.27,35.36-14.64,9.38-9.38,14.64-22.1,14.64-35.36s-5.27-25.98-14.64-35.36C75.98,5.27,63.26,0,50,0S24.02,5.27,14.64,14.64C5.27,24.02,0,36.74,0,50s5.27,25.98,14.64,35.36c9.38,9.38,22.09,14.64,35.36,14.64ZM50,25c2.6,0,4.69,2.09,4.69,4.69v21.88c0,2.6-2.09,4.69-4.69,4.69s-4.69-2.09-4.69-4.69v-21.88c0-2.6,2.09-4.69,4.69-4.69ZM43.75,68.75c0-1.66.66-3.25,1.83-4.42,1.17-1.17,2.76-1.83,4.42-1.83s3.25.66,4.42,1.83c1.17,1.17,1.83,2.76,1.83,4.42s-.66,3.25-1.83,4.42c-1.17,1.17-2.76,1.83-4.42,1.83s-3.25-.66-4.42-1.83c-1.17-1.17-1.83-2.76-1.83-4.42Z"/>
  </g>
</svg>