<?xml version="1.0" encoding="UTF-8"?>
<svg id="Layer_1" data-name="Layer 1" xmlns="http://www.w3.org/2000/svg" viewBox="0 0 100 100">
  <defs>
    <style>
      .cls-1 {
        fill: #fff;
      }
    </style>
  </defs>
  <path class="cls-1" d="M67.45,50c0,4.04-.22,7.92-.6,11.63h-33.7c-.4-3.71-.6-7.6-.6-11.63s.22-7.92.6-11.63h33.7c.4,3.71.6,7.6.6,11.63ZM72.68,38.37h22.37c.96,3.73,1.47,7.62,1.47,11.63s-.51,7.91-1.47,11.63h-22.37c.38-3.74.58-7.63.58-11.63s-.2-7.89-.58-11.63ZM93.15,32.55h-21.21c-1.82-11.61-5.42-21.34-10.05-27.56,14.23,3.76,25.81,14.09,31.25,27.56h.02ZM66.05,32.55h-32.1c1.11-6.62,2.82-12.47,4.91-17.21,1.91-4.29,4.04-7.4,6.09-9.36,2.04-1.93,3.73-2.51,5.05-2.51s3.02.58,5.05,2.51c2.05,1.96,4.18,5.07,6.09,9.36,2.11,4.73,3.8,10.58,4.91,17.21ZM28.06,32.55H6.85c5.45-13.47,17.01-23.79,31.26-27.56-4.63,6.22-8.23,15.94-10.05,27.56ZM4.94,38.37h22.37c-.38,3.74-.58,7.63-.58,11.63s.2,7.89.58,11.63H4.94c-.96-3.73-1.47-7.62-1.47-11.63s.51-7.91,1.47-11.63ZM38.86,84.64c-2.11-4.73-3.8-10.58-4.91-17.19h32.1c-1.11,6.62-2.82,12.47-4.91,17.19-1.91,4.29-4.04,7.4-6.09,9.36-2.04,1.95-3.73,2.53-5.05,2.53s-3.02-.58-5.05-2.51c-2.05-1.96-4.18-5.07-6.09-9.36v-.02ZM28.06,67.45c1.82,11.61,5.42,21.34,10.05,27.56-14.25-3.76-25.81-14.09-31.26-27.56h21.21ZM93.15,67.45c-5.45,13.47-17.01,23.79-31.25,27.56,4.64-6.22,8.22-15.94,10.05-27.56h21.19Z"/>
</svg>