<?xml version="1.0" encoding="UTF-8"?>
<svg id="Layer_1" data-name="Layer 1" xmlns="http://www.w3.org/2000/svg" viewBox="0 0 100 100">
  <defs>
    <style>
      .cls-1 {
        fill: #333;
        opacity: .4;
      }
    </style>
  </defs>
  <path class="cls-1" d="M50,4.35C24.79,4.35,4.35,24.79,4.35,50s20.44,45.65,45.65,45.65,45.65-20.44,45.65-45.65S75.21,4.35,50,4.35ZM81.58,31.74h-14.68c-.68-5.14-1.54-10.25-2.58-15.33,7.25,3.12,13.3,8.5,17.26,15.33ZM54.63,13.81c.31,1.61,1.77,9.3,2.94,17.93h-15.15c1.18-8.63,2.63-16.33,2.94-17.93,1.52-.2,3.06-.33,4.63-.33s3.11.13,4.63.33ZM59.13,50c0,2.73-.2,5.87-.5,9.13h-17.27c-.3-3.26-.5-6.4-.5-9.13s.2-5.87.5-9.13h17.27c.3,3.26.5,6.4.5,9.13ZM35.67,16.41c-1.04,5.08-1.9,10.19-2.58,15.33h-14.68c3.96-6.83,10.01-12.2,17.26-15.33ZM14.68,40.87h17.44c-.23,3.05-.38,6.14-.38,9.13s.15,6.08.39,9.13H14.68c-.76-2.93-1.2-5.97-1.2-9.13s.45-6.2,1.2-9.13ZM18.42,68.26h14.68c.86,6.5,1.92,12.1,2.58,15.33-7.25-3.12-13.3-8.5-17.26-15.33ZM45.37,86.19c-1.14-5.95-2.12-11.93-2.94-17.93h15.15c-.83,6-1.81,11.98-2.94,17.93-1.52.2-3.06.33-4.63.33s-3.11-.13-4.63-.33ZM64.33,83.59c.66-3.23,1.72-8.82,2.58-15.33h14.68c-3.96,6.83-10.01,12.2-17.26,15.33ZM85.32,59.13h-17.44c.23-3.05.38-6.14.38-9.13s-.15-6.08-.39-9.13h17.44c.76,2.93,1.21,5.97,1.21,9.13s-.44,6.2-1.2,9.13Z"/>
</svg>