<svg width="13" height="14" viewBox="0 0 13 14" fill="none" xmlns="http://www.w3.org/2000/svg">
<path d="M8.40615 3.125C9.01661 3.2441 9.57764 3.54266 10.0174 3.98246C10.4572 4.42226 10.7558 4.98329 10.8749 5.59375M8.40615 0.625C9.67444 0.765898 10.8571 1.33386 11.76 2.23563C12.663 3.1374 13.2324 4.31938 13.3749 5.5875M12.7499 10.575V12.45C12.7506 12.6241 12.7149 12.7964 12.6452 12.9558C12.5755 13.1153 12.4732 13.2585 12.3449 13.3762C12.2167 13.4938 12.0653 13.5834 11.9004 13.6392C11.7355 13.695 11.5608 13.7157 11.3874 13.7C9.46417 13.491 7.61677 12.8338 5.99365 11.7813C4.48354 10.8217 3.20323 9.54136 2.24365 8.03125C1.18738 6.40075 0.530049 4.54437 0.324897 2.6125C0.309279 2.43967 0.329819 2.26548 0.38521 2.10102C0.440601 1.93656 0.529629 1.78543 0.646626 1.65726C0.763623 1.5291 0.906025 1.42669 1.06477 1.35658C1.22351 1.28646 1.39511 1.25016 1.56865 1.25H3.44365C3.74696 1.24701 4.04102 1.35442 4.271 1.55221C4.50098 1.74999 4.6512 2.02465 4.69365 2.325C4.77279 2.92504 4.91955 3.5142 5.13115 4.08125C5.21524 4.30495 5.23344 4.54807 5.18359 4.7818C5.13374 5.01553 5.01794 5.23007 4.8499 5.4L4.05615 6.19375C4.94587 7.75847 6.24143 9.05403 7.80615 9.94375L8.5999 9.15C8.76983 8.98196 8.98437 8.86616 9.2181 8.81631C9.45183 8.76646 9.69494 8.78466 9.91865 8.86875C10.4857 9.08034 11.0749 9.22711 11.6749 9.30625C11.9785 9.34908 12.2558 9.502 12.454 9.73593C12.6522 9.96986 12.7575 10.2685 12.7499 10.575Z" stroke="white" stroke-linecap="round" stroke-linejoin="round"/>
</svg>
