<?xml version="1.0" encoding="UTF-8"?>
<svg id="Layer_1" data-name="Layer 1" xmlns="http://www.w3.org/2000/svg" xmlns:xlink="http://www.w3.org/1999/xlink" viewBox="0 0 100 100">
  <defs>
    <style>
      .cls-1 {
        fill: none;
      }

      .cls-2 {
        fill: #9ca3af;
      }

      .cls-3 {
        clip-path: url(#clippath);
      }
    </style>
    <clipPath id="clippath">
      <rect class="cls-1" x="12.38" y="7" width="75.25" height="86"/>
    </clipPath>
  </defs>
  <g class="cls-3">
    <path class="cls-2" d="M33.88,7c2.97,0,5.38,2.4,5.38,5.38v5.38h21.5v-5.38c0-2.97,2.4-5.38,5.38-5.38s5.38,2.4,5.38,5.38v5.38h8.06c4.45,0,8.06,3.61,8.06,8.06v8.06H12.38v-8.06c0-4.45,3.61-8.06,8.06-8.06h8.06v-5.38c0-2.97,2.4-5.38,5.38-5.38ZM12.38,39.25h75.25v45.69c0,4.45-3.61,8.06-8.06,8.06H20.44c-4.45,0-8.06-3.61-8.06-8.06v-45.69ZM23.12,52.69v5.38c0,1.48,1.21,2.69,2.69,2.69h5.38c1.48,0,2.69-1.21,2.69-2.69v-5.38c0-1.48-1.21-2.69-2.69-2.69h-5.38c-1.48,0-2.69,1.21-2.69,2.69ZM44.62,52.69v5.38c0,1.48,1.21,2.69,2.69,2.69h5.38c1.48,0,2.69-1.21,2.69-2.69v-5.38c0-1.48-1.21-2.69-2.69-2.69h-5.38c-1.48,0-2.69,1.21-2.69,2.69ZM68.81,50c-1.48,0-2.69,1.21-2.69,2.69v5.38c0,1.48,1.21,2.69,2.69,2.69h5.38c1.48,0,2.69-1.21,2.69-2.69v-5.38c0-1.48-1.21-2.69-2.69-2.69h-5.38ZM23.12,74.19v5.38c0,1.48,1.21,2.69,2.69,2.69h5.38c1.48,0,2.69-1.21,2.69-2.69v-5.38c0-1.48-1.21-2.69-2.69-2.69h-5.38c-1.48,0-2.69,1.21-2.69,2.69ZM47.31,71.5c-1.48,0-2.69,1.21-2.69,2.69v5.38c0,1.48,1.21,2.69,2.69,2.69h5.38c1.48,0,2.69-1.21,2.69-2.69v-5.38c0-1.48-1.21-2.69-2.69-2.69h-5.38ZM66.12,74.19v5.38c0,1.48,1.21,2.69,2.69,2.69h5.38c1.48,0,2.69-1.21,2.69-2.69v-5.38c0-1.48-1.21-2.69-2.69-2.69h-5.38c-1.48,0-2.69,1.21-2.69,2.69Z"/>
  </g>
</svg>