<?xml version="1.0" encoding="UTF-8"?>
<svg id="Layer_1" data-name="Layer 1" xmlns="http://www.w3.org/2000/svg" xmlns:xlink="http://www.w3.org/1999/xlink" viewBox="0 0 100 100">
  <defs>
    <style>
      .cls-1 {
        fill: #e14617;
      }

      .cls-2 {
        fill: none;
      }

      .cls-3 {
        clip-path: url(#clippath);
      }
    </style>
    <clipPath id="clippath">
      <rect class="cls-2" x="1.91" y="1.91" width="96.17" height="96.17"/>
    </clipPath>
  </defs>
  <g class="cls-3">
    <path class="cls-1" d="M62.02,95.23c-1.15,0-2.86-.58-3.76-1.29-.99-.74-1.78-1.88-2.15-3.15L37.97,26.27l-5.42,19.27c-.76,2.73-2.44,5.2-4.7,6.92-2.27,1.73-5.09,2.68-7.94,2.69h-9.98c-2.84,0-5.15-2.31-5.15-5.15s2.31-5.15,5.15-5.15h9.98c.61,0,1.22-.21,1.71-.58.49-.38.86-.91,1.02-1.5l9.43-33.51c.3-1.09,1.32-2.57,2.23-3.25,1.03-.78,2.35-1.23,3.69-1.23,1.09,0,2.76.55,3.64,1.19,1.12.84,1.89,1.95,2.27,3.25l18.13,64.51,5.42-19.27c.78-2.75,2.46-5.22,4.73-6.94,2.27-1.72,5.1-2.67,7.95-2.67h9.95c2.84,0,5.15,2.31,5.15,5.15s-2.31,5.15-5.15,5.15h-9.94c-.63,0-1.24.2-1.73.58-.5.38-.87.92-1.04,1.52l-9.42,33.5c-.3,1.09-1.31,2.57-2.22,3.25-1.06.79-2.37,1.23-3.7,1.23Z"/>
  </g>
</svg>