<?xml version="1.0" encoding="UTF-8"?>
<svg id="Layer_1" data-name="Layer 1" xmlns="http://www.w3.org/2000/svg" viewBox="0 0 100 100">
  <defs>
    <style>
      .cls-1 {
        fill: #2563eb;
      }
    </style>
  </defs>
  <path class="cls-1" d="M31.71,69.07l7.52-2.17,45.3-45.85c.36-.37.56-.86.55-1.37,0-.51-.21-1-.57-1.36l-2.71-2.74c-.18-.18-.39-.32-.62-.42-.23-.1-.48-.15-.73-.15-.25,0-.5.05-.73.14-.23.1-.44.24-.62.42l-45.18,45.73-2.22,7.78ZM87.19,10.14l2.71,2.75c3.74,3.79,3.78,9.9.07,13.66l-46.68,47.25-16.08,4.63c-.49.14-.99.18-1.5.12-.5-.06-.99-.22-1.43-.47-.44-.25-.83-.58-1.14-.98-.31-.4-.54-.85-.68-1.34-.21-.71-.21-1.46,0-2.16l4.68-16.41L73.69,10.06c.89-.89,1.94-1.6,3.1-2.08,1.16-.48,2.41-.72,3.66-.72,1.26,0,2.5.26,3.66.75,1.16.49,2.2,1.21,3.08,2.11ZM37.97,15.06c2.12,0,3.84,1.74,3.84,3.88,0,.51-.09,1.01-.28,1.48-.19.47-.47.9-.83,1.26-.36.36-.78.65-1.25.84-.47.2-.97.3-1.48.3h-15.35c-4.24,0-7.67,3.48-7.67,7.76v46.6c0,4.29,3.44,7.77,7.67,7.77h46.04c4.24,0,7.68-3.48,7.68-7.77v-15.53c0-2.15,1.72-3.88,3.84-3.88s3.84,1.74,3.84,3.89v15.53c0,8.58-6.87,15.54-15.35,15.54H22.62c-8.48,0-15.35-6.96-15.35-15.54V30.6c0-8.58,6.87-15.53,15.35-15.53h15.35Z"/>
</svg>