<?xml version="1.0" encoding="UTF-8"?>
<svg id="Layer_1" data-name="Layer 1" xmlns="http://www.w3.org/2000/svg" viewBox="0 0 100 100">
  <defs>
    <style>
      .cls-1 {
        fill: #4b5563;
      }
    </style>
  </defs>
  <path class="cls-1" d="M44.5,18.57l-5.56,2.08c-.44.16-.74.59-.74,1.06s.29.9.74,1.06l5.56,2.08,2.08,5.56c.16.44.59.74,1.06.74s.9-.29,1.06-.74l2.08-5.56,5.56-2.08c.44-.16.74-.59.74-1.06s-.29-.9-.74-1.06l-5.56-2.08-2.08-5.56c-.16-.44-.59-.74-1.06-.74s-.9.29-1.06.74l-2.08,5.56ZM16.7,70.55c-2.76,2.76-2.76,7.24,0,10.01l5.1,5.1c2.76,2.76,7.24,2.76,10.01,0l56.2-56.22c2.76-2.76,2.76-7.24,0-10.01l-5.1-5.09c-2.76-2.76-7.24-2.76-10.01,0l-56.2,56.2ZM81.34,24.45l-15.48,15.48-3.43-3.43,15.48-15.48,3.43,3.43ZM11.01,29.55c-.66.25-1.11.88-1.11,1.59s.44,1.34,1.11,1.59l8.33,3.12,3.12,8.33c.25.66.88,1.11,1.59,1.11s1.34-.44,1.59-1.11l3.12-8.33,8.33-3.12c.66-.25,1.11-.88,1.11-1.59s-.44-1.34-1.11-1.59l-8.33-3.12-3.12-8.33c-.25-.66-.88-1.11-1.59-1.11s-1.34.44-1.59,1.11l-3.12,8.33-8.33,3.12ZM62.9,67.28c-.66.25-1.11.88-1.11,1.59s.44,1.34,1.11,1.59l8.33,3.12,3.12,8.33c.25.66.88,1.11,1.59,1.11s1.34-.44,1.59-1.11l3.12-8.33,8.33-3.12c.66-.25,1.11-.88,1.11-1.59s-.44-1.34-1.11-1.59l-8.33-3.12-3.12-8.33c-.25-.66-.88-1.11-1.59-1.11s-1.34.44-1.59,1.11l-3.12,8.33-8.33,3.12Z"/>
</svg>