<svg width="23" height="23" viewBox="0 0 23 23" fill="none" xmlns="http://www.w3.org/2000/svg">
<g clip-path="url(#clip0_2466_1635)">
<path d="M11.4998 4.13965C12.0087 4.13965 12.4198 4.55077 12.4198 5.05965V6.89965H15.8698C17.0141 6.89965 17.9398 7.8254 17.9398 8.96965V16.7896C17.9398 17.9339 17.0141 18.8596 15.8698 18.8596H7.1298C5.98555 18.8596 5.0598 17.9339 5.0598 16.7896V8.96965C5.0598 7.8254 5.98555 6.89965 7.1298 6.89965H10.5798V5.05965C10.5798 4.55077 10.9909 4.13965 11.4998 4.13965ZM8.2798 15.1796C8.0268 15.1796 7.8198 15.3866 7.8198 15.6396C7.8198 15.8926 8.0268 16.0996 8.2798 16.0996H9.1998C9.4528 16.0996 9.6598 15.8926 9.6598 15.6396C9.6598 15.3866 9.4528 15.1796 9.1998 15.1796H8.2798ZM11.0398 15.1796C10.7868 15.1796 10.5798 15.3866 10.5798 15.6396C10.5798 15.8926 10.7868 16.0996 11.0398 16.0996H11.9598C12.2128 16.0996 12.4198 15.8926 12.4198 15.6396C12.4198 15.3866 12.2128 15.1796 11.9598 15.1796H11.0398ZM13.7998 15.1796C13.5468 15.1796 13.3398 15.3866 13.3398 15.6396C13.3398 15.8926 13.5468 16.0996 13.7998 16.0996H14.7198C14.9728 16.0996 15.1798 15.8926 15.1798 15.6396C15.1798 15.3866 14.9728 15.1796 14.7198 15.1796H13.7998ZM9.8898 11.4996C9.8898 11.1946 9.76864 10.9021 9.55298 10.6865C9.33731 10.4708 9.0448 10.3496 8.7398 10.3496C8.43481 10.3496 8.1423 10.4708 7.92663 10.6865C7.71096 10.9021 7.5898 11.1946 7.5898 11.4996C7.5898 11.8046 7.71096 12.0972 7.92663 12.3128C8.1423 12.5285 8.43481 12.6496 8.7398 12.6496C9.0448 12.6496 9.33731 12.5285 9.55298 12.3128C9.76864 12.0972 9.8898 11.8046 9.8898 11.4996ZM14.2598 12.6496C14.5648 12.6496 14.8573 12.5285 15.073 12.3128C15.2886 12.0972 15.4098 11.8046 15.4098 11.4996C15.4098 11.1946 15.2886 10.9021 15.073 10.6865C14.8573 10.4708 14.5648 10.3496 14.2598 10.3496C13.9548 10.3496 13.6623 10.4708 13.4466 10.6865C13.231 10.9021 13.1098 11.1946 13.1098 11.4996C13.1098 11.8046 13.231 12.0972 13.4466 12.3128C13.6623 12.5285 13.9548 12.6496 14.2598 12.6496ZM3.6798 10.5796H4.1398V16.0996H3.6798C2.91793 16.0996 2.2998 15.4815 2.2998 14.7196V11.9596C2.2998 11.1978 2.91793 10.5796 3.6798 10.5796ZM19.3198 10.5796C20.0817 10.5796 20.6998 11.1978 20.6998 11.9596V14.7196C20.6998 15.4815 20.0817 16.0996 19.3198 16.0996H18.8598V10.5796H19.3198Z" fill="#1E40AF"/>
</g>
<defs>
<clipPath id="clip0_2466_1635">
<path d="M2.2998 4.13965H20.6998V18.8596H2.2998V4.13965Z" fill="white"/>
</clipPath>
</defs>
</svg>
