<?xml version="1.0" encoding="UTF-8"?>
<svg id="Layer_1" data-name="Layer 1" xmlns="http://www.w3.org/2000/svg" xmlns:xlink="http://www.w3.org/1999/xlink" viewBox="0 0 100 100">
  <defs>
    <style>
      .cls-1 {
        fill: none;
      }

      .cls-2 {
        fill: #9ca3af;
      }

      .cls-3 {
        clip-path: url(#clippath);
      }
    </style>
    <clipPath id="clippath">
      <rect class="cls-1" x="12.11" y="6.7" width="75.78" height="86.61"/>
    </clipPath>
  </defs>
  <g class="cls-3">
    <path class="cls-2" d="M33.76,6.7c2.99,0,5.41,2.42,5.41,5.41v5.41h21.65v-5.41c0-2.99,2.42-5.41,5.41-5.41s5.41,2.42,5.41,5.41v5.41h8.12c4.48,0,8.12,3.64,8.12,8.12v8.12H12.11v-8.12c0-4.48,3.64-8.12,8.12-8.12h8.12v-5.41c0-2.99,2.42-5.41,5.41-5.41ZM12.11,39.17h75.78v46.01c0,4.48-3.64,8.12-8.12,8.12H20.23c-4.48,0-8.12-3.64-8.12-8.12v-46.01ZM25.64,50c-1.49,0-2.71,1.22-2.71,2.71v16.24c0,1.49,1.22,2.71,2.71,2.71h16.24c1.49,0,2.71-1.22,2.71-2.71v-16.24c0-1.49-1.22-2.71-2.71-2.71h-16.24Z"/>
  </g>
</svg>