<?xml version="1.0" encoding="UTF-8"?>
<svg id="Layer_1" data-name="Layer 1" xmlns="http://www.w3.org/2000/svg" viewBox="0 0 100 100">
  <defs>
    <style>
      .cls-1 {
        fill: #004e61;
      }
    </style>
  </defs>
  <path class="cls-1" d="M26.43,96.25H8.75c-2.76,0-5-2.24-5-5v-17.68c0-1.33.53-2.6,1.46-3.54L52.33,22.92s.02-.02.03-.03c0,0,.02-.02.03-.03l17.65-17.65c1.95-1.95,5.12-1.95,7.07,0l17.68,17.68c.94.94,1.46,2.21,1.46,3.54s-.53,2.6-1.46,3.54L29.96,94.78c-.94.94-2.21,1.46-3.54,1.46ZM13.75,86.25h10.61l42.14-42.14-10.61-10.61L13.75,75.64v10.61ZM62.96,26.43l10.61,10.61,10.61-10.61-10.61-10.61-10.61,10.61Z"/>
</svg>