<?xml version="1.0" encoding="UTF-8"?>
<svg id="Layer_1" data-name="Layer 1" xmlns="http://www.w3.org/2000/svg" viewBox="0 0 100 100">
  <defs>
    <style>
      .cls-1 {
        fill: #374151;
        fill-rule: evenodd;
      }
    </style>
  </defs>
  <path class="cls-1" d="M52.64,12.78c4.61-4.49,10.81-6.98,17.24-6.94,6.44.04,12.6,2.62,17.15,7.17,4.55,4.55,7.13,10.71,7.17,17.15.04,6.44-2.45,12.63-6.94,17.24l-.06.05-11.93,11.93c-2.48,2.48-5.47,4.4-8.76,5.63-3.29,1.23-6.8,1.73-10.31,1.48-3.5-.25-6.91-1.25-9.99-2.93-3.08-1.68-5.76-4.01-7.87-6.82-.38-.48-.66-1.04-.82-1.63s-.2-1.21-.12-1.82c.08-.61.28-1.19.59-1.72.31-.53.72-.99,1.21-1.36.49-.37,1.05-.63,1.65-.78.59-.15,1.21-.18,1.82-.08.61.09,1.19.31,1.71.63.52.32.97.74,1.33,1.24,1.31,1.75,2.98,3.21,4.91,4.26,1.92,1.05,4.05,1.67,6.23,1.83s4.38-.16,6.43-.92c2.05-.77,3.91-1.96,5.46-3.51l11.89-11.9c2.77-2.88,4.31-6.74,4.27-10.74-.04-4-1.64-7.82-4.47-10.65-2.83-2.83-6.65-4.43-10.65-4.47s-7.85,1.5-10.73,4.27l-6.81,6.78c-.87.82-2.03,1.27-3.23,1.26-1.2-.02-2.35-.51-3.19-1.36s-1.33-2-1.34-3.2c-.01-1.2.44-2.36,1.27-3.23l6.89-6.85Z"/>
  <path class="cls-1" d="M33.48,35c4.96-1.85,10.38-2.04,15.45-.55,5.08,1.49,9.53,4.58,12.7,8.82.36.48.63,1.04.78,1.62.15.59.18,1.2.1,1.8-.09.6-.29,1.18-.6,1.7-.31.52-.72.98-1.2,1.34-.48.36-1.04.63-1.62.78-.59.15-1.2.18-1.8.1s-1.18-.29-1.7-.6c-.52-.31-.98-.72-1.34-1.2-1.31-1.75-2.98-3.2-4.9-4.25-1.92-1.05-4.05-1.67-6.23-1.83-2.18-.16-4.38.16-6.43.92-2.05.77-3.91,1.96-5.46,3.51l-11.9,11.9c-2.75,2.89-4.26,6.73-4.21,10.72.05,3.98,1.65,7.79,4.47,10.61,2.82,2.82,6.63,4.42,10.61,4.47,3.98.05,7.83-1.46,10.72-4.21l6.77-6.77c.43-.43.94-.77,1.49-1,.56-.23,1.16-.35,1.76-.35.61,0,1.2.12,1.76.35.56.23,1.07.57,1.5,1,.43.43.77.94,1,1.49.23.56.35,1.16.35,1.76,0,.6-.12,1.2-.35,1.76-.23.56-.57,1.07-1,1.49l-6.8,6.8-.05.05c-4.61,4.49-10.81,6.98-17.24,6.94-6.44-.04-12.6-2.62-17.15-7.17-4.55-4.55-7.13-10.71-7.17-17.15-.04-6.44,2.45-12.63,6.94-17.24l.06-.05,11.93-11.93c2.48-2.48,5.47-4.41,8.76-5.63"/>
</svg>