<svg width="60" height="60" viewBox="0 0 60 60" fill="none" xmlns="http://www.w3.org/2000/svg">
<path d="M0 7.68099C0 3.58641 3.31932 0.26709 7.41391 0.26709H51.8974C55.9919 0.26709 59.3113 3.58641 59.3113 7.681V52.1644C59.3113 56.259 55.9919 59.5784 51.8974 59.5784H7.4139C3.31932 59.5784 0 56.259 0 52.1644V7.68099Z" fill="#DCFCE7"/>
<g clip-path="url(#clip0_2430_1726)">
<path d="M33.3656 17.5669H22.2447C21.5893 17.5669 20.9607 17.8273 20.4973 18.2907C20.0338 18.7542 19.7734 19.3828 19.7734 20.0382V39.8086C19.7734 40.464 20.0338 41.0926 20.4973 41.5561C20.9607 42.0196 21.5893 42.2799 22.2447 42.2799H37.0726C37.728 42.2799 38.3566 42.0196 38.82 41.5561C39.2835 41.0926 39.5439 40.464 39.5439 39.8086V23.7452L33.3656 17.5669Z" stroke="#15803D" stroke-width="3.70695" stroke-linecap="round" stroke-linejoin="round"/>
<path d="M32.127 17.5669V22.5095C32.127 23.1649 32.3873 23.7935 32.8508 24.257C33.3142 24.7204 33.9428 24.9808 34.5983 24.9808H39.5409" stroke="#15803D" stroke-width="3.70695" stroke-linecap="round" stroke-linejoin="round"/>
</g>
<defs>
<clipPath id="clip0_2430_1726">
<rect width="29.6556" height="29.6556" fill="white" transform="translate(14.8281 15.0942)"/>
</clipPath>
</defs>
</svg>
