<?xml version="1.0" encoding="UTF-8"?>
<svg id="Layer_1" data-name="Layer 1" xmlns="http://www.w3.org/2000/svg" viewBox="0 0 100 100">
  <defs>
    <style>
      .cls-1 {
        fill: #1da1f2;
      }
    </style>
  </defs>
  <path class="cls-1" d="M88.08,30.47c.06.85.06,1.7.06,2.55,0,25.97-19.77,55.9-55.9,55.9-11.13,0-21.47-3.22-30.17-8.82,1.58.18,3.1.24,4.74.24,9.19,0,17.64-3.1,24.39-8.39-8.64-.18-15.88-5.84-18.37-13.63,1.22.18,2.43.3,3.71.3,1.76,0,3.53-.24,5.17-.67-9-1.83-15.76-9.73-15.76-19.28v-.24c2.62,1.46,5.66,2.37,8.88,2.49-5.29-3.53-8.76-9.55-8.76-16.36,0-3.65.97-7,2.68-9.92,9.67,11.92,24.21,19.71,40.51,20.56-.3-1.46-.49-2.98-.49-4.5,0-10.83,8.76-19.65,19.65-19.65,5.66,0,10.77,2.37,14.36,6.2,4.44-.85,8.7-2.49,12.47-4.74-1.46,4.56-4.56,8.39-8.64,10.83,3.95-.43,7.79-1.52,11.31-3.04-2.68,3.89-6.02,7.36-9.85,10.16Z"/>
</svg>