<?xml version="1.0" encoding="UTF-8"?>
<svg id="Layer_1" data-name="Layer 1" xmlns="http://www.w3.org/2000/svg" viewBox="0 0 100 100">
  <defs>
    <style>
      .cls-1 {
        fill: #5d626e;
      }
    </style>
  </defs>
  <path class="cls-1" d="M54.49,96.39c-1.29,0-2.57-.3-3.73-.88l-8.96-4.48c-1.39-.7-2.56-1.76-3.36-3.07-.8-1.29-1.24-2.8-1.24-4.37v-26.87c0-1.26-.47-2.49-1.33-3.43L3.52,17.5c-1.08-1.2-1.78-2.68-2.04-4.27-.25-1.56-.04-3.19.61-4.69.65-1.47,1.72-2.72,3.07-3.6,1.36-.88,2.92-1.34,4.53-1.34h80.62c1.63,0,3.2.48,4.54,1.36,1.33.87,2.39,2.11,3.05,3.58.65,1.47.86,3.09.61,4.68-.25,1.6-.97,3.08-2.06,4.28l-32.33,35.77c-.85.94-1.33,2.16-1.33,3.43v31.36c0,1.42-.37,2.83-1.06,4.06-.65,1.2-1.65,2.24-2.86,3-1.24.76-2.62,1.18-4.02,1.25-.12,0-.25,0-.37,0ZM9.69,11.29s-.62.73-.62.75l32.51,36.1c2.12,2.35,3.3,5.4,3.31,8.57v26.89c0,.09.01.21.08.33l9.23,4.73s.84-.26.85-.27l.07-31.65c0-3.18,1.18-6.23,3.31-8.59L90.78,12.35s-.13-.96-.13-.97l-80.95-.1Z"/>
</svg>