<?xml version="1.0" encoding="UTF-8"?>
<svg id="Layer_1" data-name="Layer 1" xmlns="http://www.w3.org/2000/svg" viewBox="0 0 100 100">
  <defs>
    <style>
      .cls-1 {
        fill: #374151;
      }
    </style>
  </defs>
  <path class="cls-1" d="M68.3,95.76H17.97c-3.66,0-7.11-1.43-9.71-4.02-2.56-2.56-4.02-6.09-4.02-9.71V31.7c0-3.66,1.43-7.11,4.02-9.71s6.04-4.02,9.71-4.02h27.45c2.53,0,4.58,2.05,4.58,4.58s-2.05,4.58-4.58,4.58h-27.45c-1.22,0-2.37.47-3.24,1.34s-1.34,2.01-1.34,3.24v50.33c0,1.21.49,2.39,1.34,3.24s2.01,1.34,3.24,1.34h50.33c1.22,0,2.37-.47,3.24-1.34s1.34-2.03,1.34-3.24v-27.45c0-2.53,2.05-4.58,4.58-4.58s4.58,2.05,4.58,4.58v27.45c0,3.61-1.47,7.15-4.02,9.71-2.59,2.59-6.04,4.02-9.71,4.02ZM40.85,63.73c-1.17,0-2.34-.45-3.24-1.34-1.79-1.79-1.79-4.68,0-6.47L80.13,13.4h-16.41c-2.53,0-4.58-2.05-4.58-4.58s2.05-4.58,4.58-4.58h27.44c.05,0,.09,0,.13,0h.02c.57.02,1.11.14,1.61.35.5.2.97.5,1.39.88h0s0,0,0,0h0c.07.06.13.13.19.2h0s0,0,0,0h0c.38.42.69.88.88,1.39.21.5.33,1.04.35,1.61h0v.02h0v27.57c0,2.53-2.05,4.58-4.58,4.58s-4.58-2.05-4.58-4.58v-16.41l-42.52,42.52c-.89.89-2.06,1.34-3.24,1.34Z"/>
</svg>