<?xml version="1.0" encoding="UTF-8"?>
<svg id="Layer_1" data-name="Layer 1" xmlns="http://www.w3.org/2000/svg" viewBox="0 0 100 100">
  <defs>
    <style>
      .cls-1 {
        fill: #6b7280;
      }
    </style>
  </defs>
  <path class="cls-1" d="M78.03,37.18c-2.66,0-4.81,2.15-4.81,4.81v8.01c0,6.11-2.48,12.1-6.8,16.42-4.38,4.39-10.22,6.8-16.43,6.8s-12.04-2.41-16.42-6.8c-4.39-4.38-6.8-10.21-6.8-16.42v-8.01c0-2.65-2.15-4.81-4.81-4.81s-4.81,2.15-4.81,4.81v8.01c0,8.78,3.42,17.02,9.62,23.22,5.05,5.05,11.47,8.22,18.42,9.23v7.59c0,2.65,2.15,4.81,4.81,4.81s4.81-2.15,4.81-4.81v-7.6c6.95-1.01,13.36-4.18,18.41-9.23,6.2-6.2,9.62-14.45,9.62-23.22v-8.01c0-2.65-2.15-4.81-4.81-4.81Z"/>
  <path class="cls-1" d="M50,66.82c9.27,0,16.82-7.55,16.82-16.82v-28.03c0-9.27-7.55-16.82-16.82-16.82s-16.82,7.55-16.82,16.82v28.03c0,9.27,7.55,16.82,16.82,16.82ZM42.79,21.97c0-3.97,3.23-7.21,7.21-7.21s7.21,3.23,7.21,7.21v28.03c0,3.97-3.23,7.21-7.21,7.21s-7.21-3.23-7.21-7.21v-28.03Z"/>
</svg>