<?xml version="1.0" encoding="UTF-8"?>
<svg id="Layer_1" data-name="Layer 1" xmlns="http://www.w3.org/2000/svg" viewBox="0 0 100 100">
  <defs>
    <style>
      .cls-1 {
        opacity: .4;
      }

      .cls-2 {
        fill: #333;
      }
    </style>
  </defs>
  <g class="cls-1">
    <path class="cls-2" d="M80.16,95.24H19.84c-4.02,0-7.81-1.57-10.66-4.42s-4.42-6.64-4.42-10.66V19.84c0-4.03,1.57-7.82,4.42-10.67s6.63-4.41,10.66-4.41h20.1c2.78,0,5.03,2.25,5.03,5.03s-2.25,5.03-5.03,5.03h-20.1c-1.34,0-2.61.52-3.55,1.47-.95.95-1.47,2.21-1.47,3.56v60.31c0,1.32.54,2.62,1.47,3.55s2.23,1.47,3.55,1.47h60.31c1.32,0,2.62-.54,3.55-1.47s1.47-2.23,1.47-3.55v-20.1c0-2.78,2.25-5.03,5.03-5.03s5.03,2.25,5.03,5.03v20.1c0,4.02-1.57,7.81-4.42,10.66s-6.64,4.42-10.66,4.42ZM50,55.03c-1.29,0-2.57-.49-3.55-1.47-1.96-1.96-1.96-5.14,0-7.11l31.63-31.63h-13c-2.78,0-5.03-2.25-5.03-5.03s2.25-5.03,5.03-5.03h25.15c.67,0,1.32.14,1.9.38.6.25,1.15.61,1.64,1.09s.85,1.04,1.09,1.64c.24.58.38,1.23.38,1.9h0v25.15c0,2.78-2.25,5.03-5.03,5.03s-5.03-2.25-5.03-5.03v-13l-31.63,31.63c-.98.98-2.27,1.47-3.55,1.47Z"/>
  </g>
</svg>