<?xml version="1.0" encoding="UTF-8"?>
<svg id="Layer_1" data-name="Layer 1" xmlns="http://www.w3.org/2000/svg" xmlns:xlink="http://www.w3.org/1999/xlink" viewBox="0 0 100 100">
  <defs>
    <style>
      .cls-1 {
        fill: none;
      }

      .cls-2 {
        fill: #2563eb;
      }

      .cls-3 {
        clip-path: url(#clippath);
      }
    </style>
    <clipPath id="clippath">
      <rect class="cls-1" x="4.61" y="4.61" width="90.78" height="90.78"/>
    </clipPath>
  </defs>
  <g class="cls-3">
    <path class="cls-2" d="M4.61,78.37c0,3.14,2.54,5.67,5.67,5.67h9.7c2.18,5.02,7.18,8.51,13,8.51s10.82-3.49,13-8.51h43.74c3.14,0,5.67-2.54,5.67-5.67s-2.54-5.67-5.67-5.67h-43.74c-2.18-5.02-7.18-8.51-13-8.51s-10.82,3.49-13,8.51h-9.7c-3.14,0-5.67,2.54-5.67,5.67ZM27.3,78.37c0-1.5.6-2.95,1.66-4.01,1.06-1.06,2.51-1.66,4.01-1.66s2.95.6,4.01,1.66c1.06,1.06,1.66,2.51,1.66,4.01s-.6,2.95-1.66,4.01c-1.06,1.06-2.51,1.66-4.01,1.66s-2.95-.6-4.01-1.66c-1.06-1.06-1.66-2.51-1.66-4.01ZM61.35,50c0-1.5.6-2.95,1.66-4.01,1.06-1.06,2.51-1.66,4.01-1.66s2.95.6,4.01,1.66c1.06,1.06,1.66,2.51,1.66,4.01s-.6,2.95-1.66,4.01c-1.06,1.06-2.51,1.66-4.01,1.66s-2.95-.6-4.01-1.66c-1.06-1.06-1.66-2.51-1.66-4.01ZM67.02,35.82c-5.82,0-10.82,3.49-13,8.51H10.28c-3.14,0-5.67,2.54-5.67,5.67s2.54,5.67,5.67,5.67h43.74c2.18,5.02,7.18,8.51,13,8.51s10.82-3.49,13-8.51h9.7c3.14,0,5.67-2.54,5.67-5.67s-2.54-5.67-5.67-5.67h-9.7c-2.18-5.02-7.18-8.51-13-8.51ZM38.65,27.3c-1.5,0-2.95-.6-4.01-1.66-1.06-1.06-1.66-2.51-1.66-4.01s.6-2.95,1.66-4.01c1.06-1.06,2.51-1.66,4.01-1.66s2.95.6,4.01,1.66c1.06,1.06,1.66,2.51,1.66,4.01s-.6,2.95-1.66,4.01c-1.06,1.06-2.51,1.66-4.01,1.66ZM51.65,15.96c-2.18-5.02-7.18-8.51-13-8.51s-10.82,3.49-13,8.51h-15.37c-3.14,0-5.67,2.54-5.67,5.67s2.54,5.67,5.67,5.67h15.37c2.18,5.02,7.18,8.51,13,8.51s10.82-3.49,13-8.51h38.07c3.14,0,5.67-2.54,5.67-5.67s-2.54-5.67-5.67-5.67h-38.07Z"/>
  </g>
</svg>