<?xml version="1.0" encoding="UTF-8"?>
<svg id="Layer_1" xmlns="http://www.w3.org/2000/svg" version="1.1" viewBox="0 0 100 100">
  <!-- Generator: Adobe Illustrator 29.4.0, SVG Export Plug-In . SVG Version: 2.1.0 Build 152)  -->
  <defs>
    <style>
      .st0 {
        fill: #5d626e;
      }
    </style>
  </defs>
  <path class="st0" d="M75.6,6.3c2.3-.3,4.3.1,6.2,1.5s9.3,8.8,10.4,10.4c2.3,3.3,2,7.3-.5,10.4l-62,61.9c-6.2.9-14.1,3-20.4,3.3s-3.3-1.3-3.2-3.6c.3-6.1,2.5-12.9,2.8-19.1C29.1,49.9,50.5,29.5,71,8.6c1.3-1.1,2.8-2.1,4.5-2.3ZM76.3,11.7c-.9.2-5.8,5.1-5.7,5.5l12.4,12.2c1.5-1.9,6.1-4.5,5.2-7.2-1.8-1.8-9-10.2-10.7-10.5s-.8,0-1.2,0ZM12.3,87.7l14.6-2,51.7-51.7-.2-.9-11.7-11.6-.9.2L14.4,73.1l-2,14.6Z"/>
</svg>