<svg width="35" height="35" viewBox="0 0 35 35" fill="none" xmlns="http://www.w3.org/2000/svg">
<path d="M27.8223 8.75H12.6465C10.4945 8.75 8.75 10.4945 8.75 12.6465V27.8223C8.75 29.9742 10.4945 31.7188 12.6465 31.7188H27.8223C29.9742 31.7188 31.7188 29.9742 31.7188 27.8223V12.6465C31.7188 10.4945 29.9742 8.75 27.8223 8.75Z" stroke="#333333" stroke-opacity="0.8" stroke-width="2" stroke-linejoin="round"/>
<path d="M26.2158 8.75L26.25 7.10938C26.2471 6.09498 25.8429 5.12296 25.1256 4.40567C24.4083 3.68838 23.4363 3.28414 22.4219 3.28125H7.65625C6.49698 3.28468 5.38617 3.74671 4.56644 4.56644C3.74671 5.38617 3.28468 6.49698 3.28125 7.65625V22.4219C3.28414 23.4363 3.68838 24.4083 4.40567 25.1256C5.12296 25.8429 6.09498 26.2471 7.10938 26.25H8.75M20.2344 14.7656V25.7031M25.7031 20.2344H14.7656" stroke="#333333" stroke-opacity="0.8" stroke-width="2" stroke-linecap="round" stroke-linejoin="round"/>
</svg>
