<?xml version="1.0" encoding="UTF-8"?>
<svg id="Layer_1" data-name="Layer 1" xmlns="http://www.w3.org/2000/svg" viewBox="0 0 100 100">
  <defs>
    <style>
      .cls-1 {
        fill: #22c55e;
      }
    </style>
  </defs>
  <path class="cls-1" d="M11.29,94.54c-1.53,0-3.02-.6-4.13-1.71-1.48-1.48-2.06-3.64-1.5-5.66l5.83-21.39c.27-.98.79-1.87,1.5-2.59L65.51,10.67s0,0,0,0c1.57-1.57,3.41-2.8,5.46-3.65,4.11-1.7,8.78-1.7,12.89,0,2.06.85,3.9,2.08,5.47,3.65,1.57,1.57,2.8,3.41,3.65,5.46.85,2.05,1.28,4.22,1.28,6.44s-.43,4.39-1.28,6.45c-.85,2.05-2.07,3.89-3.65,5.46l-52.51,52.51c-.72.72-1.61,1.24-2.59,1.5l-21.39,5.83c-.51.14-1.02.21-1.54.21ZM22.35,70.34l-2.74,10.05,10.05-2.74,51.42-51.42c.48-.48.86-1.04,1.12-1.67.26-.64.4-1.3.4-1.98s-.13-1.34-.39-1.97c-.26-.64-.64-1.2-1.12-1.68-.48-.48-1.05-.86-1.68-1.12-1.26-.52-2.7-.52-3.96,0-.63.26-1.19.64-1.68,1.12l-51.42,51.42Z"/>
</svg>