<?xml version="1.0" encoding="UTF-8"?>
<svg id="Layer_1" data-name="Layer 1" xmlns="http://www.w3.org/2000/svg" viewBox="0 0 100 100">
  <defs>
    <style>
      .cls-1 {
        fill: #fff;
      }
    </style>
  </defs>
  <path class="cls-1" d="M46.6,3.18c2.06-1.36,4.75-1.36,6.8,0l3.33,2.19c1.12.73,2.43,1.08,3.76,1.01l3.98-.24c2.47-.15,4.78,1.2,5.89,3.4l1.79,3.57c.6,1.2,1.57,2.15,2.75,2.75l3.61,1.81c2.21,1.1,3.55,3.42,3.4,5.89l-.24,3.98c-.07,1.33.28,2.65,1.01,3.76l2.21,3.33c1.36,2.06,1.36,4.75,0,6.8l-2.21,3.34c-.73,1.12-1.08,2.43-1.01,3.76l.24,3.98c.15,2.47-1.2,4.78-3.4,5.89l-3.57,1.79c-1.2.6-2.15,1.57-2.75,2.75l-1.81,3.61c-1.1,2.21-3.42,3.55-5.89,3.4l-3.98-.24c-1.33-.07-2.65.28-3.76,1.01l-3.33,2.2c-2.06,1.36-4.75,1.36-6.8,0l-3.34-2.2c-1.12-.73-2.43-1.08-3.76-1.01l-3.98.24c-2.47.15-4.78-1.2-5.89-3.4l-1.79-3.57c-.6-1.2-1.57-2.15-2.75-2.75l-3.61-1.81c-2.2-1.1-3.55-3.42-3.4-5.89l.24-3.98c.07-1.33-.28-2.65-1.01-3.76l-2.19-3.34c-1.36-2.06-1.36-4.75,0-6.8l2.19-3.33c.73-1.12,1.08-2.43,1.01-3.76l-.24-3.98c-.15-2.47,1.2-4.78,3.4-5.89l3.57-1.79c1.2-.62,2.17-1.59,2.77-2.78l1.79-3.57c1.1-2.2,3.42-3.55,5.89-3.4l3.98.24c1.33.07,2.65-.28,3.76-1.01l3.34-2.19ZM64.95,38.03c0-3.96-1.57-7.77-4.38-10.57-2.8-2.8-6.61-4.38-10.57-4.38s-7.77,1.57-10.57,4.38c-2.8,2.8-4.38,6.61-4.38,10.57s1.57,7.77,4.38,10.57c2.8,2.8,6.61,4.38,10.57,4.38s7.77-1.57,10.57-4.38c2.8-2.8,4.38-6.61,4.38-10.57ZM14.36,84.71l8.05-19.15s.06.04.07.07l1.79,3.57c2.19,4.34,6.73,6.97,11.59,6.69l3.98-.24s.09,0,.13.04l3.33,2.2c.95.62,1.96,1.1,3.01,1.44l-7.03,16.69c-.43,1.03-1.38,1.72-2.49,1.81-1.1.09-2.17-.41-2.77-1.35l-6.02-9.21-10.48,1.55c-1.07.15-2.13-.28-2.8-1.12-.67-.84-.8-2-.39-2.99h.02ZM60.7,96l-7.03-16.67c1.05-.34,2.06-.8,3.01-1.44l3.33-2.2s.07-.04.13-.04l3.98.24c4.86.28,9.4-2.35,11.59-6.69l1.79-3.57s.04-.06.07-.07l8.07,19.15c.41.99.26,2.13-.39,2.99-.65.86-1.74,1.29-2.8,1.12l-10.48-1.55-6.02,9.19c-.6.93-1.66,1.44-2.77,1.35-1.1-.09-2.06-.8-2.49-1.81Z"/>
</svg>