<svg width="27" height="29" viewBox="0 0 27 29" fill="none" xmlns="http://www.w3.org/2000/svg">
<g clip-path="url(#clip0_2458_1587)">
<path d="M4.11207 5.48877C2.69505 5.48877 1.54297 6.78486 1.54297 8.37901V21.3851C1.54297 22.9793 2.69505 24.2753 4.11207 24.2753H11.1771L10.7476 25.7205H7.96573C7.25521 25.7205 6.68118 26.3663 6.68118 27.1656C6.68118 27.9649 7.25521 28.6107 7.96573 28.6107H18.2421C18.9527 28.6107 19.5267 27.9649 19.5267 27.1656C19.5267 26.3663 18.9527 25.7205 18.2421 25.7205H15.4603L15.0308 24.2753H22.0958C23.5128 24.2753 24.6649 22.9793 24.6649 21.3851V8.37901C24.6649 6.78486 23.5128 5.48877 22.0958 5.48877H4.11207ZM22.0958 8.37901V18.4949H4.11207V8.37901H22.0958Z" fill="#9CA3AF"/>
</g>
<defs>
<clipPath id="clip0_2458_1587">
<path d="M1.54297 5.48877H24.6649V28.6107H1.54297V5.48877Z" fill="white"/>
</clipPath>
</defs>
</svg>
