<?xml version="1.0" encoding="UTF-8"?>
<svg id="Layer_1" data-name="Layer 1" xmlns="http://www.w3.org/2000/svg" viewBox="0 0 100 100">
  <defs>
    <style>
      .cls-1 {
        fill: #fff;
      }
    </style>
  </defs>
  <path class="cls-1" d="M76.28,52.65c-.04-7.62,3.41-13.38,10.39-17.62-3.91-5.59-9.81-8.66-17.6-9.27-7.38-.58-15.44,4.3-18.39,4.3-3.12,0-10.26-4.09-15.87-4.09-11.59.19-23.91,9.25-23.91,27.67,0,5.44,1,11.07,2.99,16.87,2.66,7.63,12.26,26.32,22.27,26.01,5.24-.12,8.93-3.72,15.75-3.72s10.04,3.72,15.87,3.72c10.1-.15,18.78-17.14,21.32-24.79-13.55-6.38-12.82-18.7-12.82-19.09ZM64.52,18.53c5.67-6.73,5.15-12.86,4.99-15.06-5.01.29-10.8,3.41-14.11,7.25-3.64,4.11-5.78,9.2-5.32,14.94,5.42.42,10.37-2.37,14.44-7.13Z"/>
</svg>