<svg width="27" height="29" viewBox="0 0 27 29" fill="none" xmlns="http://www.w3.org/2000/svg">
<g clip-path="url(#clip0_2458_1590)">
<path d="M16.083 5.61084C15.2837 5.61084 14.6379 6.25663 14.6379 7.05596C14.6379 7.85529 15.2837 8.50108 16.083 8.50108H19.8178L10.7271 17.5963C10.1626 18.1608 10.1626 19.0776 10.7271 19.6421C11.2916 20.2066 12.2083 20.2066 12.7728 19.6421L21.8635 10.5468V14.2816C21.8635 15.0809 22.5093 15.7267 23.3087 15.7267C24.108 15.7267 24.7538 15.0809 24.7538 14.2816V7.05596C24.7538 6.25663 24.108 5.61084 23.3087 5.61084H16.083ZM5.24464 7.05596C3.24857 7.05596 1.63184 8.67269 1.63184 10.6688V25.12C1.63184 27.116 3.24857 28.7328 5.24464 28.7328H19.6959C21.6919 28.7328 23.3087 27.116 23.3087 25.12V20.0621C23.3087 19.2627 22.6629 18.6169 21.8635 18.6169C21.0642 18.6169 20.4184 19.2627 20.4184 20.0621V25.12C20.4184 25.5174 20.0933 25.8425 19.6959 25.8425H5.24464C4.84723 25.8425 4.52208 25.5174 4.52208 25.12V10.6688C4.52208 10.2714 4.84723 9.9462 5.24464 9.9462H10.3026C11.1019 9.9462 11.7477 9.30041 11.7477 8.50108C11.7477 7.70175 11.1019 7.05596 10.3026 7.05596H5.24464Z" fill="#9CA3AF"/>
</g>
<defs>
<clipPath id="clip0_2458_1590">
<path d="M1.63184 5.61084H24.7538V28.7328H1.63184V5.61084Z" fill="white"/>
</clipPath>
</defs>
</svg>
