<?xml version="1.0" encoding="UTF-8"?>
<svg id="Layer_1" data-name="Layer 1" xmlns="http://www.w3.org/2000/svg" viewBox="0 0 100 100">
  <defs>
    <style>
      .cls-1 {
        fill: #fff;
      }
    </style>
  </defs>
  <path class="cls-1" d="M53.52,24.84c1.91-1.17,3.19-3.3,3.19-5.7,0-3.71-3-6.71-6.71-6.71s-6.71,3-6.71,6.71c0,2.41,1.27,4.53,3.19,5.7l-9.61,19.22c-1.53,3.05-5.48,3.92-8.15,1.79l-14.94-11.96c.84-1.12,1.34-2.52,1.34-4.02,0-3.71-3-6.71-6.71-6.71s-6.71,3-6.71,6.71,3,6.71,6.71,6.71h.12l7.66,42.16c.92,5.1,5.37,8.82,10.57,8.82h46.49c5.18,0,9.63-3.71,10.56-8.82l7.66-42.16h.12c3.71,0,6.71-3,6.71-6.71s-3-6.71-6.71-6.71-6.71,3-6.71,6.71c0,1.51.5,2.9,1.34,4.02l-14.94,11.96c-2.67,2.13-6.62,1.26-8.15-1.79l-9.61-19.22Z"/>
</svg>