<?xml version="1.0" encoding="UTF-8"?>
<svg id="Layer_1" data-name="Layer 1" xmlns="http://www.w3.org/2000/svg" viewBox="0 0 100 100">
  <defs>
    <style>
      .cls-1 {
        fill: #3b82f6;
      }
    </style>
  </defs>
  <path class="cls-1" d="M65.7,50l25.46-25.46c4.34-4.34,4.34-11.36,0-15.7s-11.36-4.34-15.7,0l-25.46,25.46L24.54,8.84c-4.34-4.34-11.36-4.34-15.7,0s-4.34,11.36,0,15.7l25.46,25.46-25.46,25.46c-4.34,4.34-4.34,11.36,0,15.7,2.17,2.17,5.01,3.25,7.85,3.25s5.68-1.08,7.85-3.25l25.46-25.46,25.46,25.46c2.17,2.17,5.01,3.25,7.85,3.25s5.68-1.08,7.85-3.25c4.34-4.34,4.34-11.36,0-15.7l-25.46-25.46Z"/>
</svg>