<svg width="33" height="33" viewBox="0 0 33 33" fill="none" xmlns="http://www.w3.org/2000/svg">
<g clip-path="url(#clip0_2420_1658)">
<g clip-path="url(#clip1_2420_1658)">
<path d="M5.46415 6.28467C4.10373 6.28467 3 7.3884 3 8.74882C3 9.524 3.36449 10.253 3.98566 10.7201L15.1565 19.0982C15.7417 19.5346 16.5426 19.5346 17.1278 19.0982L28.2986 10.7201C28.9198 10.253 29.2843 9.524 29.2843 8.74882C29.2843 7.3884 28.1805 6.28467 26.8201 6.28467H5.46415ZM3 12.0344V22.7123C3 24.5245 4.47336 25.9979 6.28553 25.9979H25.9987C27.8109 25.9979 29.2843 24.5245 29.2843 22.7123V12.0344L18.1135 20.4125C16.943 21.2903 15.3413 21.2903 14.1708 20.4125L3 12.0344Z" fill="#004E61"/>
</g>
</g>
<defs>
<clipPath id="clip0_2420_1658">
<rect width="26.2843" height="26.2843" fill="white" transform="translate(3 3)"/>
</clipPath>
<clipPath id="clip1_2420_1658">
<path d="M3 3H29.2843V29.2843H3V3Z" fill="white"/>
</clipPath>
</defs>
</svg>
