<?xml version="1.0" encoding="UTF-8"?>
<svg id="Layer_1" data-name="Layer 1" xmlns="http://www.w3.org/2000/svg" viewBox="0 0 100 100">
  <defs>
    <style>
      .cls-1 {
        fill: #316f7f;
      }
    </style>
  </defs>
  <path class="cls-1" d="M38.21,62.64c.16,1.7-.53,3.79.74,5.15.68.72,9.94,5.55,10.87,5.59.62.03.96-.14,1.5-.31.99-.31,9.18-4.72,9.71-5.28,1.27-1.36.58-3.45.74-5.15h25.88c2.19,0,6.21-2.27,8.03-3.57v30.16c0,1.54-2.96,3-4.45,2.69H8.39c-1.4.22-4.09-1.29-4.09-2.69v-30.16c1.82,1.3,5.84,3.57,8.03,3.57h25.88Z"/>
  <path class="cls-1" d="M61.77,56.93v-5.53c0-1.18-2-1.89-3.02-1.98-5.77-.52-12.34.41-18.2.04-.76-.09-2.34,1.38-2.34,1.94v5.53H11.98c-.12,0-1.95-.76-2.29-.93-2.6-1.26-4.88-4.31-5.29-7.2-.46-3.2-.56-14.99-.07-18.09.18-1.16,1.08-2.06,2.1-2.54h87.14c1.01.48,1.92,1.36,2.1,2.54.51,3.21.38,14.42-.02,17.79-.36,3.01-2.64,6.19-5.35,7.5-.33.16-2.16.93-2.29.93h-26.24Z"/>
  <path class="cls-1" d="M68.91,22.31h-5.71c-.27-2.07-.23-5.33-.79-7.24-.1-.35-.32-.61-.64-.79l-23.31-.1c-.44.15-.76.45-.89.9-.56,1.91-.52,5.17-.79,7.24h-5.71c.98-6.38.07-13.32,8.37-13.94,5.73-.42,15.76-.48,21.45,0,7.88.68,7.11,7.92,8.02,13.93Z"/>
  <path class="cls-1" d="M56.42,55.15v8.75c-1.27.84-4.93,3.3-6.27,3.39s-5.35-2.53-6.58-3.39v-8.75h12.85Z"/>
</svg>