<?xml version="1.0" encoding="UTF-8"?>
<svg id="Layer_1" data-name="Layer 1" xmlns="http://www.w3.org/2000/svg" viewBox="0 0 100 100">
  <defs>
    <style>
      .cls-1 {
        fill: #e1306c;
      }
    </style>
  </defs>
  <path class="cls-1" d="M50.01,25.74c-13.43,0-24.26,10.83-24.26,24.26s10.83,24.26,24.26,24.26,24.26-10.83,24.26-24.26-10.83-24.26-24.26-24.26ZM50.01,65.77c-8.68,0-15.77-7.07-15.77-15.77s7.07-15.77,15.77-15.77,15.77,7.07,15.77,15.77-7.1,15.77-15.77,15.77ZM80.93,24.74c0,3.15-2.53,5.66-5.66,5.66s-5.66-2.53-5.66-5.66,2.53-5.66,5.66-5.66,5.66,2.53,5.66,5.66ZM97,30.49c-.36-7.58-2.09-14.3-7.64-19.83-5.53-5.53-12.25-7.26-19.83-7.64-7.81-.44-31.23-.44-39.05,0-7.56.36-14.28,2.09-19.83,7.62-5.55,5.53-7.26,12.25-7.64,19.83-.44,7.81-.44,31.23,0,39.05.36,7.58,2.09,14.3,7.64,19.83,5.55,5.53,12.25,7.26,19.83,7.64,7.81.44,31.23.44,39.05,0,7.58-.36,14.3-2.09,19.83-7.64,5.53-5.53,7.26-12.25,7.64-19.83.44-7.81.44-31.21,0-39.02ZM86.9,77.9c-1.65,4.14-4.84,7.33-9,9-6.23,2.47-21.01,1.9-27.9,1.9s-21.69.55-27.9-1.9c-4.14-1.65-7.33-4.84-9-9-2.47-6.23-1.9-21.01-1.9-27.9s-.55-21.69,1.9-27.9c1.65-4.14,4.84-7.33,9-9,6.23-2.47,21.01-1.9,27.9-1.9s21.69-.55,27.9,1.9c4.14,1.65,7.33,4.84,9,9,2.47,6.23,1.9,21.01,1.9,27.9s.57,21.69-1.9,27.9Z"/>
</svg>