<svg width="33" height="33" viewBox="0 0 33 33" fill="none" xmlns="http://www.w3.org/2000/svg">
<g clip-path="url(#clip0_2420_1662)">
<g clip-path="url(#clip1_2420_1662)">
<path d="M15.6277 5.05599C15.8639 5.15326 16.0307 5.36633 16.0724 5.61646L16.7255 9.53975L20.6488 10.1929C20.8989 10.2345 21.112 10.4013 21.2092 10.6375C21.3065 10.8738 21.2787 11.1424 21.1351 11.3509L19.3518 13.8984C19.2499 13.8938 19.148 13.8892 19.0415 13.8892C17.9622 13.8892 16.9524 14.1764 16.077 14.6812V14.6303C16.077 12.1753 14.0852 10.1836 11.6303 10.1836C9.17534 10.1836 7.18359 12.1753 7.18359 14.6303C7.18359 17.0852 9.17534 19.077 11.6303 19.077C12.0055 19.077 12.3668 19.0307 12.7142 18.9427C11.0189 19.7811 9.78213 21.4022 9.48106 23.3384L8.35085 24.1258C8.14241 24.2741 7.87376 24.3019 7.63753 24.2C7.4013 24.0981 7.23455 23.8896 7.19286 23.6395L6.54438 19.7255L2.62109 19.0724C2.37097 19.0307 2.1579 18.8639 2.06062 18.6277C1.96335 18.3915 1.99114 18.1228 2.13474 17.9144L4.4322 14.6349L2.13474 11.3555C1.98651 11.147 1.95872 10.8784 2.06062 10.6422C2.16253 10.4059 2.37097 10.2392 2.62109 10.1975L6.54438 9.54438L7.19749 5.62109C7.23918 5.37097 7.40593 5.1579 7.64216 5.06062C7.87839 4.96335 8.14705 4.99114 8.35548 5.13474L11.6349 7.4322L14.9144 5.13474C15.1228 4.98651 15.3915 4.95872 15.6277 5.06062V5.05599ZM8.67046 14.6349C8.67046 13.8487 8.98279 13.0947 9.53873 12.5387C10.0947 11.9828 10.8487 11.6705 11.6349 11.6705C12.4212 11.6705 13.1752 11.9828 13.7311 12.5387C14.2871 13.0947 14.5994 13.8487 14.5994 14.6349C14.5994 15.4212 14.2871 16.1752 13.7311 16.7311C13.1752 17.2871 12.4212 17.5994 11.6349 17.5994C10.8487 17.5994 10.0947 17.2871 9.53873 16.7311C8.98279 16.1752 8.67046 15.4212 8.67046 14.6349ZM31.6404 25.0059C31.6404 27.0533 29.9822 28.7115 27.9349 28.7115H15.3405C12.8856 28.7115 10.8938 26.7198 10.8938 24.2648C10.8938 22.06 12.4965 20.235 14.5994 19.883V19.8227C14.5994 17.3678 16.5911 15.376 19.0461 15.376C20.6627 15.376 22.0754 16.2376 22.8536 17.5253C23.4557 17.1038 24.1876 16.8583 24.975 16.8583C27.0224 16.8583 28.6806 18.5165 28.6806 20.5639C28.6806 20.8371 28.6528 21.1058 28.5926 21.3606C30.325 21.6709 31.6404 23.1856 31.6404 25.0059Z" fill="#004E61"/>
</g>
</g>
<defs>
<clipPath id="clip0_2420_1662">
<rect width="29.6447" height="23.7157" fill="white" transform="translate(2 5)"/>
</clipPath>
<clipPath id="clip1_2420_1662">
<path d="M2 5H31.6447V28.7157H2V5Z" fill="white"/>
</clipPath>
</defs>
</svg>
