<?xml version="1.0" encoding="UTF-8"?>
<svg id="Layer_1" data-name="Layer 1" xmlns="http://www.w3.org/2000/svg" viewBox="0 0 100 100">
  <defs>
    <style>
      .cls-1 {
        fill: #333;
        fill-rule: evenodd;
      }
    </style>
  </defs>
  <path class="cls-1" d="M24.61,6.15c1.01,0,1.98.4,2.69,1.12.71.71,1.12,1.68,1.12,2.69v8.47c14.36-1.28,28.81-1.28,43.17,0v-8.47c0-1.01.4-1.98,1.12-2.69.71-.71,1.68-1.12,2.69-1.12s1.98.4,2.69,1.12c.71.71,1.12,1.68,1.12,2.69v9.22c3.7.53,7.14,2.25,9.77,4.91,2.63,2.66,4.33,6.11,4.82,9.82l.44,3.32c1.85,13.95,1.69,28.08-.48,41.99-.52,3.35-2.14,6.43-4.6,8.75-2.46,2.33-5.63,3.77-9,4.11l-6.06.6c-16.02,1.58-32.16,1.58-48.19,0l-6.06-.6c-3.37-.33-6.54-1.78-9-4.11-2.46-2.33-4.08-5.41-4.6-8.75-2.16-13.9-2.32-28.04-.48-41.99l.44-3.32c.49-3.71,2.18-7.16,4.82-9.82,2.63-2.66,6.06-4.38,9.77-4.91v-9.22c0-1.01.4-1.98,1.12-2.69.71-.71,1.68-1.12,2.69-1.12ZM26.87,26.22c15.39-1.52,30.88-1.52,46.27,0l4.6.46c4.4.43,7.92,3.84,8.51,8.22l.44,3.32c.15,1.16.29,2.32.42,3.48H12.91c.13-1.16.26-2.32.42-3.48l.44-3.32c.28-2.13,1.28-4.1,2.82-5.6,1.54-1.49,3.55-2.42,5.69-2.63l4.6-.45ZM12.3,49.32c-.5,9.6,0,19.22,1.47,28.72.26,1.68,1.07,3.22,2.31,4.39,1.23,1.17,2.82,1.89,4.51,2.06l6.06.6c15.53,1.53,31.17,1.53,46.69,0l6.06-.6c1.69-.17,3.28-.89,4.51-2.06,1.23-1.17,2.05-2.71,2.31-4.39,1.48-9.51,1.97-19.13,1.47-28.72H12.3Z"/>
</svg>