<?xml version="1.0" encoding="UTF-8"?>
<svg id="Layer_1" data-name="Layer 1" xmlns="http://www.w3.org/2000/svg" xmlns:xlink="http://www.w3.org/1999/xlink" viewBox="0 0 100 100">
  <defs>
    <style>
      .cls-1 {
        fill: #daffe0;
      }

      .cls-2 {
        fill: none;
      }

      .cls-3 {
        fill: #2e913e;
      }

      .cls-4 {
        clip-path: url(#clippath);
      }
    </style>
    <clipPath id="clippath">
      <rect class="cls-2" x="28" y="28" width="48" height="48"/>
    </clipPath>
  </defs>
  <path class="cls-1" d="M50,0c27.61,0,50,22.39,50,50s-22.39,50-50,50S0,77.61,0,50,22.39,0,50,0Z"/>
  <g class="cls-4">
    <path class="cls-3" d="M34,34c0-1.66-1.34-3-3-3s-3,1.34-3,3v31.5c0,4.14,3.36,7.5,7.5,7.5h37.5c1.66,0,3-1.34,3-3s-1.34-3-3-3h-37.5c-.83,0-1.5-.67-1.5-1.5v-31.5ZM72.12,42.12c1.17-1.17,1.17-3.08,0-4.25-1.17-1.17-3.08-1.17-4.25,0l-9.87,9.88-5.38-5.38c-1.17-1.17-3.08-1.17-4.25,0l-10.5,10.5c-1.17,1.17-1.17,3.07,0,4.25,1.17,1.17,3.07,1.17,4.25,0l8.38-8.37,5.38,5.38c1.17,1.17,3.08,1.17,4.25,0l12-12h0Z"/>
  </g>
</svg>