<?xml version="1.0" encoding="UTF-8"?>
<svg id="Layer_1" data-name="Layer 1" xmlns="http://www.w3.org/2000/svg" viewBox="0 0 100 100">
  <defs>
    <style>
      .cls-1 {
        fill: #5d626e;
      }
    </style>
  </defs>
  <path class="cls-1" d="M45.93,67.51c.56.56,1.21.99,1.9,1.27.67.27,1.4.42,2.17.42s1.56-.16,2.25-.45c.66-.28,1.28-.69,1.82-1.23l22.39-22.39c2.25-2.25,2.25-5.89,0-8.14s-5.89-2.25-8.14,0l-12.56,12.56V9.69c0-3.18-2.58-5.76-5.76-5.76s-5.76,2.58-5.76,5.76v39.85l-12.57-12.56c-2.25-2.25-5.89-2.25-8.14,0s-2.25,5.89,0,8.14l22.4,22.39Z"/>
  <path class="cls-1" d="M90.31,57.68c-3.18,0-5.76,2.58-5.76,5.76v17.92c0,.85-.34,1.66-.94,2.26s-1.41.93-2.26.93H18.64c-.84,0-1.66-.34-2.25-.93-.61-.61-.94-1.41-.94-2.27v-17.92c0-3.18-2.58-5.76-5.76-5.76s-5.76,2.58-5.76,5.76v17.92c0,3.93,1.53,7.62,4.31,10.41,2.74,2.74,6.53,4.31,10.4,4.31h62.71c3.94,0,7.63-1.53,10.42-4.31,2.77-2.78,4.3-6.48,4.3-10.4v-17.92c0-3.18-2.58-5.76-5.76-5.76Z"/>
</svg>