<?xml version="1.0" encoding="UTF-8"?>
<svg id="Layer_1" data-name="Layer 1" xmlns="http://www.w3.org/2000/svg" viewBox="0 0 100 100">
  <defs>
    <style>
      .cls-1 {
        fill: #0ea5e9;
      }
    </style>
  </defs>
  <path class="cls-1" d="M91.93,50v33.54c0,2.22-.88,4.36-2.46,5.93-1.57,1.57-3.71,2.46-5.93,2.46H16.45c-2.22,0-4.36-.88-5.93-2.46-1.57-1.57-2.46-3.71-2.46-5.93v-33.54c-1.11,0-2.18-.44-2.97-1.23-.79-.79-1.23-1.85-1.23-2.97v-12.58c0-2.22.88-4.36,2.46-5.93,1.57-1.57,3.71-2.46,5.93-2.46h13.29c-.47-1.35-.71-2.77-.71-4.19,0-3.34,1.33-6.54,3.68-8.89,2.36-2.36,5.56-3.68,8.9-3.68,4.19,0,7.88,2.1,10.19,5.2v-.04l2.39,3.23,2.39-3.23v.04c2.31-3.1,6-5.2,10.19-5.2,3.34,0,6.54,1.33,8.89,3.68,2.36,2.36,3.68,5.56,3.68,8.89,0,1.43-.24,2.85-.71,4.19h13.29c2.22,0,4.36.88,5.93,2.46,1.57,1.57,2.46,3.71,2.46,5.93v12.58c0,1.11-.44,2.18-1.23,2.97s-1.85,1.23-2.97,1.23ZM16.45,83.54h29.35v-33.54h-29.35v33.54ZM83.54,83.54v-33.54h-29.35v33.54h29.35ZM37.42,16.46c-1.11,0-2.18.44-2.97,1.23-.79.79-1.23,1.85-1.23,2.96s.44,2.18,1.23,2.97c.79.79,1.85,1.23,2.97,1.23s2.18-.44,2.96-1.23c.79-.79,1.23-1.85,1.23-2.97s-.44-2.18-1.23-2.96-1.85-1.23-2.96-1.23ZM62.58,16.46c-1.11,0-2.18.44-2.97,1.23-.79.79-1.23,1.85-1.23,2.96s.44,2.18,1.23,2.97c.79.79,1.85,1.23,2.97,1.23s2.18-.44,2.96-1.23c.79-.79,1.23-1.85,1.23-2.97s-.44-2.18-1.23-2.96c-.79-.79-1.85-1.23-2.96-1.23ZM12.26,33.23v8.39h33.54v-8.39H12.26ZM54.19,33.23v8.39h33.55v-8.39h-33.55Z"/>
</svg>