<?xml version="1.0" encoding="UTF-8"?>
<svg id="Layer_1" data-name="Layer 1" xmlns="http://www.w3.org/2000/svg" viewBox="0 0 100 100">
  <defs>
    <style>
      .cls-1 {
        fill: #383838;
      }
    </style>
  </defs>
  <path class="cls-1" d="M17.04,9.98h47.08c2.26,0,3.57.92,5,3.5.64,1.14,2.08,1.53,3.2.92,1.14-.63,1.54-2.06.92-3.2-1.53-2.75-3.95-5.92-9.12-5.92H17.04c-6.49,0-11.77,5.28-11.77,11.77v47.08c0,2.07.55,4.11,1.6,5.92,1.05,1.8,2.55,3.29,4.35,4.3.36.21.76.31,1.16.31.82,0,1.61-.43,2.05-1.2.64-1.13.24-2.57-.89-3.2-1.08-.61-1.98-1.5-2.6-2.58-.63-1.09-.97-2.31-.97-3.55V17.04c0-3.89,3.17-7.06,7.06-7.06Z"/>
  <path class="cls-1" d="M93.59,33.31c-.75-1.83-1.84-3.46-3.23-4.84-1.39-1.4-3.02-2.49-4.84-3.24-1.81-.75-3.73-1.14-5.71-1.14h-40.8c-3.93,0-7.77,1.59-10.54,4.37s-4.37,6.56-4.37,10.54v40.8c0,1.96.38,3.89,1.14,5.71.75,1.82,1.84,3.44,3.24,4.84,1.4,1.39,3.03,2.48,4.83,3.23,1.82.75,3.74,1.14,5.71,1.14h40.8c1.96,0,3.89-.38,5.7-1.14,1.82-.75,3.44-1.83,4.84-3.23s2.48-3.02,3.23-4.84c.75-1.82,1.14-3.74,1.14-5.71v-40.8c0-1.96-.38-3.89-1.14-5.7ZM90.02,79.82c0,1.34-.26,2.66-.78,3.9s-1.26,2.36-2.21,3.31-2.07,1.7-3.31,2.21c-1.25.51-2.56.78-3.9.78h-40.8c-1.34,0-2.66-.26-3.9-.78-1.24-.51-2.35-1.26-3.31-2.21s-1.7-2.06-2.21-3.31-.78-2.56-.78-3.9v-40.8c0-2.73,1.06-5.29,2.99-7.21,1.9-1.9,4.53-2.99,7.21-2.99h40.8c1.35,0,2.67.26,3.91.78,1.25.51,2.35,1.26,3.31,2.22.95.95,1.69,2.06,2.21,3.31.51,1.25.78,2.56.78,3.9v40.8Z"/>
</svg>