<?xml version="1.0" encoding="UTF-8"?>
<svg id="Layer_1" data-name="Layer 1" xmlns="http://www.w3.org/2000/svg" viewBox="0 0 100 100">
  <defs>
    <style>
      .cls-1 {
        fill: #316f7f;
      }
    </style>
  </defs>
  <path class="cls-1" d="M61.84,35.01h22.82c2.73,0,7.28,4.87,7.32,7.76-1.03,15.88,1.48,33.74.05,49.39-.1,1.09-.19,1.92-1.16,2.61l-52.15.5c-.34-.1-.68-.36-.83-.68-1.05-2.17.47-11.88-.27-15.19-.65-2.91-5.17-3.06-5.87.38-.8,3.96.46,9.76-.07,13.88-.08.64-.14,1.14-.77,1.49-6.43-.11-13.86.78-20.2.2-1.46-.13-2.41-.43-3.02-1.88l-.18-80.17c.29-4.23,3.92-8.02,8.12-8.47,11.87-1.28,25.98.97,38.09,0,3.03-.13,8.11,4.53,8.11,7.36v22.82ZM22.67,19.93c0-1.7-1.37-3.07-3.07-3.07s-3.07,1.37-3.07,3.07,1.37,3.07,3.07,3.07,3.07-1.37,3.07-3.07ZM37.76,19.93c0-1.7-1.37-3.07-3.07-3.07s-3.07,1.37-3.07,3.07,1.37,3.07,3.07,3.07,3.07-1.37,3.07-3.07ZM52.84,19.93c0-1.7-1.37-3.07-3.07-3.07s-3.07,1.37-3.07,3.07,1.37,3.07,3.07,3.07,3.07-1.37,3.07-3.07ZM22.67,35.01c0-1.7-1.37-3.07-3.07-3.07s-3.07,1.37-3.07,3.07,1.37,3.07,3.07,3.07,3.07-1.37,3.07-3.07ZM37.76,35.01c0-1.7-1.37-3.07-3.07-3.07s-3.07,1.37-3.07,3.07,1.37,3.07,3.07,3.07,3.07-1.37,3.07-3.07ZM52.84,35.01c0-1.7-1.37-3.07-3.07-3.07s-3.07,1.37-3.07,3.07,1.37,3.07,3.07,3.07,3.07-1.37,3.07-3.07ZM61.84,89.32h23.57l.57-.57v-45.63c0-.44-1.63-2.07-2.07-2.07h-22.06v7.92c.75-.32.59-1.16,1.6-1.6,5.78-2.54,5.78,8,0,5.46-1.01-.44-.86-1.28-1.6-1.6v12.82c.75-.32.59-1.16,1.6-1.6,5.78-2.54,5.78,8,0,5.46-1.01-.44-.86-1.28-1.6-1.6v12.82c.75-.32.59-1.16,1.6-1.6,5.78-2.54,5.78,8,0,5.46-1.01-.44-.86-1.28-1.6-1.6v7.92ZM22.67,50.1c0-1.7-1.37-3.07-3.07-3.07s-3.07,1.37-3.07,3.07,1.37,3.07,3.07,3.07,3.07-1.37,3.07-3.07ZM37.76,50.1c0-1.7-1.37-3.07-3.07-3.07s-3.07,1.37-3.07,3.07,1.37,3.07,3.07,3.07,3.07-1.37,3.07-3.07ZM52.84,50.1c0-1.7-1.37-3.07-3.07-3.07s-3.07,1.37-3.07,3.07,1.37,3.07,3.07,3.07,3.07-1.37,3.07-3.07ZM22.67,65.18c0-1.7-1.37-3.07-3.07-3.07s-3.07,1.37-3.07,3.07,1.37,3.07,3.07,3.07,3.07-1.37,3.07-3.07ZM37.76,65.18c0-1.7-1.37-3.07-3.07-3.07s-3.07,1.37-3.07,3.07,1.37,3.07,3.07,3.07,3.07-1.37,3.07-3.07ZM52.84,65.18c0-1.7-1.37-3.07-3.07-3.07s-3.07,1.37-3.07,3.07,1.37,3.07,3.07,3.07,3.07-1.37,3.07-3.07ZM22.67,80.27c0-1.7-1.37-3.07-3.07-3.07s-3.07,1.37-3.07,3.07,1.37,3.07,3.07,3.07,3.07-1.37,3.07-3.07ZM52.84,80.27c0-1.7-1.37-3.07-3.07-3.07s-3.07,1.37-3.07,3.07,1.37,3.07,3.07,3.07,3.07-1.37,3.07-3.07Z"/>
  <circle class="cls-1" cx="76.92" cy="50.1" r="3.07"/>
  <circle class="cls-1" cx="76.92" cy="65.18" r="3.07"/>
  <circle class="cls-1" cx="76.92" cy="80.27" r="3.07"/>
</svg>