<?xml version="1.0" encoding="UTF-8"?>
<svg id="Layer_1" data-name="Layer 1" xmlns="http://www.w3.org/2000/svg" xmlns:xlink="http://www.w3.org/1999/xlink" viewBox="0 0 100 100">
  <defs>
    <style>
      .cls-1 {
        fill: none;
      }

      .cls-2 {
        fill: #ca8a04;
      }

      .cls-3 {
        clip-path: url(#clippath);
      }
    </style>
    <clipPath id="clippath">
      <rect class="cls-1" x="3.47" y="3.47" width="93.06" height="93.06"/>
    </clipPath>
  </defs>
  <g class="cls-3">
    <path class="cls-2" d="M50,3.47c12.34,0,24.18,4.9,32.9,13.63,8.73,8.73,13.63,20.56,13.63,32.9s-4.9,24.18-13.63,32.9c-8.73,8.73-20.56,13.63-32.9,13.63s-24.18-4.9-32.9-13.63c-8.73-8.73-13.63-20.56-13.63-32.9s4.9-24.18,13.63-32.9C25.82,8.37,37.66,3.47,50,3.47ZM45.64,25.28v24.72c0,1.45.73,2.82,1.94,3.64l17.45,11.63c2,1.34,4.71.8,6.05-1.22,1.34-2.02.8-4.71-1.22-6.05l-15.5-10.32v-22.39c0-2.42-1.94-4.36-4.36-4.36s-4.36,1.94-4.36,4.36Z"/>
  </g>
</svg>