<svg width="35" height="35" viewBox="0 0 35 35" fill="none" xmlns="http://www.w3.org/2000/svg">
<path d="M28.4375 13.125H19.6875V4.375H6.5625V30.625H28.4375V13.125ZM27.5319 10.9375L21.875 5.28063V10.9375H27.5319ZM5.46875 2.1875H21.875L30.625 10.9375V31.7188C30.625 32.0088 30.5098 32.287 30.3046 32.4921C30.0995 32.6973 29.8213 32.8125 29.5312 32.8125H5.46875C5.17867 32.8125 4.90047 32.6973 4.69535 32.4921C4.49023 32.287 4.375 32.0088 4.375 31.7188V3.28125C4.375 2.99117 4.49023 2.71297 4.69535 2.50785C4.90047 2.30273 5.17867 2.1875 5.46875 2.1875ZM10.9375 17.5H24.0625V19.6875H10.9375V17.5ZM10.9375 10.9375H16.4062V13.125H10.9375V10.9375ZM10.9375 24.0625H24.0625V26.25H10.9375V24.0625Z" fill="#333333" fill-opacity="0.8"/>
</svg>
