<?xml version="1.0" encoding="UTF-8"?>
<svg id="Layer_1" data-name="Layer 1" xmlns="http://www.w3.org/2000/svg" viewBox="0 0 100 100">
  <defs>
    <style>
      .cls-1, .cls-2 {
        fill: #6b7280;
      }

      .cls-2 {
        fill-rule: evenodd;
      }
    </style>
  </defs>
  <path class="cls-1" d="M54.11,22.63c0-1.09-.43-2.13-1.2-2.9-.77-.77-1.81-1.2-2.9-1.2s-2.13.43-2.9,1.2c-.77.77-1.2,1.81-1.2,2.9v27.37c0,.7.18,1.38.51,1.99.34.61.82,1.12,1.41,1.49l16.42,10.26c.92.58,2.04.77,3.1.52.53-.12,1.02-.34,1.46-.66.44-.31.81-.71,1.1-1.17.29-.46.48-.97.57-1.5.09-.53.07-1.08-.05-1.6-.12-.53-.34-1.02-.66-1.46-.31-.44-.71-.81-1.17-1.1l-14.49-9.06v-25.09Z"/>
  <path class="cls-2" d="M50,2.11c-12.7,0-24.88,5.05-33.86,14.03C7.16,25.12,2.11,37.3,2.11,50s5.05,24.88,14.03,33.86c8.98,8.98,21.16,14.03,33.86,14.03s24.88-5.05,33.86-14.03c8.98-8.98,14.03-21.16,14.03-33.86s-5.05-24.88-14.03-33.86C74.88,7.16,62.7,2.11,50,2.11ZM10.32,50c0-5.21,1.03-10.37,3.02-15.18,1.99-4.81,4.92-9.19,8.6-12.87,3.68-3.68,8.06-6.61,12.87-8.6,4.81-1.99,9.97-3.02,15.19-3.02s10.37,1.03,15.18,3.02c4.81,1.99,9.19,4.92,12.87,8.6,3.68,3.68,6.61,8.06,8.6,12.87,1.99,4.81,3.02,9.97,3.02,15.18,0,10.52-4.18,20.62-11.62,28.06-7.44,7.44-17.53,11.62-28.06,11.62s-20.62-4.18-28.06-11.62c-7.44-7.44-11.62-17.53-11.62-28.06Z"/>
</svg>