<?xml version="1.0" encoding="UTF-8"?>
<svg id="Layer_1" data-name="Layer 1" xmlns="http://www.w3.org/2000/svg" viewBox="0 0 100 100">
  <defs>
    <style>
      .cls-1 {
        fill: #3b82f6;
      }
    </style>
  </defs>
  <path class="cls-1" d="M64.58,73.33c1.75-5.81,5.38-10.77,8.97-15.71.95-1.29,1.9-2.59,2.81-3.9,3.61-5.19,5.72-11.48,5.72-18.28,0-17.74-14.36-32.1-32.08-32.1S17.92,17.7,17.92,35.42c0,6.8,2.11,13.11,5.72,18.28.91,1.31,1.86,2.61,2.81,3.9,3.61,4.94,7.24,9.92,8.97,15.71h29.16v.02ZM50,96.66c8.06,0,14.58-6.53,14.58-14.58v-2.92h-29.16v2.92c0,8.06,6.53,14.58,14.58,14.58ZM35.42,35.42c0,1.6-1.31,2.92-2.92,2.92s-2.92-1.31-2.92-2.92c0-11.28,9.13-20.42,20.42-20.42,1.6,0,2.92,1.31,2.92,2.92s-1.31,2.92-2.92,2.92c-8.06,0-14.58,6.53-14.58,14.58Z"/>
</svg>