<?xml version="1.0" encoding="UTF-8"?>
<svg id="Layer_1" data-name="Layer 1" xmlns="http://www.w3.org/2000/svg" xmlns:xlink="http://www.w3.org/1999/xlink" viewBox="0 0 100 100">
  <defs>
    <style>
      .cls-1 {
        fill: none;
      }

      .cls-2 {
        fill: #6b7280;
      }

      .cls-3 {
        clip-path: url(#clippath);
      }
    </style>
    <clipPath id="clippath">
      <rect class="cls-1" x="5.09" y="5.09" width="89.83" height="89.83"/>
    </clipPath>
  </defs>
  <g class="cls-3">
    <g>
      <path class="cls-2" d="M50,91.92c-23.11,0-41.92-18.81-41.92-41.92S26.89,8.08,50,8.08s41.92,18.8,41.92,41.92-18.8,41.92-41.92,41.92ZM50,17.06c-18.16,0-32.94,14.77-32.94,32.93s14.78,32.94,32.94,32.94,32.93-14.77,32.93-32.94-14.78-32.93-32.93-32.93Z"/>
      <path class="cls-2" d="M50,69.46c-11.47,0-18.28-8.91-18.57-9.28-1.49-1.98-1.09-4.8.9-6.29,1.97-1.48,4.77-1.09,6.27.88.11.15,4.54,5.71,11.39,5.71s11.35-5.66,11.39-5.72c1.51-1.95,4.32-2.34,6.29-.84,1.96,1.5,2.36,4.28.88,6.26-.29.38-7.09,9.28-18.56,9.28Z"/>
      <path class="cls-2" d="M38.81,43.26c-2.48,0-4.51-2.01-4.51-4.49s1.99-4.49,4.47-4.49h.04c2.48,0,4.49,2.01,4.49,4.49s-2.01,4.49-4.49,4.49Z"/>
      <path class="cls-2" d="M61.26,43.26c-2.48,0-4.51-2.01-4.51-4.49s1.99-4.49,4.47-4.49h.04c2.48,0,4.49,2.01,4.49,4.49s-2.01,4.49-4.49,4.49Z"/>
    </g>
  </g>
</svg>