<?xml version="1.0" encoding="UTF-8"?>
<svg id="Layer_1" data-name="Layer 1" xmlns="http://www.w3.org/2000/svg" viewBox="0 0 100 100">
  <defs>
    <style>
      .cls-1 {
        fill: #4b5563;
      }
    </style>
  </defs>
  <path class="cls-1" d="M38.63,51.84c6.47-.46,15.37-.47,21.86-.11,16.98.95,24.02,13.15,22.41,29.21-.41,4.1-4.12,7.56-8.21,7.92-15.9-1.11-33.72,1.43-49.39,0-3.99-.37-7.86-3.81-8.23-7.91-1.39-15.54,4.88-27.93,21.56-29.12ZM22.35,83.26c1,1.09,2.77,1.66,4.23,1.74l47.94-.16c5.44-.83,4.83-7.73,4.51-11.97-.65-8.9-7.62-16.23-16.62-16.94-5.94-.47-22.54-.7-27.86.55-7.43,1.75-12.99,8.5-13.6,16.08-.23,2.76-.49,8.65,1.4,10.69Z"/>
  <path class="cls-1" d="M68.78,29.47c0,10.38-8.41,18.79-18.79,18.79s-18.79-8.41-18.79-18.79,8.41-18.79,18.79-18.79,18.79,8.41,18.79,18.79ZM64.73,29.46c0-8.14-6.6-14.74-14.74-14.74s-14.74,6.6-14.74,14.74,6.6,14.74,14.74,14.74,14.74-6.6,14.74-14.74Z"/>
</svg>