<?xml version="1.0" encoding="UTF-8"?>
<svg id="Layer_1" data-name="Layer 1" xmlns="http://www.w3.org/2000/svg" viewBox="0 0 100 100">
  <defs>
    <style>
      .cls-1 {
        fill: #004e61;
      }
    </style>
  </defs>
  <path class="cls-1" d="M63.96,83.5c-1.43,0-2.86-.54-3.95-1.64-2.18-2.18-2.18-5.71,0-7.89l18.38-18.38H8.13c-3.08,0-5.58-2.5-5.58-5.58s2.5-5.58,5.58-5.58h70.26l-18.38-18.38c-2.18-2.18-2.18-5.71,0-7.89,2.18-2.18,5.71-2.18,7.89,0l27.91,27.91h0s0,0,0,0c0,0,0,0,0,0,0,0,0,0,0,0h0c.53.53.93,1.15,1.2,1.8.26.63.41,1.31.42,2.03,0,0,0,0,0,0,0,.03,0,.06,0,.1s0,.06,0,.1c0,0,0,0,0,0-.01.72-.16,1.4-.42,2.03-.27.65-.67,1.27-1.2,1.8h0s0,0,0,0c0,0,0,0,0,0,0,0,0,0,0,0h0s0,0,0,0l-27.91,27.91c-1.09,1.09-2.52,1.64-3.95,1.64Z"/>
</svg>