<svg width="47" height="47" viewBox="0 0 47 47" fill="none" xmlns="http://www.w3.org/2000/svg">
<path d="M0.650391 23.4367C0.650391 10.7982 10.8959 0.552734 23.5343 0.552734V0.552734C36.1728 0.552734 46.4183 10.7982 46.4183 23.4367V23.4367C46.4183 36.0752 36.1728 46.3206 23.5343 46.3206V46.3206C10.8959 46.3206 0.650391 36.0752 0.650391 23.4367V23.4367Z" fill="white"/>
<path d="M33.1895 34.8789H13.8809V11.9951H33.1895V34.8789Z" stroke="#E5E7EB"/>
<g clip-path="url(#clip0_2458_1600)">
<path d="M23.5488 15.2129C23.5568 15.2129 23.5661 15.2135 23.5752 15.2148C23.5788 15.2154 23.5821 15.2162 23.585 15.2168L32.1055 22.7061C32.1039 22.7074 32.1026 22.7084 32.1016 22.709H29.96L29.9648 23.7861L29.9883 29.1562C29.9881 29.1941 29.9845 29.2417 29.9775 29.3047L29.9707 29.3633V29.9629C29.9706 30.1112 29.8514 30.2304 29.7031 30.2305H29.1357C29.1329 30.2304 29.1402 30.2312 29.1533 30.2324L29.0664 30.2236L28.9795 30.2305H27.0215C26.8731 30.2305 26.753 30.1112 26.7529 29.9629V27.0127C26.7528 25.827 25.7931 24.8672 24.6074 24.8672H22.4619C21.2764 24.8674 20.3175 25.8272 20.3174 27.0127V29.9629C20.3173 30.1112 20.1972 30.2305 20.0488 30.2305H18.1748C18.1662 30.2305 18.1515 30.2303 18.0957 30.2266L18.0156 30.2217L17.9346 30.2275C17.9243 30.2284 17.9169 30.229 17.9102 30.2295C17.9037 30.23 17.8993 30.2303 17.8965 30.2305H17.3672C17.2188 30.2305 17.0987 30.1112 17.0986 29.9629V26.208L17.1025 26.1738V22.709H14.9531C14.9531 22.7079 14.9531 22.7064 14.9531 22.7051C14.9531 22.694 14.9536 22.6867 14.9541 22.6826C14.9555 22.6806 14.959 22.6764 14.9648 22.6699L23.5156 15.2178L23.5195 15.2139C23.5277 15.2136 23.5377 15.2129 23.5488 15.2129Z" stroke="#E14617" stroke-width="2.14537"/>
</g>
<defs>
<clipPath id="clip0_2458_1600">
<path d="M13.8809 14.1406H33.1892V31.3036H13.8809V14.1406Z" fill="white"/>
</clipPath>
</defs>
</svg>
