<svg width="44" height="44" viewBox="0 0 44 44" fill="none" xmlns="http://www.w3.org/2000/svg">
<path d="M22.0354 5.56006H9.22162C8.25064 5.56006 7.31943 5.94578 6.63285 6.63236C5.94627 7.31895 5.56055 8.25015 5.56055 9.22113V34.8486C5.56055 35.8196 5.94627 36.7508 6.63285 37.4374C7.31943 38.124 8.25064 38.5097 9.22162 38.5097H34.8491C35.8201 38.5097 36.7513 38.124 37.4379 37.4374C38.1245 36.7508 38.5102 35.8196 38.5102 34.8486V22.0349" stroke="#333333" stroke-opacity="0.4" stroke-width="2.51045" stroke-linecap="round" stroke-linejoin="round"/>
<path d="M33.7042 4.87319C34.4324 4.14496 35.4201 3.73584 36.45 3.73584C37.4799 3.73584 38.4676 4.14496 39.1958 4.87319C39.924 5.60142 40.3332 6.58912 40.3332 7.61899C40.3332 8.64887 39.924 9.63656 39.1958 10.3648L22.6972 26.8652C22.2625 27.2995 21.7256 27.6174 21.1357 27.7897L15.8766 29.3273C15.7191 29.3733 15.5521 29.376 15.3932 29.3353C15.2342 29.2946 15.0892 29.2119 14.9732 29.0959C14.8571 28.9798 14.7744 28.8348 14.7337 28.6758C14.693 28.5169 14.6957 28.3499 14.7417 28.1924L16.2793 22.9333C16.4524 22.3439 16.7709 21.8076 17.2056 21.3736L33.7042 4.87319Z" stroke="#333333" stroke-opacity="0.4" stroke-width="2.51045" stroke-linecap="round" stroke-linejoin="round"/>
</svg>
