<svg width="35" height="35" viewBox="0 0 35 35" fill="none" xmlns="http://www.w3.org/2000/svg">
<path d="M14.5837 7.29167H20.417C20.417 6.51812 20.1097 5.77625 19.5627 5.22927C19.0157 4.68229 18.2739 4.375 17.5003 4.375C16.7268 4.375 15.9849 4.68229 15.4379 5.22927C14.8909 5.77625 14.5837 6.51812 14.5837 7.29167ZM12.3962 7.29167C12.3962 6.62138 12.5282 5.95765 12.7847 5.33839C13.0412 4.71912 13.4172 4.15644 13.8911 3.68248C14.3651 3.20851 14.9278 2.83254 15.547 2.57603C16.1663 2.31952 16.83 2.1875 17.5003 2.1875C18.1706 2.1875 18.8343 2.31952 19.4536 2.57603C20.0729 2.83254 20.6355 3.20851 21.1095 3.68248C21.5835 4.15644 21.9595 4.71912 22.216 5.33839C22.4725 5.95765 22.6045 6.62138 22.6045 7.29167H30.9899C31.28 7.29167 31.5582 7.4069 31.7633 7.61202C31.9684 7.81714 32.0837 8.09534 32.0837 8.38542C32.0837 8.6755 31.9684 8.9537 31.7633 9.15882C31.5582 9.36393 31.28 9.47917 30.9899 9.47917H29.0649L27.3587 27.141C27.2278 28.4943 26.5975 29.7504 25.5907 30.6641C24.5839 31.5779 23.2729 32.0838 21.9132 32.0833H13.0874C11.728 32.0835 10.4173 31.5774 9.41088 30.6636C8.40441 29.7499 7.77431 28.4941 7.64345 27.141L5.93574 9.47917H4.01074C3.72066 9.47917 3.44246 9.36393 3.23734 9.15882C3.03223 8.9537 2.91699 8.6755 2.91699 8.38542C2.91699 8.09534 3.03223 7.81714 3.23734 7.61202C3.44246 7.4069 3.72066 7.29167 4.01074 7.29167H12.3962ZM15.3128 14.2188C15.3128 13.9287 15.1976 13.6505 14.9925 13.4454C14.7874 13.2402 14.5092 13.125 14.2191 13.125C13.929 13.125 13.6508 13.2402 13.4457 13.4454C13.2406 13.6505 13.1253 13.9287 13.1253 14.2188V25.1563C13.1253 25.4463 13.2406 25.7245 13.4457 25.9296C13.6508 26.1348 13.929 26.25 14.2191 26.25C14.5092 26.25 14.7874 26.1348 14.9925 25.9296C15.1976 25.7245 15.3128 25.4463 15.3128 25.1563V14.2188ZM20.7816 13.125C21.0717 13.125 21.3499 13.2402 21.555 13.4454C21.7601 13.6505 21.8753 13.9287 21.8753 14.2188V25.1563C21.8753 25.4463 21.7601 25.7245 21.555 25.9296C21.3499 26.1348 21.0717 26.25 20.7816 26.25C20.4915 26.25 20.2133 26.1348 20.0082 25.9296C19.8031 25.7245 19.6878 25.4463 19.6878 25.1563V14.2188C19.6878 13.9287 19.8031 13.6505 20.0082 13.4454C20.2133 13.2402 20.4915 13.125 20.7816 13.125ZM9.82074 26.931C9.8994 27.7428 10.2776 28.4962 10.8815 29.0443C11.4854 29.5924 12.2718 29.896 13.0874 29.8958H21.9132C22.7288 29.896 23.5152 29.5924 24.1192 29.0443C24.7231 28.4962 25.1013 27.7428 25.1799 26.931L26.8687 9.47917H8.13199L9.82074 26.931Z" fill="#333333" fill-opacity="0.8"/>
</svg>
