<?xml version="1.0" encoding="UTF-8"?>
<svg id="Layer_1" data-name="Layer 1" xmlns="http://www.w3.org/2000/svg" viewBox="0 0 100 100">
  <defs>
    <style>
      .cls-1 {
        fill: #0080ff;
      }
    </style>
  </defs>
  <path class="cls-1" d="M95.49,45.86c0-2.19-.87-4.3-2.42-5.85-1.55-1.55-3.65-2.42-5.85-2.42h-26.13l3.97-18.9c.08-.41.12-.87.12-1.32,0-1.7-.7-3.27-1.82-4.38l-4.38-4.34-27.21,27.21c-1.53,1.53-2.44,3.6-2.44,5.87v41.35c0,2.19.87,4.3,2.42,5.85,1.55,1.55,3.65,2.42,5.85,2.42h37.22c3.43,0,6.37-2.07,7.61-5.04l12.49-29.15c.37-.95.58-1.94.58-3.02v-8.27ZM4.51,91.35h16.54v-49.62H4.51v49.62Z"/>
</svg>