<?xml version="1.0" encoding="UTF-8"?>
<svg id="Layer_1" data-name="Layer 1" xmlns="http://www.w3.org/2000/svg" viewBox="0 0 100 100">
  <defs>
    <style>
      .cls-1 {
        fill: #1e4bf5;
      }
    </style>
  </defs>
  <path class="cls-1" d="M15.67,95.06c0-9.11,3.62-17.84,10.06-24.28,6.44-6.44,15.17-10.06,24.28-10.06s17.84,3.62,24.28,10.06c6.44,6.44,10.06,15.17,10.06,24.28h-8.58c0-6.83-2.71-13.38-7.54-18.21-4.83-4.83-11.38-7.54-18.21-7.54s-13.38,2.71-18.21,7.54c-4.83,4.83-7.54,11.38-7.54,18.21h-8.58ZM50,56.44c-14.23,0-25.75-11.52-25.75-25.75S35.77,4.94,50,4.94s25.75,11.52,25.75,25.75-11.52,25.75-25.75,25.75ZM50,47.85c9.48,0,17.17-7.68,17.17-17.17s-7.68-17.17-17.17-17.17-17.17,7.68-17.17,17.17,7.68,17.17,17.17,17.17Z"/>
</svg>