<?xml version="1.0" encoding="UTF-8"?>
<svg id="Layer_1" data-name="Layer 1" xmlns="http://www.w3.org/2000/svg" viewBox="0 0 100 100">
  <defs>
    <style>
      .cls-1 {
        fill: #004e61;
      }
    </style>
  </defs>
  <path class="cls-1" d="M92.05,89.71c-2.58,0-4.67-2.09-4.67-4.67,0-5.6-6.21-10.98-15.09-13.08-2.51-.6-4.07-3.11-3.47-5.63.6-2.51,3.07-4.04,5.63-3.47,13.33,3.15,22.28,12.06,22.28,22.18,0,2.58-2.09,4.67-4.67,4.67ZM64.02,89.71c-2.58,0-4.67-2.09-4.67-4.67,0-7.6-10.7-14.02-23.36-14.02s-23.36,6.42-23.36,14.02c0,2.58-2.09,4.67-4.67,4.67s-4.67-2.09-4.67-4.67c0-13.1,14.37-23.36,32.71-23.36s32.71,10.26,32.71,23.36c0,2.58-2.09,4.67-4.67,4.67ZM64.02,57.01c-2.58,0-4.67-2.09-4.67-4.67s2.09-4.67,4.67-4.67c3.69,0,7.3-1.5,9.91-4.11,2.61-2.61,4.11-6.22,4.11-9.91s-1.5-7.3-4.11-9.91c-2.61-2.61-6.22-4.11-9.91-4.11-2.58,0-4.67-2.09-4.67-4.67s2.09-4.67,4.67-4.67c6.24,0,12.1,2.43,16.52,6.84,4.41,4.41,6.84,10.28,6.84,16.52s-2.43,12.1-6.84,16.52c-4.41,4.41-10.28,6.84-16.52,6.84ZM35.98,57.01c-6.24,0-12.1-2.43-16.52-6.84-4.41-4.42-6.84-10.28-6.84-16.52s2.43-12.1,6.84-16.52c4.42-4.41,10.28-6.84,16.52-6.84s12.1,2.43,16.52,6.84,6.84,10.28,6.84,16.52-2.43,12.1-6.84,16.52-10.28,6.84-16.52,6.84ZM35.98,19.63c-3.74,0-7.26,1.46-9.91,4.11-2.65,2.64-4.1,6.16-4.1,9.91s1.46,7.26,4.1,9.91c5.26,5.25,14.56,5.26,19.83,0,2.61-2.61,4.11-6.22,4.11-9.91s-1.5-7.3-4.11-9.91-6.22-4.11-9.91-4.11Z"/>
</svg>