<?xml version="1.0" encoding="UTF-8"?>
<svg id="Layer_1" data-name="Layer 1" xmlns="http://www.w3.org/2000/svg" viewBox="0 0 100 100">
  <defs>
    <style>
      .cls-1 {
        fill: #e14617;
        fill-rule: evenodd;
      }
    </style>
  </defs>
  <path class="cls-1" d="M46.11,11.18c.14-.74.13-1.49-.02-2.22-.15-.73-.45-1.43-.87-2.05-.85-1.25-2.16-2.11-3.65-2.39-.74-.14-1.49-.13-2.22.02-.73.15-1.43.45-2.05.87-1.25.85-2.11,2.16-2.39,3.65l-3.46,18.14h-14.8c-1.51,0-2.96.6-4.03,1.67-1.07,1.07-1.67,2.52-1.67,4.03s.6,2.96,1.67,4.03c1.07,1.07,2.52,1.67,4.03,1.67h12.63l-4.34,22.77h-14.83c-1.51,0-2.96.6-4.03,1.67-1.07,1.07-1.67,2.52-1.67,4.03s.6,2.96,1.67,4.03c1.07,1.07,2.52,1.67,4.03,1.67h12.66l-3.06,16.06c-.14.74-.13,1.49.02,2.22.15.73.45,1.43.87,2.05.85,1.25,2.16,2.11,3.65,2.39,1.48.28,3.02-.04,4.27-.89,1.25-.85,2.11-2.16,2.39-3.65l3.46-18.19h22.58l-3.06,16.06c-.14.74-.13,1.49.02,2.22.15.73.45,1.43.87,2.05.42.62.96,1.15,1.59,1.56.63.41,1.33.69,2.06.83,1.48.28,3.02-.04,4.27-.89,1.25-.85,2.11-2.16,2.39-3.65l3.46-18.19h14.79c1.51,0,2.96-.6,4.03-1.67,1.07-1.07,1.67-2.52,1.67-4.03s-.6-2.96-1.67-4.03c-1.07-1.07-2.52-1.67-4.03-1.67h-12.62l4.33-22.77h14.81c1.51,0,2.96-.6,4.03-1.67,1.07-1.07,1.67-2.52,1.67-4.03s-.6-2.96-1.67-4.03c-1.07-1.07-2.52-1.67-4.03-1.67h-12.64l3.05-16.01c.28-1.48-.04-3.02-.89-4.27-.85-1.25-2.16-2.11-3.65-2.39-1.48-.28-3.02.04-4.27.89-1.25.85-2.11,2.16-2.39,3.65l-3.46,18.14h-22.58l3.05-16.01ZM40.89,38.59l-4.34,22.77h22.58l4.33-22.77h-22.58Z"/>
</svg>