<?xml version="1.0" encoding="UTF-8"?>
<svg id="Layer_1" data-name="Layer 1" xmlns="http://www.w3.org/2000/svg" viewBox="0 0 100 100">
  <defs>
    <style>
      .cls-1 {
        fill: #fff;
      }
    </style>
  </defs>
  <path class="cls-1" d="M6.07,12.02c-.47-.7-.72-1.53-.72-2.37,0-2.37,1.92-4.29,4.29-4.29h19.06c1.95,0,3.78,1.03,4.78,2.7l11.95,19.9c-8.41,1.06-15.92,4.99-21.52,10.8L6.07,12.02ZM93.91,12.02l-17.82,26.74c-5.6-5.81-13.11-9.73-21.52-10.8l11.95-19.9c1.01-1.67,2.82-2.7,4.78-2.7h19.06c2.37,0,4.29,1.92,4.29,4.29,0,.84-.24,1.67-.71,2.37h-.02ZM19.31,63.95c0-8.14,3.23-15.95,8.99-21.7,5.76-5.76,13.56-8.99,21.7-8.99s15.95,3.23,21.7,8.99c5.76,5.76,8.99,13.56,8.99,21.7s-3.23,15.95-8.99,21.7c-5.76,5.76-13.56,8.99-21.7,8.99s-15.95-3.23-21.7-8.99c-5.76-5.76-8.99-13.56-8.99-21.7ZM51.46,47.4c-.59-1.22-2.32-1.22-2.93,0l-3.91,7.92c-.24.49-.7.82-1.22.89l-8.75,1.27c-1.34.19-1.87,1.83-.91,2.79l6.33,6.17c.38.38.56.91.47,1.45l-1.5,8.7c-.23,1.33,1.17,2.35,2.37,1.73l7.81-4.12c.47-.24,1.05-.24,1.52,0l7.81,4.12c1.2.63,2.6-.38,2.37-1.73l-1.5-8.7c-.09-.52.09-1.06.47-1.45l6.33-6.17c.98-.94.44-2.58-.91-2.79l-8.74-1.27c-.52-.07-.99-.42-1.22-.89l-3.91-7.92Z"/>
</svg>