<?xml version="1.0" encoding="UTF-8"?>
<svg id="Layer_1" data-name="Layer 1" xmlns="http://www.w3.org/2000/svg" viewBox="0 0 100 100">
  <defs>
    <style>
      .cls-1 {
        fill: #6b7280;
      }
    </style>
  </defs>
  <path class="cls-1" d="M37.84,90.95c-3.46,0-6.83-.67-10.03-1.98-3.23-1.33-6.12-3.26-8.59-5.73-2.47-2.47-4.4-5.36-5.73-8.59-1.33-3.23-1.99-6.63-1.98-10.13.02-3.49.71-6.9,2.07-10.12,1.36-3.23,3.32-6.1,5.8-8.55l30.58-31.21c3.62-3.62,8.39-5.6,13.47-5.6s9.86,1.98,13.45,5.57c3.59,3.6,5.57,8.37,5.57,13.45s-2.03,9.91-5.57,13.44l-30.74,31.36c-4.47,4.48-12.17,4.45-16.58.03-2.21-2.22-3.43-5.15-3.43-8.28s1.22-6.06,3.42-8.27l30.74-31.36c1.69-1.74,4.47-1.76,6.2-.06,1.73,1.7,1.76,4.48.06,6.2l-30.77,31.39c-.58.58-.89,1.32-.89,2.1s.3,1.52.86,2.07c1.1,1.1,3.03,1.1,4.14,0l30.74-31.36c1.94-1.94,3.03-4.58,3.03-7.27s-1.07-5.3-3-7.24c-3.86-3.86-10.61-3.87-14.48,0l-30.61,31.24c-1.71,1.69-3.02,3.61-3.93,5.76-.9,2.14-1.37,4.42-1.38,6.74s.44,4.6,1.32,6.76c.88,2.15,2.17,4.08,3.82,5.72,1.65,1.65,3.57,2.93,5.73,3.82s4.45,1.28,6.75,1.32c2.33-.01,4.6-.47,6.74-1.38,2.15-.91,4.06-2.21,5.69-3.87l30.63-31.26c1.69-1.74,4.47-1.76,6.2-.06,1.73,1.7,1.76,4.48.06,6.2l-30.64,31.27c-2.45,2.49-5.32,4.45-8.54,5.8-3.22,1.36-6.62,2.05-10.12,2.07h-.1Z"/>
</svg>