<?xml version="1.0" encoding="UTF-8"?>
<svg id="Layer_1" data-name="Layer 1" xmlns="http://www.w3.org/2000/svg" viewBox="0 0 100 100">
  <path d="M50,97.67c-26.33,0-47.67-21.34-47.67-47.67S23.67,2.33,50,2.33s47.67,21.34,47.67,47.67-21.34,47.67-47.67,47.67ZM50,88.14c10.11,0,19.81-4.02,26.97-11.17,7.15-7.15,11.17-16.85,11.17-26.97s-4.02-19.81-11.17-26.97c-7.15-7.15-16.85-11.17-26.97-11.17s-19.81,4.02-26.97,11.17c-7.15,7.15-11.17,16.85-11.17,26.97s4.02,19.81,11.17,26.97c7.15,7.15,16.85,11.17,26.97,11.17ZM45.23,26.16h9.53v9.53h-9.53v-9.53ZM45.23,45.23h9.53v28.6h-9.53v-28.6Z"/>
</svg>