<?xml version="1.0" encoding="UTF-8"?>
<svg id="Layer_1" data-name="Layer 1" xmlns="http://www.w3.org/2000/svg" viewBox="0 0 100 100">
  <defs>
    <style>
      .cls-1 {
        fill: #b8860b;
      }
    </style>
  </defs>
  <path class="cls-1" d="M78.38,98.49H21.62c-3.47,0-6.74-1.35-9.2-3.81-2.46-2.45-3.81-5.72-3.81-9.2v-34.3h-1.18c-1.96,0-3.55-1.59-3.55-3.55v-18.92c0-1.96,1.59-3.55,3.55-3.55h13.06c-1.57-2.45-2.41-5.3-2.41-8.28,0-4.11,1.6-7.97,4.5-10.87,6.67-6.65,18.45-5.26,25.09,1.39.87.87,1.65,1.81,2.34,2.8.68-.99,1.46-1.93,2.34-2.8,3.8-3.8,8.85-5.89,14.22-5.89,4.11,0,7.96,1.6,10.87,4.5,2.91,2.91,4.5,6.76,4.5,10.87,0,2.02-.39,4-1.17,5.88-.35.85-.77,1.64-1.25,2.4h13.06c1.96,0,3.55,1.59,3.55,3.55v18.92c0,1.96-1.59,3.55-3.55,3.55h-1.18v34.3c0,3.47-1.35,6.74-3.81,9.2s-5.72,3.81-9.2,3.81ZM53.55,91.39h24.84c1.56,0,3.08-.63,4.18-1.73s1.73-2.62,1.73-4.18v-34.3h-30.75v40.21ZM15.7,51.18v34.3c0,1.58.61,3.06,1.73,4.18s2.61,1.74,4.19,1.74h24.84v-40.21H15.7ZM10.97,44.09h78.06v-11.83H10.97v11.83ZM53.55,25.16h13.01c1.09,0,2.16-.21,3.16-.63,1.02-.42,1.92-1.03,2.69-1.8s1.38-1.68,1.8-2.69c.42-1.01.63-2.08.63-3.16,0-2.21-.86-4.29-2.43-5.85s-3.65-2.43-5.85-2.43c-3.47,0-6.74,1.35-9.2,3.81-2.45,2.45-3.81,5.72-3.81,9.2v3.55ZM33.44,25.16h13.01v-3.55c0-3.47-1.35-6.74-3.81-9.2-3.98-3.98-11.05-5.38-15.06-1.38-1.56,1.56-2.42,3.64-2.42,5.85s.86,4.29,2.42,5.85c1.57,1.56,3.65,2.43,5.86,2.43Z"/>
</svg>