<?xml version="1.0" encoding="UTF-8"?>
<svg id="Layer_1" data-name="Layer 1" xmlns="http://www.w3.org/2000/svg" xmlns:xlink="http://www.w3.org/1999/xlink" viewBox="0 0 100 100">
  <defs>
    <style>
      .cls-1 {
        fill: #def4ff;
      }

      .cls-2 {
        fill: none;
      }

      .cls-3 {
        fill: #0ea5e9;
      }

      .cls-4 {
        clip-path: url(#clippath);
      }
    </style>
    <clipPath id="clippath">
      <rect class="cls-2" x="26" y="26" width="48" height="48"/>
    </clipPath>
  </defs>
  <path class="cls-1" d="M50,0c27.61,0,50,22.39,50,50s-22.39,50-50,50S0,77.61,0,50,22.39,0,50,0Z"/>
  <g class="cls-4">
    <path class="cls-3" d="M36.94,29.17c.42-.57,1.1-.92,1.81-.92h22.5c.71,0,1.39.34,1.81.92l10.5,14.25c.64.86.57,2.05-.14,2.85l-21.75,24c-.42.47-1.03.74-1.67.74s-1.24-.27-1.67-.74l-21.75-24c-.72-.8-.78-1.99-.14-2.85l10.5-14.25ZM40.55,32.9c-.31.23-.39.66-.2.98l5.38,8.96-13.8,1.15c-.38.03-.68.36-.68.75s.3.71.68.75l18,1.5h.12l18-1.5c.38-.03.68-.36.68-.75s-.3-.71-.68-.75l-13.79-1.14,5.38-8.96c.2-.33.11-.76-.2-.98-.31-.22-.74-.19-1,.09l-8.45,9.14-8.45-9.15c-.26-.28-.69-.32-1-.09Z"/>
  </g>
</svg>