<?xml version="1.0" encoding="UTF-8"?>
<svg id="Layer_1" data-name="Layer 1" xmlns="http://www.w3.org/2000/svg" viewBox="0 0 100 100">
  <defs>
    <style>
      .cls-1 {
        fill: #0284c7;
      }
    </style>
  </defs>
  <path class="cls-1" d="M5.31,15.09v30.55c0,3.47,1.37,6.8,3.82,9.26l35.96,35.96c5.11,5.11,13.38,5.11,18.49,0l27.28-27.28c5.11-5.11,5.11-13.38,0-18.49L54.9,9.13c-2.45-2.45-5.78-3.82-9.26-3.82H15.11c-5.41-.02-9.81,4.37-9.81,9.79ZM28.19,21.63c1.73,0,3.4.69,4.62,1.92,1.23,1.23,1.92,2.89,1.92,4.62s-.69,3.4-1.92,4.62c-1.23,1.23-2.89,1.92-4.62,1.92s-3.4-.69-4.62-1.92c-1.23-1.23-1.92-2.89-1.92-4.62s.69-3.4,1.92-4.62c1.23-1.23,2.89-1.92,4.62-1.92Z"/>
</svg>