<svg width="26" height="21" viewBox="0 0 26 21" fill="none" xmlns="http://www.w3.org/2000/svg">
<path d="M11.7497 17.5C11.7496 17.6626 11.7948 17.822 11.8803 17.9603C11.9658 18.0987 12.0881 18.2104 12.2336 18.2831L13.9836 19.1581C14.117 19.2248 14.2653 19.2563 14.4143 19.2495C14.5633 19.2428 14.7081 19.198 14.835 19.1196C14.9618 19.0411 15.0665 18.9315 15.1391 18.8012C15.2117 18.6709 15.2498 18.5242 15.2497 18.375V12.25C15.2499 11.8163 15.4111 11.3982 15.7021 11.0766L22.0222 4.08625C22.1355 3.96074 22.21 3.8051 22.2366 3.63815C22.2633 3.4712 22.2411 3.30009 22.1726 3.14552C22.1041 2.99094 21.9923 2.85952 21.8507 2.76715C21.7091 2.67477 21.5438 2.6254 21.3747 2.625H5.62468C5.45547 2.62506 5.28989 2.67419 5.14803 2.76643C5.00616 2.85867 4.89409 2.99008 4.82538 3.14472C4.75667 3.29936 4.73427 3.47061 4.76091 3.63772C4.78754 3.80483 4.86206 3.96063 4.97543 4.08625L11.2973 11.0766C11.5883 11.3982 11.7495 11.8163 11.7497 12.25V17.5Z" stroke="#64748B" stroke-linecap="round" stroke-linejoin="round"/>
</svg>
