<svg width="33" height="33" viewBox="0 0 33 33" fill="none" xmlns="http://www.w3.org/2000/svg">
<g clip-path="url(#clip0_2420_1659)">
<g clip-path="url(#clip1_2420_1659)">
<path d="M12.6381 6.13953C12.2815 5.27799 11.3412 4.81942 10.4426 5.06492L6.36643 6.17659C5.56047 6.39893 5 7.13078 5 7.96453C5 19.4241 14.2918 28.7158 25.7513 28.7158C26.585 28.7158 27.3169 28.1553 27.5392 27.3494L28.6509 23.2732C28.8964 22.3746 28.4378 21.4343 27.5763 21.0777L23.1296 19.2249C22.3746 18.9099 21.4991 19.1276 20.985 19.7622L19.1136 22.0458C15.8527 20.5033 13.2125 17.8631 11.67 14.6022L13.9536 12.7355C14.5882 12.2167 14.8059 11.3459 14.4909 10.5909L12.6381 6.14417V6.13953Z" fill="#004E61"/>
</g>
</g>
<defs>
<clipPath id="clip0_2420_1659">
<rect width="23.7157" height="23.7157" fill="white" transform="translate(5 5)"/>
</clipPath>
<clipPath id="clip1_2420_1659">
<path d="M5 5H28.7157V28.7157H5V5Z" fill="white"/>
</clipPath>
</defs>
</svg>
