<?xml version="1.0" encoding="UTF-8"?>
<svg id="Layer_1" data-name="Layer 1" xmlns="http://www.w3.org/2000/svg" xmlns:xlink="http://www.w3.org/1999/xlink" viewBox="0 0 100 100">
  <defs>
    <style>
      .cls-1 {
        fill: none;
      }

      .cls-2 {
        fill: #9ca3af;
      }

      .cls-3 {
        clip-path: url(#clippath);
      }
    </style>
    <clipPath id="clippath">
      <rect class="cls-1" x="5.65" y="14.52" width="88.69" height="70.95"/>
    </clipPath>
  </defs>
  <g class="cls-3">
    <path class="cls-2" d="M34.48,63.3c15.92,0,28.83-10.92,28.83-24.39s-12.9-24.39-28.83-24.39S5.65,25.44,5.65,38.91c0,5.35,2.04,10.3,5.49,14.33-.49,1.3-1.21,2.45-1.97,3.42-.67.86-1.34,1.52-1.84,1.98-.25.22-.46.4-.6.51-.07.06-.12.1-.15.11l-.03.03c-.76.57-1.09,1.57-.79,2.47.3.9,1.15,1.54,2.11,1.54,3.02,0,6.07-.78,8.61-1.73,1.27-.49,2.47-1.03,3.51-1.58,4.25,2.11,9.2,3.31,14.5,3.31ZM67.74,38.91c0,15.56-13.73,27.29-30,28.69,3.37,10.31,14.54,17.88,27.79,17.88,5.29,0,10.24-1.21,14.51-3.31,1.04.55,2.22,1.09,3.49,1.58,2.54.96,5.58,1.73,8.61,1.73.96,0,1.82-.62,2.11-1.54.29-.91-.03-1.91-.8-2.48l-.03-.03s-.08-.06-.15-.11c-.14-.11-.35-.28-.6-.51-.5-.46-1.18-1.12-1.84-1.98-.76-.97-1.48-2.13-1.97-3.42,3.45-4.02,5.49-8.97,5.49-14.33,0-12.86-11.77-23.41-26.69-24.32.06.71.08,1.43.08,2.15h.01Z"/>
  </g>
</svg>