<?xml version="1.0" encoding="UTF-8"?>
<svg id="Layer_1" data-name="Layer 1" xmlns="http://www.w3.org/2000/svg" viewBox="0 0 100 100">
  <defs>
    <style>
      .cls-1 {
        fill: #46a756;
      }
    </style>
  </defs>
  <path class="cls-1" d="M88.79,91.22h-38.79c-4.02,0-7.27-3.25-7.27-7.27s3.25-7.27,7.27-7.27h38.79c4.02,0,7.27,3.25,7.27,7.27s-3.25,7.27-7.27,7.27ZM11.21,81.52c-1.86,0-3.72-.71-5.14-2.13-2.84-2.84-2.84-7.44,0-10.29l23.95-23.95L6.06,21.2c-2.84-2.84-2.84-7.44,0-10.29,2.84-2.84,7.44-2.84,10.29,0l29.1,29.1c2.84,2.84,2.84,7.44,0,10.29l-29.1,29.1c-1.42,1.42-3.28,2.13-5.14,2.13Z"/>
</svg>