<?xml version="1.0" encoding="UTF-8"?>
<svg id="Layer_1" data-name="Layer 1" xmlns="http://www.w3.org/2000/svg" viewBox="0 0 100 100">
  <defs>
    <style>
      .cls-1 {
        fill: #8b5cf6;
      }
    </style>
  </defs>
  <path class="cls-1" d="M80.62,13.81H19.38c-8.7,0-15.78,7.08-15.78,15.78v40.83c0,8.7,7.08,15.78,15.78,15.78h61.25c8.7,0,15.78-7.08,15.78-15.78V29.58c0-8.7-7.08-15.78-15.78-15.78ZM19.38,24.94h61.25c2.56,0,4.64,2.08,4.64,4.64v1.66l-33.19,16.59c-1.29.64-2.87.64-4.15,0L14.74,31.25v-1.66c0-2.56,2.08-4.64,4.64-4.64ZM80.62,75.06H19.38c-2.56,0-4.64-2.08-4.64-4.64v-26.72l28.21,14.1c2.18,1.09,4.62,1.66,7.05,1.66s4.87-.58,7.05-1.66l28.21-14.1v26.72c0,2.56-2.08,4.64-4.64,4.64Z"/>
</svg>