<svg width="88" height="70" viewBox="0 0 88 70" fill="none" xmlns="http://www.w3.org/2000/svg">
<g clip-path="url(#clip0_2416_1574)">
<g clip-path="url(#clip1_2416_1574)">
<path d="M43.75 0C46.1699 0 48.125 1.95508 48.125 4.375V13.125H64.5312C69.9727 13.125 74.375 17.5273 74.375 22.9688V60.1562C74.375 65.5977 69.9727 70 64.5312 70H22.9688C17.5273 70 13.125 65.5977 13.125 60.1562V22.9688C13.125 17.5273 17.5273 13.125 22.9688 13.125H39.375V4.375C39.375 1.95508 41.3301 0 43.75 0ZM28.4375 52.5C27.2344 52.5 26.25 53.4844 26.25 54.6875C26.25 55.8906 27.2344 56.875 28.4375 56.875H32.8125C34.0156 56.875 35 55.8906 35 54.6875C35 53.4844 34.0156 52.5 32.8125 52.5H28.4375ZM41.5625 52.5C40.3594 52.5 39.375 53.4844 39.375 54.6875C39.375 55.8906 40.3594 56.875 41.5625 56.875H45.9375C47.1406 56.875 48.125 55.8906 48.125 54.6875C48.125 53.4844 47.1406 52.5 45.9375 52.5H41.5625ZM54.6875 52.5C53.4844 52.5 52.5 53.4844 52.5 54.6875C52.5 55.8906 53.4844 56.875 54.6875 56.875H59.0625C60.2656 56.875 61.25 55.8906 61.25 54.6875C61.25 53.4844 60.2656 52.5 59.0625 52.5H54.6875ZM36.0938 35C36.0938 33.5496 35.5176 32.1586 34.492 31.133C33.4664 30.1074 32.0754 29.5312 30.625 29.5312C29.1746 29.5312 27.7836 30.1074 26.758 31.133C25.7324 32.1586 25.1562 33.5496 25.1562 35C25.1562 36.4504 25.7324 37.8414 26.758 38.867C27.7836 39.8926 29.1746 40.4688 30.625 40.4688C32.0754 40.4688 33.4664 39.8926 34.492 38.867C35.5176 37.8414 36.0938 36.4504 36.0938 35ZM56.875 40.4688C58.3254 40.4688 59.7164 39.8926 60.742 38.867C61.7676 37.8414 62.3438 36.4504 62.3438 35C62.3438 33.5496 61.7676 32.1586 60.742 31.133C59.7164 30.1074 58.3254 29.5312 56.875 29.5312C55.4246 29.5312 54.0336 30.1074 53.008 31.133C51.9824 32.1586 51.4062 33.5496 51.4062 35C51.4062 36.4504 51.9824 37.8414 53.008 38.867C54.0336 39.8926 55.4246 40.4687 56.875 40.4688ZM6.5625 30.625H8.75V56.875H6.5625C2.93945 56.875 0 53.9355 0 50.3125V37.1875C0 33.5645 2.93945 30.625 6.5625 30.625ZM80.9375 30.625C84.5605 30.625 87.5 33.5645 87.5 37.1875V50.3125C87.5 53.9355 84.5605 56.875 80.9375 56.875H78.75V30.625H80.9375Z" fill="#74D4C3"/>
</g>
</g>
<defs>
<clipPath id="clip0_2416_1574">
<rect width="87.5" height="70" fill="white"/>
</clipPath>
<clipPath id="clip1_2416_1574">
<path d="M0 0H87.5V70H0V0Z" fill="white"/>
</clipPath>
</defs>
</svg>
