<svg width="33" height="33" viewBox="0 0 33 33" fill="none" xmlns="http://www.w3.org/2000/svg">
<g clip-path="url(#clip0_2420_1661)">
<g clip-path="url(#clip1_2420_1661)">
<path d="M17.2307 27.6772C19.6639 24.6321 25.2132 17.252 25.2132 13.1066C25.2132 8.079 21.1342 4 16.1066 4C11.079 4 7 8.079 7 13.1066C7 17.252 12.5493 24.6321 14.9825 27.6772C15.5659 28.4028 16.6473 28.4028 17.2307 27.6772ZM16.1066 10.0711C16.9117 10.0711 17.6838 10.3909 18.253 10.9602C18.8223 11.5294 19.1421 12.3015 19.1421 13.1066C19.1421 13.9117 18.8223 14.6838 18.253 15.253C17.6838 15.8223 16.9117 16.1421 16.1066 16.1421C15.3015 16.1421 14.5294 15.8223 13.9602 15.253C13.3909 14.6838 13.0711 13.9117 13.0711 13.1066C13.0711 12.3015 13.3909 11.5294 13.9602 10.9602C14.5294 10.3909 15.3015 10.0711 16.1066 10.0711Z" fill="#004E61"/>
</g>
</g>
<defs>
<clipPath id="clip0_2420_1661">
<rect width="18.2132" height="24.2843" fill="white" transform="translate(7 4)"/>
</clipPath>
<clipPath id="clip1_2420_1661">
<path d="M7 4H25.2132V28.2843H7V4Z" fill="white"/>
</clipPath>
</defs>
</svg>
