<?xml version="1.0" encoding="UTF-8"?>
<svg id="Layer_1" data-name="Layer 1" xmlns="http://www.w3.org/2000/svg" viewBox="0 0 100 100">
  <defs>
    <style>
      .cls-1 {
        fill: #0ea5e9;
      }
    </style>
  </defs>
  <path class="cls-1" d="M94.45,28.44c-.43-.43-.93-.77-1.49-1-.56-.23-1.16-.35-1.76-.35s-1.2.12-1.76.35c-.56.23-1.06.57-1.49,1l-28.8,28.84-19.64-19.69c-.43-.43-.93-.77-1.49-1-.56-.23-1.16-.35-1.76-.35s-1.2.12-1.76.35c-.56.23-1.06.57-1.49,1l-27.47,27.47c-.43.43-.77.93-1,1.49-.23.56-.35,1.16-.35,1.76s.12,1.2.35,1.76c.23.56.57,1.06,1,1.49.43.43.93.77,1.49,1,.56.23,1.16.35,1.76.35s1.2-.12,1.76-.35c.56-.23,1.06-.57,1.49-1l24.22-24.26,19.64,19.69c.43.43.93.77,1.49,1,.56.23,1.16.35,1.76.35s1.2-.12,1.76-.35c.56-.23,1.06-.57,1.49-1l32.05-32.05c.43-.43.77-.93,1-1.49.23-.56.35-1.16.35-1.76s-.12-1.2-.35-1.76c-.23-.56-.57-1.06-1-1.49Z"/>
</svg>