<?xml version="1.0" encoding="UTF-8"?>
<svg id="Layer_1" data-name="Layer 1" xmlns="http://www.w3.org/2000/svg" viewBox="0 0 100 100">
  <defs>
    <style>
      .cls-1 {
        fill: #fff;
      }
    </style>
  </defs>
  <path class="cls-1" d="M86.94,19.22h-14.37v-2.05c0-7.52-6.85-14.37-14.36-14.37h-16.42c-7.52,0-14.36,6.85-14.36,14.37v2.05h-14.36c-3.4,0-6.16,2.76-6.16,6.16s2.75,6.16,6.16,6.16h2.05v51.3c0,7.52,6.85,14.37,14.36,14.37h41.05c7.52,0,14.36-6.85,14.36-14.37V31.53h2.06c3.4,0,6.16-2.76,6.16-6.16s-2.75-6.16-6.16-6.16ZM39.74,17.17c0-.71,1.34-2.05,2.05-2.05h16.42c.71,0,2.05,1.35,2.05,2.05v2.05h-20.52v-2.05ZM72.57,82.83c0,.71-1.34,2.05-2.05,2.05H29.47c-.71,0-2.05-1.34-2.05-2.05V31.53h45.15v51.3Z"/>
</svg>