<svg width="60" height="60" viewBox="0 0 60 60" fill="none" xmlns="http://www.w3.org/2000/svg">
<path d="M0 7.4139C0 3.31932 3.31932 0 7.41391 0H51.8974C55.9919 0 59.3113 3.31932 59.3113 7.41391V51.8974C59.3113 55.9919 55.9919 59.3113 51.8974 59.3113H7.4139C3.31932 59.3113 0 55.9919 0 51.8974V7.4139Z" fill="#DBEAFE"/>
<path d="M38.3056 18.5347H21.0065C19.6416 18.5347 18.5352 19.6411 18.5352 21.006V38.3051C18.5352 39.6699 19.6416 40.7764 21.0065 40.7764H38.3056C39.6704 40.7764 40.7769 39.6699 40.7769 38.3051V21.006C40.7769 19.6411 39.6704 18.5347 38.3056 18.5347Z" stroke="#1D4ED8" stroke-width="3.70695" stroke-linecap="round" stroke-linejoin="round"/>
<path d="M25.9518 28.4206C27.3166 28.4206 28.4231 27.3142 28.4231 25.9493C28.4231 24.5845 27.3166 23.478 25.9518 23.478C24.5869 23.478 23.4805 24.5845 23.4805 25.9493C23.4805 27.3142 24.5869 28.4206 25.9518 28.4206Z" stroke="#1D4ED8" stroke-width="3.70695" stroke-linecap="round" stroke-linejoin="round"/>
<path d="M40.777 33.363L36.9637 29.5497C36.5003 29.0864 35.8718 28.8262 35.2165 28.8262C34.5612 28.8262 33.9328 29.0864 33.4693 29.5497L22.2422 40.7769" stroke="#1D4ED8" stroke-width="3.70695" stroke-linecap="round" stroke-linejoin="round"/>
</svg>
