<?xml version="1.0" encoding="UTF-8"?>
<svg id="Layer_1" data-name="Layer 1" xmlns="http://www.w3.org/2000/svg" viewBox="0 0 100 100">
  <defs>
    <style>
      .cls-1 {
        opacity: .4;
      }

      .cls-2 {
        fill: #333;
      }
    </style>
  </defs>
  <g class="cls-1">
    <path class="cls-2" d="M50,60.1c-5.57,0-10.1-4.53-10.1-10.1s4.53-10.1,10.1-10.1,10.1,4.53,10.1,10.1-4.53,10.1-10.1,10.1ZM50,49.08c-.51,0-.92.41-.92.92,0,1.02,1.83,1.02,1.83,0,0-.51-.41-.92-.91-.92Z"/>
  </g>
  <g class="cls-1">
    <path class="cls-2" d="M50,27.97c-5.57,0-10.1-4.53-10.1-10.1s4.53-10.1,10.1-10.1,10.1,4.53,10.1,10.1-4.53,10.1-10.1,10.1ZM50,16.95c-.51,0-.92.41-.92.92,0,1.01,1.83,1.01,1.83,0,0-.51-.41-.92-.91-.92Z"/>
  </g>
  <g class="cls-1">
    <path class="cls-2" d="M50,92.23c-5.57,0-10.1-4.53-10.1-10.1s4.53-10.1,10.1-10.1,10.1,4.53,10.1,10.1-4.53,10.1-10.1,10.1ZM50,81.21c-.51,0-.92.41-.92.92,0,1.01,1.83,1.01,1.83,0,0-.51-.41-.92-.91-.92Z"/>
  </g>
</svg>