<?xml version="1.0" encoding="UTF-8"?>
<svg id="Layer_1" data-name="Layer 1" xmlns="http://www.w3.org/2000/svg" viewBox="0 0 100 100">
  <defs>
    <style>
      .cls-1 {
        fill: #4b5563;
      }
    </style>
  </defs>
  <path class="cls-1" d="M67.21,12.53c4.95-.67,9.26,2.59,11.99,6.45,3.31,4.7,1.83,9.26-1.59,13.24-11.47,13.34-26.72,25.32-38.59,38.51-2.82,2.17-7.26,2.26-10.77,2.52-2.79.21-7.3.9-8.06-2.9-.49-2.43.43-13.04,1.77-15.02,12.78-11.79,24.29-25.71,37.03-37.41,2.4-2.2,4.88-4.94,8.23-5.39ZM67.53,17.84c-1.65.34-3.9,2.97-4.87,4.36l8.74,8.5c3.14-2.87,6.11-5.19,2.86-9.44-1.62-2.12-3.92-4-6.73-3.42ZM25.42,67.94c3.26-.28,6.88-.27,9.96-1.18l31.6-31.54.17-.84-8.16-8.16h-.66l-31.72,31.77c-.97,3.07-.89,6.69-1.18,9.96Z"/>
  <path class="cls-1" d="M13.69,82.3l72.05-.08c2.92.26,3.26,4.25.44,5.1l-70.91.23c-3.4.1-4.79-3.78-1.58-5.26Z"/>
</svg>