<?xml version="1.0" encoding="UTF-8"?>
<svg id="Layer_1" data-name="Layer 1" xmlns="http://www.w3.org/2000/svg" xmlns:xlink="http://www.w3.org/1999/xlink" viewBox="0 0 100 100">
  <defs>
    <style>
      .cls-1 {
        fill: none;
      }

      .cls-2 {
        fill: #10b981;
      }

      .cls-3 {
        clip-path: url(#clippath);
      }
    </style>
    <clipPath id="clippath">
      <rect class="cls-1" x="16.62" y="5.49" width="66.76" height="89.01"/>
    </clipPath>
  </defs>
  <g class="cls-3">
    <path class="cls-2" d="M50,5.49c-9.21,0-16.69,7.48-16.69,16.69v27.82c0,9.21,7.48,16.69,16.69,16.69s16.69-7.48,16.69-16.69v-27.82c0-9.21-7.48-16.69-16.69-16.69ZM27.75,43.04c0-2.31-1.86-4.17-4.17-4.17s-4.17,1.86-4.17,4.17v6.95c0,15.49,11.51,28.29,26.43,30.32v5.84h-8.35c-2.31,0-4.17,1.86-4.17,4.17s1.86,4.17,4.17,4.17h25.04c2.31,0,4.17-1.86,4.17-4.17s-1.86-4.17-4.17-4.17h-8.35v-5.84c14.92-2.03,26.43-14.83,26.43-30.32v-6.95c0-2.31-1.86-4.17-4.17-4.17s-4.17,1.86-4.17,4.17v6.95c0,12.29-9.96,22.25-22.25,22.25s-22.25-9.96-22.25-22.25v-6.95Z"/>
  </g>
</svg>