<?xml version="1.0" encoding="UTF-8"?>
<svg id="Layer_1" data-name="Layer 1" xmlns="http://www.w3.org/2000/svg" viewBox="0 0 100 100">
  <defs>
    <style>
      .cls-1 {
        fill: #e14617;
      }
    </style>
  </defs>
  <path class="cls-1" d="M78.38,46c-1.15-1.5-2.55-2.8-3.85-4.1-3.35-3-7.16-5.15-10.36-8.31-7.46-7.31-9.11-19.36-4.35-28.62-4.75,1.15-8.91,3.75-12.46,6.61-12.96,10.41-18.06,28.77-11.96,44.53.2.5.4,1,.4,1.65,0,1.1-.75,2.1-1.75,2.5-1.15.5-2.35.2-3.3-.6-.28-.24-.52-.53-.7-.85-5.65-7.16-6.55-17.41-2.75-25.62-8.36,6.81-12.91,18.31-12.26,29.17.3,2.5.6,5,1.45,7.51.7,3,2.05,6,3.55,8.66,5.4,8.66,14.76,14.86,24.82,16.11,10.71,1.35,22.17-.6,30.37-8.01,9.16-8.31,12.36-21.62,7.66-33.03l-.65-1.3c-1.05-2.3-3.85-6.3-3.85-6.3ZM62.56,77.52c-1.4,1.2-3.7,2.5-5.5,3-5.6,2-11.21-.8-14.51-4.1,5.95-1.4,9.51-5.8,10.56-10.26.85-4-.75-7.31-1.4-11.16-.6-3.7-.5-6.86.85-10.31.95,1.9,1.95,3.8,3.15,5.3,3.85,5,9.91,7.21,11.21,14.01.2.7.3,1.4.3,2.15.15,4.1-1.65,8.61-4.65,11.36Z"/>
</svg>