<svg width="14" height="14" viewBox="0 0 14 14" fill="none" xmlns="http://www.w3.org/2000/svg">
<g clip-path="url(#clip0_2400_2055)">
<path d="M4.08333 6.41675V4.08341C4.08333 3.30987 4.39062 2.568 4.93761 2.02102C5.48459 1.47404 6.22645 1.16675 7 1.16675C7.77355 1.16675 8.51541 1.47404 9.06239 2.02102C9.60938 2.568 9.91667 3.30987 9.91667 4.08341V6.41675M2.91667 6.41675H11.0833C11.7277 6.41675 12.25 6.93908 12.25 7.58341V11.6667C12.25 12.3111 11.7277 12.8334 11.0833 12.8334H2.91667C2.27233 12.8334 1.75 12.3111 1.75 11.6667V7.58341C1.75 6.93908 2.27233 6.41675 2.91667 6.41675Z" stroke="#9CA3AF" stroke-width="2" stroke-linecap="round" stroke-linejoin="round"/>
</g>
<defs>
<clipPath id="clip0_2400_2055">
<rect width="14" height="14" fill="white"/>
</clipPath>
</defs>
</svg>
