<?xml version="1.0" encoding="UTF-8"?>
<svg id="Layer_1" data-name="Layer 1" xmlns="http://www.w3.org/2000/svg" viewBox="0 0 100 100">
  <defs>
    <style>
      .cls-1 {
        fill: #004e61;
      }
    </style>
  </defs>
  <path class="cls-1" d="M54.12,97.19c-4.29,0-8.32-1.66-11.36-4.68L7.02,56.77c-2.68-2.67-4.21-6.38-4.21-10.16v-29.44c0-3.78,1.53-7.49,4.21-10.16,2.71-2.71,6.32-4.21,10.16-4.21h29.44c3.84,0,7.45,1.5,10.15,4.21l35.73,35.72c3.04,3.06,4.7,7.09,4.7,11.37s-1.66,8.32-4.68,11.35l-27.03,27.03c-3.05,3.03-7.08,4.7-11.37,4.7ZM17.18,15.12c-.55,0-1.06.21-1.45.6-.38.38-.6.91-.6,1.45v29.44c0,.54.22,1.07.6,1.45l35.73,35.73c1.39,1.38,3.92,1.39,5.34-.02l27-26.99c.7-.7,1.09-1.66,1.09-2.67s-.39-1.96-1.11-2.68L48.06,15.73h0c-.38-.39-.9-.6-1.45-.6h-29.43Z"/>
  <path class="cls-1" d="M31.54,39.75c-4.53,0-8.21-3.68-8.21-8.21s3.68-8.21,8.21-8.21,8.21,3.68,8.21,8.21-3.68,8.21-8.21,8.21ZM31.54,27.44c-2.27,0-4.11,1.84-4.11,4.11s1.84,4.1,4.11,4.1,4.11-1.84,4.11-4.1-1.84-4.11-4.11-4.11Z"/>
</svg>