<svg width="15" height="15" viewBox="0 0 15 15" fill="none" xmlns="http://www.w3.org/2000/svg">
<g clip-path="url(#clip0_2254_15820)">
<g clip-path="url(#clip1_2254_15820)">
<path d="M11.9225 5.96123C11.9225 7.27671 11.4954 8.49189 10.7761 9.47778L14.4044 13.109C14.7626 13.4672 14.7626 14.049 14.4044 14.4073C14.0461 14.7655 13.4644 14.7655 13.1061 14.4073L9.47778 10.7761C8.49189 11.4983 7.27671 11.9225 5.96123 11.9225C2.66822 11.9225 0 9.25424 0 5.96123C0 2.66822 2.66822 0 5.96123 0C9.25424 0 11.9225 2.66822 11.9225 5.96123ZM5.96123 10.0882C6.5032 10.0882 7.03985 9.98149 7.54057 9.77409C8.04128 9.56668 8.49623 9.26269 8.87946 8.87946C9.26269 8.49623 9.56668 8.04128 9.77409 7.54057C9.98149 7.03985 10.0882 6.5032 10.0882 5.96123C10.0882 5.41926 9.98149 4.8826 9.77409 4.38189C9.56668 3.88118 9.26269 3.42622 8.87946 3.043C8.49623 2.65977 8.04128 2.35578 7.54057 2.14837C7.03985 1.94097 6.5032 1.83422 5.96123 1.83422C5.41926 1.83422 4.8826 1.94097 4.38189 2.14837C3.88118 2.35578 3.42622 2.65977 3.043 3.043C2.65977 3.42622 2.35578 3.88118 2.14837 4.38189C1.94097 4.8826 1.83422 5.41926 1.83422 5.96123C1.83422 6.5032 1.94097 7.03985 2.14837 7.54057C2.35578 8.04128 2.65977 8.49623 3.043 8.87946C3.42622 9.26269 3.88118 9.56668 4.38189 9.77409C4.8826 9.98149 5.41926 10.0882 5.96123 10.0882Z" fill="#9CA3AF"/>
</g>
</g>
<defs>
<clipPath id="clip0_2254_15820">
<rect width="14.6738" height="14.6738" fill="white"/>
</clipPath>
<clipPath id="clip1_2254_15820">
<path d="M0 0H14.6738V14.6738H0V0Z" fill="white"/>
</clipPath>
</defs>
</svg>
