<svg width="74" height="73" viewBox="0 0 74 73" fill="none" xmlns="http://www.w3.org/2000/svg">
<path fill-rule="evenodd" clip-rule="evenodd" d="M36.9561 3.9375H37.3326C43.4465 3.9375 48.2702 3.9375 51.7826 4.40196C55.2402 4.85732 58.3427 5.85911 59.8151 8.72178C60.0296 9.13464 60.2087 9.56166 60.3524 10.0029C61.3572 13.0689 59.8697 15.9711 57.7508 18.7153C55.5954 21.5052 52.1833 24.8839 47.8604 29.1643L40.3804 36.5714L47.8604 43.9785C52.1833 48.2589 55.5954 51.6376 57.7508 54.4275C59.8697 57.1717 61.3572 60.0739 60.3524 63.14C60.2062 63.58 60.0265 64.0083 59.8151 64.421C58.3427 67.2837 55.2402 68.2855 51.7856 68.7408C48.2702 69.2053 43.4465 69.2053 37.3356 69.2053H36.9561C30.8422 69.2053 26.0185 69.2053 22.5031 68.7408C19.0485 68.2855 15.946 67.2837 14.4706 64.421C14.2602 64.0082 14.0816 63.58 13.9363 63.14C12.9315 60.0739 14.419 57.1717 16.538 54.4275C18.6933 51.6376 22.1054 48.2589 26.4283 43.9785L33.9083 36.5714L26.4283 29.1643C22.1054 24.8839 18.6933 21.5052 16.538 18.7153C14.419 15.9711 12.9315 13.0689 13.9363 10.0029C14.0821 9.56166 14.2602 9.13464 14.4706 8.72178C15.946 5.85911 19.0485 4.85732 22.5031 4.40196C26.0185 3.9375 30.8453 3.9375 36.9561 3.9375ZM37.1444 33.3687L44.5211 26.0618C49.0079 21.6205 52.2015 18.4512 54.1443 15.9316C56.154 13.333 56.2602 12.143 56.0265 11.4205C55.9566 11.2097 55.8704 11.0047 55.7685 10.8073C55.4133 10.1182 54.4661 9.34714 51.1906 8.91607C48.0092 8.49714 43.489 8.49107 37.1444 8.49107C30.7997 8.49107 26.2765 8.49714 23.0981 8.91607C19.8196 9.34714 18.8754 10.1182 18.5203 10.8073C18.4184 11.0047 18.3321 11.2097 18.2622 11.4205C18.0285 12.143 18.1347 13.333 20.1444 15.9316C22.0872 18.4512 25.2808 21.6205 29.7676 26.0618L37.1444 33.3687ZM37.1444 39.7741L29.7676 47.081C25.2808 51.5223 22.0872 54.6916 20.1444 57.2112C18.1347 59.8098 18.0285 61.0028 18.2622 61.7223C18.331 61.9348 18.4171 62.1392 18.5203 62.3355C18.8754 63.0246 19.8226 63.7957 23.0981 64.2267C26.2796 64.6457 30.7997 64.6517 37.1444 64.6517C43.489 64.6517 48.0122 64.6457 51.1906 64.2267C54.4692 63.7957 55.4133 63.0246 55.7685 62.3355C55.8696 62.1392 55.9557 61.9348 56.0265 61.7223C56.2602 60.9998 56.154 59.8098 54.1443 57.2112C52.2015 54.6916 49.0079 51.5223 44.5211 47.081L37.1444 39.7741Z" fill="#E14617"/>
</svg>
