<?xml version="1.0" encoding="UTF-8"?>
<svg id="Layer_1" data-name="Layer 1" xmlns="http://www.w3.org/2000/svg" viewBox="0 0 100 100">
  <defs>
    <style>
      .cls-1 {
        fill: #9ca3af;
      }
    </style>
  </defs>
  <path class="cls-1" d="M50,97.61c-2.39,0-4.75-.79-6.65-2.23-10.12-8.72-32.83-30.79-32.83-53.51,0-10.55,4.11-20.46,11.57-27.92,7.46-7.45,17.37-11.56,27.92-11.56s20.45,4.11,27.92,11.56c7.46,7.46,11.56,17.38,11.56,27.92,0,22.72-22.71,44.79-32.48,53.22-2.27,1.72-4.63,2.51-6.99,2.51ZM50,16.33c-6.82,0-13.24,2.66-18.06,7.48-4.82,4.82-7.48,11.24-7.48,18.06,0,13.13,12.84,29.34,25.57,40.83,12.49-11.24,25.52-27.59,25.52-40.83,0-6.82-2.65-13.24-7.48-18.06-4.83-4.82-11.25-7.48-18.06-7.48Z"/>
  <path class="cls-1" d="M50,61.03c-10.57,0-19.16-8.59-19.16-19.16s8.59-19.16,19.16-19.16,19.16,8.59,19.16,19.16-8.59,19.16-19.16,19.16ZM50,36.65c-2.88,0-5.23,2.34-5.23,5.23s2.35,5.23,5.23,5.23,5.23-2.34,5.23-5.23-2.35-5.23-5.23-5.23Z"/>
</svg>