<?xml version="1.0" encoding="UTF-8"?>
<svg id="Layer_1" data-name="Layer 1" xmlns="http://www.w3.org/2000/svg" viewBox="0 0 100 100">
  <defs>
    <style>
      .cls-1 {
        opacity: .4;
      }

      .cls-2 {
        fill: #333;
      }
    </style>
  </defs>
  <g class="cls-1">
    <path class="cls-2" d="M10.04,91.47c-.92,0-1.82-.36-2.49-1.03-.88-.88-1.23-2.15-.93-3.35l4.7-18.8c.16-.62.48-1.19.93-1.64L66.71,12.19c4.88-4.88,13.4-4.88,18.28,0l.81.81c2.44,2.44,3.79,5.69,3.79,9.14s-1.35,6.7-3.79,9.14l-54.46,54.46c-.45.45-1.02.77-1.64.93l-18.8,4.7c-.28.07-.57.11-.85.11ZM17.92,70.95l-3.03,12.15,12.15-3.03,43.83-43.83-9.12-9.12-43.83,43.83ZM66.74,22.14l9.12,9.12,4.96-4.96c1.09-1.09,1.72-2.61,1.72-4.15s-.63-3.06-1.72-4.15l-.81-.81c-2.19-2.19-6.12-2.19-8.31,0l-4.96,4.96ZM89.96,91.47h-37.61c-1.95,0-3.53-1.58-3.53-3.53s1.58-3.53,3.53-3.53h37.61c1.95,0,3.53,1.58,3.53,3.53s-1.58,3.53-3.53,3.53Z"/>
  </g>
</svg>