<?xml version="1.0" encoding="UTF-8"?>
<svg id="Layer_1" data-name="Layer 1" xmlns="http://www.w3.org/2000/svg" viewBox="0 0 100 100">
  <defs>
    <style>
      .cls-1 {
        opacity: .4;
      }

      .cls-2 {
        fill: #333;
      }
    </style>
  </defs>
  <g class="cls-1">
    <path class="cls-2" d="M50,66.85c-4.5,0-8.73-1.75-11.91-4.93s-4.94-7.42-4.94-11.92,1.76-8.73,4.94-11.91c6.36-6.37,17.46-6.37,23.83,0,3.18,3.18,4.94,7.41,4.94,11.91s-1.75,8.73-4.94,11.92-7.41,4.93-11.91,4.93ZM50,39.89c-2.7,0-5.24,1.05-7.15,2.96-1.88,1.88-2.96,4.49-2.96,7.15s1.05,5.24,2.96,7.15c3.82,3.82,10.48,3.82,14.3,0,1.91-1.91,2.96-4.45,2.96-7.15s-1.08-5.27-2.96-7.15c-1.91-1.91-4.45-2.96-7.15-2.96Z"/>
  </g>
  <g class="cls-1">
    <path class="cls-2" d="M50,84.82c-21.56,0-39.97-12.87-48.07-33.6-.31-.79-.31-1.67,0-2.45C10.03,28.05,28.45,15.18,50,15.18s39.98,12.87,48.07,33.6c.31.79.31,1.66,0,2.45-8.09,20.72-26.51,33.6-48.07,33.6ZM8.7,50c7.3,17.36,23.01,28.08,41.3,28.08s34-10.72,41.3-28.08c-7.29-17.36-23-28.08-41.3-28.08s-34,10.72-41.3,28.08Z"/>
  </g>
</svg>