<?xml version="1.0" encoding="UTF-8"?>
<svg id="Layer_1" data-name="Layer 1" xmlns="http://www.w3.org/2000/svg" xmlns:xlink="http://www.w3.org/1999/xlink" viewBox="0 0 100 100">
  <defs>
    <style>
      .cls-1 {
        fill: #fff;
      }

      .cls-2 {
        fill: none;
      }

      .cls-3 {
        clip-path: url(#clippath);
      }
    </style>
    <clipPath id="clippath">
      <rect class="cls-2" x="7.3" y="7.3" width="85.39" height="85.39"/>
    </clipPath>
  </defs>
  <g class="cls-3">
    <path class="cls-1" d="M90.18,14.74c-.27-1.19-.87-2.28-1.75-3.17-.88-.88-1.98-1.48-3.17-1.75-1.22-.28-2.49-.19-3.56.2L14.1,33.15c-1.26.43-2.35,1.22-3.17,2.33-.79,1.08-1.22,2.35-1.26,3.68-.03,1.33.34,2.63,1.07,3.75.73,1.11,1.77,1.97,3.03,2.47l28.22,11.32c.29.12.56.29.79.53.23.22.41.49.52.78l11.32,28.22c.5,1.25,1.36,2.3,2.46,3.01,1.07.71,2.31,1.08,3.6,1.08.06,0,.11,0,.17,0,1.34-.03,2.62-.47,3.7-1.27,1.08-.8,1.88-1.89,2.3-3.14l23.09-67.5c.42-1.15.51-2.39.24-3.67ZM68.85,24.45l-23.41,23.41-20.72-8.31,44.13-15.1ZM63.43,82.7h0s0,0,0,0c0,0,0,0,0,0ZM60.45,75.28l-8.31-20.72,23.4-23.4-15.1,44.12Z"/>
  </g>
</svg>