<svg width="14" height="11" viewBox="0 0 14 11" fill="none" xmlns="http://www.w3.org/2000/svg">
<path d="M6.4522 10.046C6.51336 10.1348 6.5952 10.2075 6.69066 10.2576C6.78613 10.3078 6.89236 10.334 7.0002 10.334C7.10805 10.334 7.21428 10.3078 7.30974 10.2576C7.40521 10.2075 7.48704 10.1348 7.5482 10.046L13.5482 1.37933C13.6177 1.27937 13.6584 1.16228 13.666 1.0408C13.6735 0.919315 13.6477 0.798077 13.5912 0.690258C13.5347 0.582438 13.4498 0.492161 13.3456 0.429234C13.2414 0.366307 13.1219 0.333137 13.0002 0.333329H1.0002C0.878764 0.333831 0.759761 0.367427 0.655989 0.430504C0.552217 0.493582 0.467604 0.583754 0.411248 0.691324C0.354892 0.798895 0.328925 0.919792 0.336141 1.04102C0.343357 1.16224 0.383483 1.2792 0.452202 1.37933L6.4522 10.046Z" fill="#8B99A0"/>
</svg>
