<?xml version="1.0" encoding="UTF-8"?>
<svg id="Layer_1" data-name="Layer 1" xmlns="http://www.w3.org/2000/svg" viewBox="0 0 100 100">
  <defs>
    <style>
      .cls-1 {
        fill: #fff;
      }
    </style>
  </defs>
  <path class="cls-1" d="M31.67,36.15l12.57-12.56v39.85c0,3.18,2.58,5.76,5.76,5.76s5.76-2.58,5.76-5.76V23.58l12.57,12.56c2.25,2.25,5.89,2.25,8.14,0,2.25-2.25,2.25-5.89,0-8.14L54.07,5.61s0,0,0,0c0,0,0,0,0,0h0c-.09-.05-.01-.01-.01-.01,0,0,0,0,0-.01,0,0-.01,0-.01-.01-.18-.18-.37-.34-.57-.49h0s0,0-.01-.01c0-.01,0,0-.01-.01,0,0,0,0,0,0t-.01-.01s0,0,0,0c0,0,0,0,0,0h-.02c-.37-.28-.78-.51-1.19-.67-1.36-.55-3.04-.54-4.39.03-.37.16-.73.36-1.07.59,0,0-.01,0-.01.01h0s-.01.01-.01.01c0,0-.01,0-.01.01,0,.01-.01,0-.01.01h0s0,.02-.01.01c-.03.06-.01.01-.01.01-.08.05-.01.01-.01.01h-.01c-.21.17-.42.34-.61.54h-.01s0,.02,0,.02t0,0l-22.4,22.39c-2.25,2.25-2.25,5.89,0,8.14,2.25,2.25,5.89,2.25,8.14,0Z"/>
  <path class="cls-1" d="M90.31,57.67c-3.18,0-5.76,2.58-5.76,5.76v17.92c0,.85-.33,1.66-.94,2.26-.6.6-1.42.94-2.26.94H18.65c-.84,0-1.66-.34-2.26-.94-.61-.6-.94-1.41-.94-2.26v-17.92c0-3.18-2.58-5.76-5.76-5.76s-5.76,2.58-5.76,5.76v17.92c0,3.93,1.53,7.63,4.31,10.4,2.78,2.78,6.48,4.31,10.41,4.31h62.7c3.93,0,7.63-1.53,10.41-4.31,2.78-2.78,4.31-6.47,4.31-10.4v-17.92c0-3.18-2.58-5.76-5.76-5.76Z"/>
</svg>