<?xml version="1.0" encoding="UTF-8"?>
<svg id="Layer_1" data-name="Layer 1" xmlns="http://www.w3.org/2000/svg" viewBox="0 0 100 100">
  <defs>
    <style>
      .cls-1 {
        fill: #4b5563;
      }
    </style>
  </defs>
  <path class="cls-1" d="M76.67,31.19H23.84c-1.5,0-4.12,2.45-4.63,3.92-1.04,2.97,1.61,14.1-4.97,11.49-2.87-1.14-2.03-9.74-1.36-12.35.97-3.77,5.84-9.22,9.93-9.22h53.85c-1.3-2.25-7.21-6.31-7.78-8.46-.49-1.85.46-3.55,2.31-4.04,1.28-.34,2.11.29,3.09,1.04,2.54,1.97,10.17,9.6,12.14,12.14,1.54,1.99,1.53,2.82,0,4.8-1.96,2.53-9.6,10.18-12.14,12.14-.97.75-1.81,1.38-3.09,1.04-1.85-.49-2.8-2.19-2.31-4.04.57-2.15,6.48-6.21,7.78-8.46Z"/>
  <path class="cls-1" d="M23.33,74.96c1.3,2.25,7.21,6.31,7.78,8.46.49,1.85-.46,3.55-2.31,4.04-1.28.34-2.11-.29-3.09-1.04-2.54-1.97-10.17-9.6-12.14-12.14-1.54-1.99-1.53-2.82,0-4.8,1.96-2.53,9.6-10.18,12.14-12.14.97-.75,1.81-1.38,3.09-1.04,1.85.49,2.8,2.19,2.31,4.04-.57,2.15-6.48,6.21-7.78,8.46h52.83c1.5,0,4.12-2.45,4.63-3.92,1.04-2.97-1.61-14.1,4.97-11.49,2.87,1.14,2.03,9.74,1.36,12.35-.97,3.77-5.84,9.22-9.93,9.22H23.33Z"/>
</svg>