<?xml version="1.0" encoding="UTF-8"?>
<svg id="Layer_1" data-name="Layer 1" xmlns="http://www.w3.org/2000/svg" viewBox="0 0 100 100">
  <defs>
    <style>
      .cls-1 {
        fill: #46a756;
      }
    </style>
  </defs>
  <path class="cls-1" d="M59.07,50c0,3.36-1.81,6.26-4.54,7.8v37.56h-9.07v-37.56c-2.72-1.59-4.54-4.45-4.54-7.8,0-4.99,4.08-9.07,9.07-9.07s9.07,4.08,9.07,9.07ZM50,22.78c-15.02,0-27.22,12.2-27.22,27.22,0,7.89,3.4,15.02,8.8,19.96l6.44-6.44c-1.93-1.68-3.48-3.76-4.55-6.09-1.06-2.33-1.62-4.86-1.62-7.43,0-10.03,8.12-18.15,18.15-18.15s18.15,8.12,18.15,18.15c0,5.4-2.4,10.21-6.17,13.52l6.44,6.44c2.77-2.53,4.99-5.62,6.5-9.05,1.52-3.44,2.3-7.15,2.3-10.91,0-15.02-12.2-27.22-27.22-27.22ZM50,4.63C24.96,4.63,4.63,24.96,4.63,50c0,12.93,5.44,24.54,14.11,32.84l6.44-6.44c-3.61-3.39-6.49-7.47-8.47-12.01-1.97-4.54-3-9.44-3.01-14.39,0-20.01,16.29-36.29,36.29-36.29s36.29,16.29,36.29,36.29c0,10.39-4.45,19.78-11.48,26.4l6.44,6.44c8.66-8.3,14.11-19.92,14.11-32.84,0-25.04-20.32-45.37-45.37-45.37Z"/>
</svg>