<?xml version="1.0" encoding="UTF-8"?>
<svg id="Layer_1" data-name="Layer 1" xmlns="http://www.w3.org/2000/svg" viewBox="0 0 100 100">
  <defs>
    <style>
      .cls-1 {
        fill: #8b5cf6;
      }
    </style>
  </defs>
  <path class="cls-1" d="M79.58,16.19h-8.45v-4.23c0-1.12-.45-2.2-1.24-2.99-.79-.79-1.87-1.24-2.99-1.24s-2.2.45-2.99,1.24c-.79.79-1.24,1.87-1.24,2.99v4.23h-25.36v-4.23c0-1.12-.45-2.2-1.24-2.99-.79-.79-1.87-1.24-2.99-1.24s-2.2.45-2.99,1.24c-.79.79-1.24,1.87-1.24,2.99v4.23h-8.45c-3.36,0-6.59,1.34-8.96,3.71-2.38,2.38-3.71,5.6-3.71,8.96v50.71c0,3.36,1.34,6.59,3.71,8.96,2.38,2.38,5.6,3.71,8.96,3.71h59.17c3.36,0,6.59-1.34,8.96-3.71,2.38-2.38,3.71-5.6,3.71-8.96V28.87c0-3.36-1.34-6.59-3.71-8.96-2.38-2.38-5.6-3.71-8.96-3.71ZM83.81,79.58c0,1.12-.45,2.2-1.24,2.99s-1.87,1.24-2.99,1.24H20.42c-1.12,0-2.2-.45-2.99-1.24-.79-.79-1.24-1.87-1.24-2.99v-29.58h67.62v29.58ZM83.81,41.55H16.19v-12.68c0-1.12.45-2.2,1.24-2.99.79-.79,1.87-1.24,2.99-1.24h8.45v4.23c0,1.12.45,2.2,1.24,2.99.79.79,1.87,1.24,2.99,1.24s2.2-.45,2.99-1.24c.79-.79,1.24-1.87,1.24-2.99v-4.23h25.36v4.23c0,1.12.45,2.2,1.24,2.99.79.79,1.87,1.24,2.99,1.24s2.2-.45,2.99-1.24c.79-.79,1.24-1.87,1.24-2.99v-4.23h8.45c1.12,0,2.2.45,2.99,1.24.79.79,1.24,1.87,1.24,2.99v12.68Z"/>
</svg>