<svg width="16" height="16" viewBox="0 0 16 16" fill="none" xmlns="http://www.w3.org/2000/svg">
<g clip-path="url(#clip0_2250_11636)">
<path d="M3.15976 5.08598C3.15976 4.29116 3.4755 3.5289 4.03753 2.96688C4.59955 2.40485 5.36182 2.08911 6.15664 2.08911C6.95146 2.08911 7.71372 2.40485 8.27575 2.96688C8.83777 3.5289 9.15351 4.29116 9.15351 5.08598C9.15351 5.8808 8.83777 6.64307 8.27575 7.20509C7.71372 7.76712 6.95146 8.08286 6.15664 8.08286C5.36182 8.08286 4.59955 7.76712 4.03753 7.20509C3.4755 6.64307 3.15976 5.8808 3.15976 5.08598ZM0.912109 13.3812C0.912109 11.075 2.78047 9.20668 5.08666 9.20668H7.22661C9.5328 9.20668 11.4012 11.075 11.4012 13.3812C11.4012 13.7652 11.0898 14.0766 10.7058 14.0766H1.60748C1.2235 14.0766 0.912109 13.7652 0.912109 13.3812ZM12.7123 9.39399V7.89555H11.2139C10.9025 7.89555 10.6519 7.64503 10.6519 7.33364C10.6519 7.02224 10.9025 6.77173 11.2139 6.77173H12.7123V5.27329C12.7123 4.96189 12.9628 4.71138 13.2742 4.71138C13.5856 4.71138 13.8361 4.96189 13.8361 5.27329V6.77173H15.3346C15.646 6.77173 15.8965 7.02224 15.8965 7.33364C15.8965 7.64503 15.646 7.89555 15.3346 7.89555H13.8361V9.39399C13.8361 9.70538 13.5856 9.9559 13.2742 9.9559C12.9628 9.9559 12.7123 9.70538 12.7123 9.39399Z" fill="#374151"/>
</g>
<defs>
<clipPath id="clip0_2250_11636">
<path d="M0.912109 2.08911H15.8965V14.0766H0.912109V2.08911Z" fill="white"/>
</clipPath>
</defs>
</svg>
