<svg width="16" height="16" viewBox="0 0 16 16" fill="none" xmlns="http://www.w3.org/2000/svg">
<g clip-path="url(#clip0_2417_2399)">
<path d="M5.57418 0.526245C3.97553 1.08083 2.59686 2.13345 1.64066 3.5295C0.684474 4.92554 0.201165 6.59142 0.261729 8.28245C0.322293 9.97348 0.923537 11.6005 1.97715 12.9246C3.03076 14.2486 4.4812 15.1999 6.11543 15.6387C7.44033 15.9806 8.82844 15.9956 10.1604 15.6825C11.3671 15.4115 12.4827 14.8317 13.3979 14C14.3505 13.1079 15.042 11.9731 15.3979 10.7175C15.7848 9.35208 15.8537 7.91616 15.5992 6.51999H8.15918V9.60625H12.4679C12.3818 10.0985 12.1973 10.5683 11.9254 10.9875C11.6535 11.4068 11.2997 11.7669 10.8854 12.0462C10.3593 12.3943 9.76617 12.6285 9.14418 12.7337C8.52036 12.8497 7.8805 12.8497 7.25668 12.7337C6.62441 12.603 6.0263 12.3421 5.50043 11.9675C4.65561 11.3695 4.02127 10.5199 3.68793 9.54C3.34894 8.54174 3.34894 7.4595 3.68793 6.46124C3.92521 5.76151 4.31747 5.12441 4.83543 4.59749C5.42817 3.98343 6.17859 3.54449 7.00437 3.32884C7.83015 3.11319 8.69937 3.12916 9.51668 3.37499C10.1551 3.57098 10.739 3.91342 11.2217 4.37499C11.7075 3.89166 12.1925 3.40708 12.6767 2.92124C12.9267 2.65999 13.1992 2.41124 13.4454 2.14374C12.7086 1.45809 11.8438 0.924566 10.9004 0.573745C9.18256 -0.0500179 7.3029 -0.066781 5.57418 0.526245Z" fill="white"/>
<path d="M5.57418 0.526245C7.30275 -0.067184 9.18241 -0.0508623 10.9004 0.572495C11.8439 0.925699 12.7084 1.46179 13.4442 2.14999C13.1942 2.41749 12.9304 2.66749 12.6754 2.92749C12.1904 3.41166 11.7058 3.89416 11.2217 4.37499C10.739 3.91342 10.1551 3.57098 9.51668 3.37499C8.69965 3.1283 7.83045 3.1114 7.00445 3.32617C6.17845 3.54094 5.42757 3.97907 4.83418 4.59249C4.31622 5.11941 3.92396 5.75652 3.68668 6.45624L1.09543 4.44999C2.02294 2.6107 3.62886 1.20377 5.57418 0.526245Z" fill="#E33629"/>
<path d="M0.407926 6.43749C0.547203 5.74724 0.778431 5.07878 1.09543 4.44999L3.68668 6.46124C3.34769 7.4595 3.34769 8.54174 3.68668 9.54C2.82334 10.2067 1.95959 10.8767 1.09543 11.55C0.301864 9.97039 0.0598419 8.17062 0.407926 6.43749Z" fill="#F8BD00"/>
<path d="M8.15918 6.51874H15.5992C15.8537 7.91491 15.7848 9.35083 15.3979 10.7162C15.042 11.9718 14.3505 13.1067 13.3979 13.9987C12.5617 13.3462 11.7217 12.6987 10.8854 12.0462C11.3 11.7666 11.6539 11.4061 11.9258 10.9864C12.1977 10.5667 12.3821 10.0964 12.4679 9.60375H8.15918C8.15793 8.57625 8.15918 7.54749 8.15918 6.51874Z" fill="#587DBD"/>
<path d="M1.09418 11.55C1.95834 10.8833 2.82209 10.2133 3.68543 9.54C4.01944 10.5202 4.65468 11.3699 5.50043 11.9675C6.02794 12.3403 6.62734 12.5992 7.26043 12.7275C7.88425 12.8435 8.52411 12.8435 9.14793 12.7275C9.76992 12.6222 10.363 12.388 10.8892 12.04C11.7254 12.6925 12.5654 13.34 13.4017 13.9925C12.4865 14.8247 11.371 15.4048 10.1642 15.6762C8.83219 15.9894 7.44408 15.9744 6.11918 15.6325C5.0713 15.3527 4.09252 14.8595 3.24418 14.1837C2.34625 13.4709 1.61287 12.5725 1.09418 11.55Z" fill="#319F43"/>
</g>
<defs>
<clipPath id="clip0_2417_2399">
<rect width="16" height="16" fill="white"/>
</clipPath>
</defs>
</svg>
