<?xml version="1.0" encoding="UTF-8"?>
<svg id="Layer_1" xmlns="http://www.w3.org/2000/svg" version="1.1" viewBox="0 0 100 100">
  <!-- Generator: Adobe Illustrator 29.4.0, SVG Export Plug-In . SVG Version: 2.1.0 Build 152)  -->
  <defs>
    <style>
      .st0 {
        fill: #fff;
      }
    </style>
  </defs>
  <path class="st0" d="M50.8,28.8c12.9,0,36,8.9,44.1,19.2s.2,9.1-3,13.6-5.9,9.7-10.1,9.6-14.4-3.7-16.9-5.1c-7.6-4.2-2.3-7.2-1.8-12.3s-4.7-4.8-8.1-5-12.3.3-16.6,1.4.7,8-1.3,11.9-10.7,6.9-13.6,7.8c-8.1,2.6-13.5-3.3-17.2-9.8s-5.3-9.8.9-14.9c10.4-8.7,30-16.5,43.5-16.6ZM33.5,48.1c1.6-1.6,10.2-3.3,12.8-3.6,4.8-.6,12.9-.6,17.4,1.4s4.7,10.5,2.2,14.8c-.1,1.4,3.7,2.3,4.8,2.7,2.1.7,8.8,3,10.6,3s2.7-1.3,3.7-2.4,7-9.7,7-10.9c0-2.1-7-7.4-8.8-8.6-22.7-15.4-48.1-13.1-69.8,2.6-1.6,1.1-5.5,3.5-5.3,5.5.3,3.6,7,13.8,11.1,13.9s12.7-4.5,13.6-6.2c-.4-3.5-2.1-9.2.8-12.1Z"/>
</svg>