<?xml version="1.0" encoding="UTF-8"?>
<svg id="Layer_1" data-name="Layer 1" xmlns="http://www.w3.org/2000/svg" viewBox="0 0 100 100">
  <defs>
    <style>
      .cls-1 {
        fill: #6b7280;
        fill-rule: evenodd;
      }
    </style>
  </defs>
  <path class="cls-1" d="M50,4.76c-5.3,0-10.39,2.11-14.13,5.85-3.75,3.75-5.85,8.83-5.85,14.13s2.11,10.39,5.85,14.13c3.75,3.75,8.83,5.85,14.13,5.85s10.38-2.11,14.13-5.85c3.75-3.75,5.85-8.83,5.85-14.13s-2.11-10.39-5.85-14.13c-3.75-3.75-8.83-5.85-14.13-5.85ZM36.32,24.75c0-3.63,1.44-7.11,4.01-9.67,2.56-2.56,6.04-4.01,9.67-4.01s7.11,1.44,9.67,4.01,4.01,6.04,4.01,9.67-1.44,7.11-4.01,9.67c-2.56,2.56-6.04,4.01-9.67,4.01s-7.11-1.44-9.67-4.01c-2.56-2.56-4.01-6.04-4.01-9.67ZM50,51.05c-9.73,0-18.7,2.21-25.35,5.95-6.55,3.69-11.47,9.27-11.47,16.14v.43c0,4.89,0,11.03,5.37,15.41,2.65,2.15,6.35,3.69,11.36,4.7,5.02,1.02,11.56,1.55,20.08,1.55s15.06-.53,20.09-1.55c5.01-1.01,8.71-2.55,11.36-4.7,5.38-4.38,5.37-10.52,5.37-15.41v-.43c0-6.88-4.92-12.46-11.47-16.14-6.65-3.74-15.62-5.95-25.35-5.95ZM19.49,73.14c0-3.58,2.62-7.47,8.25-10.64,5.54-3.11,13.4-5.14,22.26-5.14s16.71,2.03,22.25,5.14c5.64,3.17,8.25,7.06,8.25,10.64,0,5.5-.17,8.6-3.05,10.94-1.56,1.27-4.17,2.51-8.63,3.41-4.45.9-10.53,1.43-18.83,1.43s-14.39-.53-18.83-1.43c-4.46-.9-7.07-2.14-8.63-3.41-2.88-2.34-3.05-5.44-3.05-10.94Z"/>
</svg>