<?xml version="1.0" encoding="UTF-8"?>
<svg id="Layer_1" data-name="Layer 1" xmlns="http://www.w3.org/2000/svg" viewBox="0 0 100 100">
  <defs>
    <style>
      .cls-1 {
        fill: #fff;
      }
    </style>
  </defs>
  <path class="cls-1" d="M7.97,95.39c-.86,0-1.72-.33-2.38-.98-1.31-1.31-1.31-3.44,0-4.75L89.65,5.6c1.31-1.31,3.44-1.31,4.75,0s1.31,3.44,0,4.75l-47.56,47.56c3.72,3.3,7.86,6.07,12.33,8.26l3.62,1.75-2.67-2.04,1.49-1.96c1.06-1.42,2.5-2.63,4.12-3.44,1.63-.82,3.45-1.25,5.27-1.25h12.61c3.1,0,6.13,1.25,8.32,3.45s3.45,5.22,3.45,8.32v12.61c0,3.15-1.22,6.1-3.45,8.32-2.19,2.19-5.22,3.45-8.32,3.45-10.43,0-20.6-2.02-30.24-6.01-8.6-3.57-16.39-8.54-23.2-14.8l-19.83,19.83c-.66.66-1.52.98-2.38.98ZM34.94,69.82c6.19,5.64,13.24,10.12,21.02,13.34,8.82,3.65,18.12,5.5,27.66,5.5,1.33,0,2.63-.54,3.57-1.48s1.48-2.22,1.48-3.57v-12.61c0-1.33-.54-2.63-1.48-3.57s-2.24-1.48-3.57-1.48h-12.61c-.78,0-1.56.18-2.26.53s-1.31.86-1.77,1.48l-1.51,1.98c-1.06,1.38-2.55,2.35-4.2,2.76-1.68.42-3.44.24-4.99-.47-5.2-2.55-9.95-5.75-14.2-9.57l-7.14,7.14ZM19.57,60.01c-1.12,0-2.21-.56-2.85-1.58-7.93-12.63-12.12-27.17-12.11-42.06,0-3.1,1.25-6.13,3.45-8.32,2.22-2.23,5.17-3.45,8.32-3.45h12.61c3.1,0,6.13,1.25,8.32,3.45,2.19,2.19,3.45,5.22,3.45,8.32v12.61c0,1.83-.43,3.64-1.25,5.27-.81,1.62-2.01,3.06-3.46,4.15l-5.21,3.97,3.01-1.5.98,1.9c.88,1.64.27,3.67-1.37,4.56-1.6.85-3.66.28-4.56-1.37-.37-.68-.73-1.38-1.08-2.08-.77-1.61-.97-3.4-.57-5.09.4-1.7,1.39-3.22,2.77-4.27l1.99-1.5c.62-.47,1.14-1.08,1.48-1.78.35-.7.53-1.47.53-2.25v-12.61c0-1.33-.54-2.63-1.48-3.57s-2.24-1.48-3.57-1.48h-12.61c-1.35,0-2.61.53-3.57,1.48s-1.48,2.24-1.48,3.57c0,13.62,3.83,26.93,11.08,38.49.98,1.57.51,3.64-1.06,4.64-.55.35-1.18.51-1.79.51Z"/>
</svg>