<?xml version="1.0" encoding="UTF-8"?>
<svg id="Layer_1" data-name="Layer 1" xmlns="http://www.w3.org/2000/svg" xmlns:xlink="http://www.w3.org/1999/xlink" viewBox="0 0 100 100">
  <defs>
    <style>
      .cls-1 {
        fill: none;
      }

      .cls-2 {
        fill: #22c55e;
      }

      .cls-3 {
        clip-path: url(#clippath);
      }
    </style>
    <clipPath id="clippath">
      <rect class="cls-1" x="0" width="100" height="100"/>
    </clipPath>
  </defs>
  <g class="cls-3">
    <path class="cls-2" d="M50,100c13.26,0,25.98-5.27,35.36-14.64,9.38-9.38,14.64-22.1,14.64-35.36s-5.27-25.98-14.64-35.36C75.98,5.27,63.26,0,50,0S24.02,5.27,14.64,14.64C5.27,24.02,0,36.74,0,50s5.27,25.98,14.64,35.36c9.38,9.38,22.09,14.64,35.36,14.64ZM72.07,40.82l-25,25c-1.84,1.84-4.8,1.84-6.62,0l-12.5-12.5c-1.84-1.84-1.84-4.8,0-6.62,1.84-1.82,4.8-1.84,6.62,0l9.18,9.18,21.68-21.7c1.84-1.84,4.8-1.84,6.62,0s1.84,4.8,0,6.62l.02.02Z"/>
  </g>
</svg>