<svg width="72" height="72" viewBox="0 0 72 72" fill="none" xmlns="http://www.w3.org/2000/svg">
<path d="M56.7285 33.4062H15.1669C11.8877 33.4062 9.22949 36.0645 9.22949 39.3436V60.1245C9.22949 63.4036 11.8877 66.0618 15.1669 66.0618H56.7285C60.0077 66.0618 62.6659 63.4036 62.6659 60.1245V39.3436C62.6659 36.0645 60.0077 33.4062 56.7285 33.4062Z" stroke="#92400E" stroke-width="3.66608" stroke-linecap="round" stroke-linejoin="round"/>
<path d="M21.1084 33.4057V21.5309C21.1084 17.5942 22.6723 13.8187 25.4559 11.035C28.2396 8.25136 32.0151 6.6875 35.9518 6.6875C39.8886 6.6875 43.6641 8.25136 46.4477 11.035C49.2314 13.8187 50.7953 17.5942 50.7953 21.5309V33.4057" stroke="#92400E" stroke-width="3.66608" stroke-linecap="round" stroke-linejoin="round"/>
</svg>
