<?xml version="1.0" encoding="UTF-8"?>
<svg id="Layer_1" data-name="Layer 1" xmlns="http://www.w3.org/2000/svg" viewBox="0 0 100 100">
  <defs>
    <style>
      .cls-1 {
        opacity: .4;
      }

      .cls-2 {
        fill: #333;
      }
    </style>
  </defs>
  <g class="cls-1">
    <path class="cls-2" d="M50,67.03c-9.39,0-17.03-7.64-17.03-17.03s7.64-17.03,17.03-17.03,17.03,7.64,17.03,17.03-7.64,17.03-17.03,17.03ZM50,41.49c-4.69,0-8.51,3.82-8.51,8.51s3.82,8.51,8.51,8.51,8.51-3.82,8.51-8.51-3.82-8.51-8.51-8.51Z"/>
  </g>
  <g class="cls-1">
    <path class="cls-2" d="M50,96.82c-4.39,0-6.8,0-9.15-.97-1.55-.64-2.95-1.57-4.14-2.77s-2.12-2.59-2.77-4.15c-.72-1.71-.87-3.48-.93-5.14-.04-.96-.5-1.8-1.25-2.24-.33-.18-.77-.3-1.22-.3h0c-.43,0-.88.11-1.28.33-1.5.79-3.11,1.54-4.94,1.79-1.7.22-3.37.11-4.99-.33-1.61-.43-3.12-1.17-4.46-2.2-2.02-1.56-3.22-3.65-5.41-7.43-2.2-3.82-3.4-5.9-3.73-8.41-.22-1.68-.11-3.36.32-4.98.42-1.6,1.16-3.11,2.19-4.45,1.13-1.47,2.59-2.49,3.99-3.38.84-.52,1.33-1.34,1.33-2.19s-.49-1.67-1.32-2.19c-1.4-.88-2.84-1.89-3.98-3.36-1.04-1.36-1.78-2.87-2.21-4.49-.43-1.61-.54-3.28-.32-4.96.32-2.5,1.51-4.57,3.68-8.32,2.23-3.87,3.43-5.95,5.44-7.5,2.74-2.09,6.08-2.98,9.46-2.54,1.86.25,3.47,1,4.92,1.77.44.24.88.35,1.33.35h0c.44,0,.88-.12,1.27-.34.28-.17.6-.49.83-.88.22-.38.35-.82.35-1.27.06-1.69.22-3.45.93-5.18.65-1.57,1.58-2.96,2.77-4.15,1.2-1.2,2.59-2.12,4.14-2.77,2.35-.97,4.76-.97,9.15-.97s6.79,0,9.14.97h0c1.56.64,2.96,1.58,4.15,2.77s2.12,2.59,2.77,4.15c.72,1.71.87,3.48.93,5.14.01.49.14.94.37,1.33.22.37.54.7.92.93.28.15.73.27,1.18.27h0c.43,0,.87-.11,1.26-.32,1.51-.8,3.11-1.54,4.96-1.79,1.68-.22,3.36-.11,4.98.32,1.61.43,3.12,1.17,4.46,2.2,2.01,1.55,3.2,3.6,5.37,7.35,2.24,3.88,3.44,5.97,3.78,8.49.22,1.68.11,3.35-.33,4.98-.43,1.62-1.18,3.13-2.21,4.47-1.12,1.46-2.57,2.48-3.97,3.37-.84.52-1.33,1.34-1.33,2.19,0,.39.12.83.35,1.22.22.38.54.71.91.94,1.45.91,2.9,1.93,4.03,3.39,1.05,1.36,1.79,2.87,2.22,4.5.43,1.62.54,3.29.32,4.96-.33,2.52-1.54,4.61-3.74,8.41-2.2,3.82-3.4,5.89-5.4,7.43-1.33,1.03-2.85,1.77-4.48,2.21-1.61.44-3.3.55-4.96.32-1.85-.25-3.46-1-4.92-1.77-.44-.24-.88-.35-1.32-.35h0c-.44,0-.89.12-1.27.34-.69.4-1.15,1.23-1.19,2.2-.06,1.64-.21,3.4-.92,5.13-.65,1.57-1.58,2.96-2.77,4.15-1.19,1.2-2.59,2.13-4.16,2.78-2.33.96-4.74.96-9.12.96ZM30.55,72.74h.04c1.9.01,3.75.5,5.39,1.42,3.35,1.95,5.4,5.42,5.54,9.32.04,1.13.13,1.82.28,2.19.22.53.53.99.93,1.39.4.4.86.71,1.38.92.79.33,2.82.33,5.89.33s5.1,0,5.88-.32c.53-.22.99-.52,1.38-.91.4-.41.72-.87.93-1.39.15-.38.25-1.08.29-2.2.14-3.92,2.19-7.39,5.48-9.29,1.69-.95,3.55-1.44,5.44-1.45h.04c1.88,0,3.73.47,5.37,1.36.96.51,1.61.78,2.02.83.53.07,1.09.03,1.64-.11.55-.15,1.05-.39,1.49-.73.67-.52,1.67-2.25,3.19-4.88,1.58-2.72,2.59-4.48,2.7-5.32.07-.56.03-1.11-.11-1.66-.15-.55-.39-1.05-.74-1.5-.24-.31-.8-.74-1.77-1.35-1.55-.94-2.89-2.32-3.82-3.96s-1.44-3.5-1.47-5.38c0-3.87,1.98-7.38,5.3-9.46.96-.6,1.52-1.03,1.76-1.35.35-.44.59-.94.73-1.48.15-.56.19-1.11.12-1.66-.11-.84-1.13-2.6-2.66-5.27-1.56-2.69-2.56-4.42-3.23-4.94-.43-.33-.95-.59-1.48-.72-.54-.15-1.1-.18-1.66-.11-.4.05-1.06.33-2.06.86-1.59.86-3.44,1.33-5.3,1.33h-.04c-1.9-.01-3.75-.5-5.39-1.42-1.71-1.02-3.07-2.39-4.02-4.01-.96-1.64-1.48-3.49-1.53-5.36-.04-1.08-.13-1.78-.28-2.14-.22-.53-.53-.99-.93-1.39-.4-.39-.86-.71-1.38-.92h0c-.78-.32-2.81-.32-5.88-.32s-5.1,0-5.89.32c-.52.22-.99.53-1.39.93-.39.39-.7.85-.91,1.37-.15.37-.25,1.08-.29,2.2-.05,1.82-.57,3.67-1.51,5.3-.96,1.64-2.32,3-3.92,3.96-1.75.98-3.62,1.47-5.5,1.48h-.04c-1.87,0-3.72-.47-5.36-1.36-.94-.5-1.6-.77-2.01-.83-1.13-.15-2.23.15-3.14.84-.67.52-1.74,2.37-3.22,4.93-1.56,2.7-2.56,4.42-2.66,5.25-.07.57-.04,1.13.1,1.67.14.54.39,1.06.74,1.5.24.31.8.74,1.76,1.34,3.32,2.09,5.3,5.6,5.3,9.4s-1.99,7.32-5.31,9.4c-.95.6-1.52,1.04-1.76,1.36-.33.44-.58.94-.72,1.48-.15.55-.18,1.11-.11,1.67.11.83,1.12,2.58,2.65,5.23,1.55,2.68,2.57,4.44,3.25,4.97.44.33.94.58,1.47.72.55.15,1.11.17,1.67.12.39-.05,1.04-.32,2.05-.86,1.6-.87,3.45-1.34,5.31-1.34Z"/>
  </g>
</svg>