<?xml version="1.0" encoding="UTF-8"?>
<svg id="Layer_1" data-name="Layer 1" xmlns="http://www.w3.org/2000/svg" viewBox="0 0 100 100">
  <defs>
    <style>
      .cls-1 {
        fill: #333;
      }
    </style>
  </defs>
  <path class="cls-1" d="M96.67,30.86c0-.3-.03-.6-.09-.9-.03-.15-.08-.29-.13-.43-.05-.16-.08-.32-.15-.48-.07-.17-.16-.32-.25-.47-.07-.12-.12-.25-.2-.36-.35-.53-.81-.99-1.34-1.34-.12-.08-.26-.14-.39-.21-.15-.08-.29-.17-.45-.24-.17-.07-.34-.11-.51-.16-.13-.04-.26-.09-.4-.12-.31-.06-.63-.1-.95-.1h-25.88c-2.68,0-4.85,2.17-4.85,4.85s2.17,4.85,4.85,4.85h14.17l-27.11,27.11-13.75-13.75c-1.52-1.49-3.53-2.31-5.66-2.31s-4.14.82-5.7,2.35l-23.62,23.62c-1.9,1.9-1.9,4.97,0,6.86.95.95,2.19,1.42,3.43,1.42s2.48-.47,3.43-1.42l22.45-22.45,13.75,13.75c1.52,1.49,3.53,2.31,5.66,2.31s4.14-.82,5.7-2.35l28.28-28.28v14.17c0,2.68,2.17,4.85,4.85,4.85s4.85-2.17,4.85-4.85v-25.88s0-.03,0-.05Z"/>
</svg>