<?xml version="1.0" encoding="UTF-8"?>
<svg id="Layer_1" data-name="Layer 1" xmlns="http://www.w3.org/2000/svg" viewBox="0 0 100 100">
  <defs>
    <style>
      .cls-1 {
        opacity: .4;
      }

      .cls-2 {
        fill: #333;
      }
    </style>
  </defs>
  <g class="cls-1">
    <path class="cls-2" d="M66.56,93.47h-33.12c-2,0-3.94-.39-5.78-1.14-1.83-.76-3.48-1.86-4.89-3.27-1.41-1.41-2.52-3.07-3.28-4.91-.76-1.83-1.15-3.78-1.15-5.77V27.24h-6.2c-1.8,0-3.26-1.46-3.26-3.26s1.46-3.26,3.26-3.26h20.4v-3.84c0-1.36.26-2.7.78-3.97.53-1.26,1.28-2.39,2.25-3.36s2.1-1.72,3.36-2.25c1.27-.52,2.6-.79,3.97-.79h14.19c1.37,0,2.7.26,3.97.79,1.27.53,2.4,1.28,3.36,2.25.96.96,1.72,2.08,2.25,3.35.53,1.28.79,2.62.79,3.99v3.83h10.76c.12,0,.22,0,.34,0h9.29c1.8,0,3.26,1.46,3.26,3.26s-1.46,3.26-3.26,3.26h-6.2v51.15c0,4.02-1.57,7.81-4.42,10.67-2.85,2.85-6.64,4.42-10.67,4.42ZM24.87,27.24v51.14c0,1.13.22,2.23.65,3.28.43,1.05,1.06,1.99,1.86,2.79.8.8,1.74,1.43,2.78,1.86,1.04.43,2.14.65,3.28.65h33.12c2.26,0,4.47-.91,6.06-2.5,1.62-1.62,2.51-3.77,2.51-6.06V27.24H24.87ZM39.07,20.72h21.86v-3.84c0-.52-.09-1.01-.29-1.47-.19-.47-.47-.88-.82-1.24s-.79-.64-1.26-.84c-.47-.2-.96-.29-1.47-.29h-14.19c-.51,0-1,.1-1.47.29-.47.2-.89.47-1.25.83s-.65.79-.84,1.25c-.19.46-.29.95-.28,1.46v3.85ZM59.46,74.96c-1.8,0-3.26-1.46-3.26-3.26v-23.64c0-1.8,1.46-3.26,3.26-3.26s3.26,1.46,3.26,3.26v23.64c0,1.8-1.46,3.26-3.26,3.26ZM40.54,74.96c-1.8,0-3.26-1.46-3.26-3.26v-23.64c0-1.8,1.46-3.26,3.26-3.26s3.26,1.46,3.26,3.26v23.64c0,1.8-1.46,3.26-3.26,3.26Z"/>
  </g>
</svg>