<svg width="19" height="18" viewBox="0 0 19 18" fill="none" xmlns="http://www.w3.org/2000/svg">
<path d="M5.59375 7.25025C5.59375 6.71975 5.80449 6.21098 6.17961 5.83586C6.55473 5.46074 7.0635 5.25 7.594 5.25H14.0935C14.3562 5.25 14.6163 5.30174 14.859 5.40226C15.1016 5.50278 15.3221 5.65012 15.5079 5.83586C15.6936 6.0216 15.841 6.24211 15.9415 6.48479C16.042 6.72747 16.0937 6.98757 16.0938 7.25025V13.7498C16.0937 14.0124 16.042 14.2725 15.9415 14.5152C15.841 14.7579 15.6936 14.9784 15.5079 15.1641C15.3221 15.3499 15.1016 15.4972 14.859 15.5977C14.6163 15.6983 14.3562 15.75 14.0935 15.75H7.594C7.33132 15.75 7.07122 15.6983 6.82854 15.5977C6.58586 15.4972 6.36535 15.3499 6.17961 15.1641C5.99387 14.9784 5.84653 14.7579 5.74601 14.5152C5.64549 14.2725 5.59375 14.0124 5.59375 13.7498V7.25025Z" stroke="#4B5563" stroke-width="1.5" stroke-linecap="round" stroke-linejoin="round"/>
<path d="M3.35275 12.5527C3.1225 12.4219 2.93099 12.2325 2.79768 12.0037C2.66436 11.7749 2.594 11.5148 2.59375 11.25V3.75C2.59375 2.925 3.26875 2.25 4.09375 2.25H11.5938C12.1562 2.25 12.4622 2.53875 12.7188 3" stroke="#4B5563" stroke-width="1.5" stroke-linecap="round" stroke-linejoin="round"/>
</svg>
