<svg width="18" height="18" viewBox="0 0 18 18" fill="none" xmlns="http://www.w3.org/2000/svg">
<path d="M2.74759 15.4736C1.888 14.6434 1.20236 13.6503 0.730681 12.5522C0.259 11.4542 0.0107242 10.2732 0.000339811 9.0782C-0.0100445 7.88319 0.217671 6.69807 0.670199 5.59201C1.12273 4.48594 1.791 3.48107 2.63604 2.63604C3.48107 1.791 4.48594 1.12273 5.59201 0.670199C6.69807 0.217671 7.88319 -0.0100445 9.0782 0.000339811C10.2732 0.0107242 11.4542 0.259 12.5522 0.730681C13.6503 1.20236 14.6434 1.888 15.4736 2.74759C17.113 4.44501 18.0202 6.71843 17.9997 9.0782C17.9792 11.438 17.0326 13.6953 15.364 15.364C13.6953 17.0326 11.438 17.9792 9.0782 17.9997C6.71843 18.0202 4.44501 17.113 2.74759 15.4736ZM14.2046 14.2046C15.5556 12.8536 16.3146 11.0212 16.3146 9.11059C16.3146 7.19997 15.5556 5.36761 14.2046 4.01659C12.8536 2.66558 11.0212 1.90659 9.11059 1.90659C7.19997 1.90659 5.36761 2.66558 4.01659 4.01659C2.66558 5.36761 1.90659 7.19997 1.90659 9.11059C1.90659 11.0212 2.66558 12.8536 4.01659 14.2046C5.36761 15.5556 7.19997 16.3146 9.11059 16.3146C11.0212 16.3146 12.8536 15.5556 14.2046 14.2046ZM8.21059 4.61059H10.0106V10.0106H8.21059V4.61059ZM8.21059 11.8106H10.0106V13.6106H8.21059V11.8106Z" fill="#1E40AF"/>
</svg>
