<svg width="24" height="31" viewBox="0 0 24 31" fill="none" xmlns="http://www.w3.org/2000/svg">
<path d="M21.1204 14.1672C20.7371 13.6672 20.2704 13.2338 19.8371 12.8005C18.7204 11.8005 17.4538 11.0838 16.3871 10.0338C13.9038 7.60049 13.3538 3.58382 14.9371 0.500488C13.3538 0.883822 11.9704 1.75049 10.7871 2.70049C6.47043 6.16716 4.77043 12.2838 6.80376 17.5338C6.87043 17.7005 6.93709 17.8672 6.93709 18.0838C6.93709 18.4505 6.6871 18.7838 6.35376 18.9172C5.97043 19.0838 5.57043 18.9838 5.25376 18.7172C5.15917 18.6379 5.08006 18.5419 5.02043 18.4338C3.13709 16.0505 2.83709 12.6338 4.10376 9.90049C1.32043 12.1672 -0.196239 16.0005 0.0204279 19.6172C0.120428 20.4505 0.220428 21.2838 0.503761 22.1172C0.737095 23.1172 1.18709 24.1172 1.68709 25.0005C3.48709 27.8838 6.60376 29.9505 9.95376 30.3672C13.5204 30.8172 17.3371 30.1672 20.0704 27.7005C23.1204 24.9338 24.1871 20.5005 22.6204 16.7005L22.4038 16.2672C22.0538 15.5005 21.1204 14.1672 21.1204 14.1672ZM15.8538 24.6672C15.3871 25.0672 14.6204 25.5005 14.0204 25.6672C12.1538 26.3338 10.2871 25.4005 9.18709 24.3005C11.1704 23.8338 12.3538 22.3672 12.7038 20.8838C12.9871 19.5505 12.4538 18.4505 12.2371 17.1672C12.0371 15.9338 12.0704 14.8838 12.5204 13.7338C12.8371 14.3672 13.1704 15.0005 13.5704 15.5005C14.8538 17.1672 16.8704 17.9005 17.3038 20.1672C17.3704 20.4005 17.4038 20.6338 17.4038 20.8838C17.4538 22.2505 16.8538 23.7505 15.8538 24.6672Z" fill="#E14617"/>
</svg>
